%TF.GenerationSoftware,KiCad,Pcbnew,(6.0.0)*%
%TF.CreationDate,2022-02-24T10:47:42+08:00*%
%TF.ProjectId,LedController 2HP sandwich,4c656443-6f6e-4747-926f-6c6c65722032,rev?*%
%TF.SameCoordinates,Original*%
%TF.FileFunction,Copper,L2,Bot*%
%TF.FilePolarity,Positive*%
%FSLAX46Y46*%
G04 Gerber Fmt 4.6, Leading zero omitted, Abs format (unit mm)*
G04 Created by KiCad (PCBNEW (6.0.0)) date 2022-02-24 10:47:42*
%MOMM*%
%LPD*%
G01*
G04 APERTURE LIST*
G04 Aperture macros list*
%AMRoundRect*
0 Rectangle with rounded corners*
0 $1 Rounding radius*
0 $2 $3 $4 $5 $6 $7 $8 $9 X,Y pos of 4 corners*
0 Add a 4 corners polygon primitive as box body*
4,1,4,$2,$3,$4,$5,$6,$7,$8,$9,$2,$3,0*
0 Add four circle primitives for the rounded corners*
1,1,$1+$1,$2,$3*
1,1,$1+$1,$4,$5*
1,1,$1+$1,$6,$7*
1,1,$1+$1,$8,$9*
0 Add four rect primitives between the rounded corners*
20,1,$1+$1,$2,$3,$4,$5,0*
20,1,$1+$1,$4,$5,$6,$7,0*
20,1,$1+$1,$6,$7,$8,$9,0*
20,1,$1+$1,$8,$9,$2,$3,0*%
G04 Aperture macros list end*
%TA.AperFunction,ComponentPad*%
%ADD10O,2.720000X3.240000*%
%TD*%
%TA.AperFunction,ComponentPad*%
%ADD11R,1.800000X1.800000*%
%TD*%
%TA.AperFunction,ComponentPad*%
%ADD12C,1.800000*%
%TD*%
%TA.AperFunction,ComponentPad*%
%ADD13R,2.200000X1.500000*%
%TD*%
%TA.AperFunction,ComponentPad*%
%ADD14O,2.500000X1.400000*%
%TD*%
%TA.AperFunction,ComponentPad*%
%ADD15O,2.400000X1.500000*%
%TD*%
%TA.AperFunction,ComponentPad*%
%ADD16R,1.700000X1.700000*%
%TD*%
%TA.AperFunction,ComponentPad*%
%ADD17O,1.700000X1.700000*%
%TD*%
%TA.AperFunction,ComponentPad*%
%ADD18C,8.000000*%
%TD*%
%TA.AperFunction,ComponentPad*%
%ADD19C,7.612000*%
%TD*%
%TA.AperFunction,WasherPad*%
%ADD20C,3.500000*%
%TD*%
%TA.AperFunction,SMDPad,CuDef*%
%ADD21RoundRect,0.250000X-0.312500X-0.625000X0.312500X-0.625000X0.312500X0.625000X-0.312500X0.625000X0*%
%TD*%
%TA.AperFunction,ViaPad*%
%ADD22C,0.800000*%
%TD*%
%TA.AperFunction,ViaPad*%
%ADD23C,2.300000*%
%TD*%
%TA.AperFunction,Conductor*%
%ADD24C,0.250000*%
%TD*%
G04 APERTURE END LIST*
D10*
%TO.P,RV2,*%
%TO.N,*%
X15110000Y-40387185D03*
X24710000Y-40387185D03*
D11*
%TO.P,RV2,1,1*%
%TO.N,GND*%
X17410000Y-47887185D03*
D12*
%TO.P,RV2,2,2*%
%TO.N,Net-(R2-Pad2)*%
X19910000Y-47887185D03*
%TO.P,RV2,3,3*%
%TO.N,Net-(J2-PadT)*%
X22410000Y-47887185D03*
%TD*%
D10*
%TO.P,RV3,*%
%TO.N,*%
X15110000Y-8862463D03*
X24710000Y-8862463D03*
D11*
%TO.P,RV3,1,1*%
%TO.N,GND*%
X17410000Y-16362463D03*
D12*
%TO.P,RV3,2,2*%
%TO.N,Net-(R3-Pad2)*%
X19910000Y-16362463D03*
%TO.P,RV3,3,3*%
%TO.N,Net-(J3-PadT)*%
X22410000Y-16362463D03*
%TD*%
D13*
%TO.P,J1,S*%
%TO.N,GND*%
X19910000Y-94793050D03*
D14*
%TO.P,J1,T*%
%TO.N,Net-(J1-PadT)*%
X19910000Y-83393050D03*
D15*
%TO.P,J1,TN*%
%TO.N,Net-(J3-PadT)*%
X19910000Y-91693050D03*
%TD*%
D13*
%TO.P,J2,S*%
%TO.N,GND*%
X19910000Y-63274016D03*
D14*
%TO.P,J2,T*%
%TO.N,Net-(J2-PadT)*%
X19910000Y-51874016D03*
D15*
%TO.P,J2,TN*%
%TO.N,Net-(J1-PadT)*%
X19910000Y-60174016D03*
%TD*%
D13*
%TO.P,J3,S*%
%TO.N,GND*%
X19910000Y-31754983D03*
D14*
%TO.P,J3,T*%
%TO.N,Net-(J3-PadT)*%
X19910000Y-20354983D03*
D15*
%TO.P,J3,TN*%
%TO.N,Net-(J2-PadT)*%
X19910000Y-28654983D03*
%TD*%
D10*
%TO.P,RV1,*%
%TO.N,*%
X15110000Y-71911907D03*
X24710000Y-71911907D03*
D11*
%TO.P,RV1,1,1*%
%TO.N,GND*%
X17410000Y-79411907D03*
D12*
%TO.P,RV1,2,2*%
%TO.N,Net-(R1-Pad2)*%
X19910000Y-79411907D03*
%TO.P,RV1,3,3*%
%TO.N,Net-(J1-PadT)*%
X22410000Y-79411907D03*
%TD*%
D16*
%TO.P,REF\u002A\u002A,1*%
%TO.N,N/C*%
X7525000Y-1760000D03*
D17*
%TO.P,REF\u002A\u002A,2*%
%TO.N,GND*%
X4985000Y-1760000D03*
%TO.P,REF\u002A\u002A,3*%
%TO.N,Net-(R3-Pad1)*%
X2445000Y-1760000D03*
%TD*%
D18*
%TO.P,,1*%
%TO.N,N/C*%
X34584447Y-25392520D03*
%TD*%
%TO.P,,1*%
%TO.N,N/C*%
X34584447Y-88430587D03*
%TD*%
D16*
%TO.P,REF\u002A\u002A,1*%
%TO.N,Net-(R1-Pad1)*%
X2475000Y-98140000D03*
D17*
%TO.P,REF\u002A\u002A,2*%
%TO.N,GND*%
X5015000Y-98140000D03*
%TO.P,REF\u002A\u002A,3*%
%TO.N,Net-(R2-Pad1)*%
X7555000Y-98140000D03*
%TD*%
D19*
%TO.P,,alps pot*%
%TO.N,N/C*%
X34584447Y-72029444D03*
%TD*%
D20*
%TO.P,U$1,*%
%TO.N,*%
X36992500Y11362500D03*
X36992500Y-111137500D03*
%TD*%
D19*
%TO.P,,alps pot*%
%TO.N,N/C*%
X34584447Y-8980000D03*
%TD*%
D18*
%TO.P,,1*%
%TO.N,N/C*%
X34584447Y-56911553D03*
%TD*%
D19*
%TO.P,,alps pot*%
%TO.N,N/C*%
X34584447Y-40504722D03*
%TD*%
D21*
%TO.P,R1,1*%
%TO.N,Net-(R1-Pad1)*%
X18437500Y-76790000D03*
%TO.P,R1,2*%
%TO.N,Net-(R1-Pad2)*%
X21362500Y-76790000D03*
%TD*%
%TO.P,R2,1*%
%TO.N,Net-(R2-Pad1)*%
X18447500Y-45239145D03*
%TO.P,R2,2*%
%TO.N,Net-(R2-Pad2)*%
X21372500Y-45239145D03*
%TD*%
%TO.P,R3,1*%
%TO.N,Net-(R3-Pad1)*%
X18447500Y-13733363D03*
%TO.P,R3,2*%
%TO.N,Net-(R3-Pad2)*%
X21372500Y-13733363D03*
%TD*%
D16*
%TO.P,J4,1,Pin_1*%
%TO.N,-12V*%
X3725000Y-90935000D03*
D17*
%TO.P,J4,2,Pin_2*%
X6265000Y-90935000D03*
%TO.P,J4,3,Pin_3*%
%TO.N,GND*%
X3725000Y-88395000D03*
%TO.P,J4,4,Pin_4*%
X6265000Y-88395000D03*
%TO.P,J4,5,Pin_5*%
X3725000Y-85855000D03*
%TO.P,J4,6,Pin_6*%
X6265000Y-85855000D03*
%TO.P,J4,7,Pin_7*%
X3725000Y-83315000D03*
%TO.P,J4,8,Pin_8*%
X6265000Y-83315000D03*
%TO.P,J4,9,Pin_9*%
%TO.N,+12V*%
X3725000Y-80775000D03*
%TO.P,J4,10,Pin_10*%
X6265000Y-80775000D03*
%TO.P,J4,11,Pin_11*%
%TO.N,+5V*%
X3725000Y-78235000D03*
%TO.P,J4,12,Pin_12*%
X6265000Y-78235000D03*
%TO.P,J4,13,Pin_13*%
%TO.N,unconnected-(J4-Pad13)*%
X3725000Y-75695000D03*
%TO.P,J4,14,Pin_14*%
%TO.N,unconnected-(J4-Pad14)*%
X6265000Y-75695000D03*
%TO.P,J4,15,Pin_15*%
%TO.N,unconnected-(J4-Pad15)*%
X3725000Y-73155000D03*
%TO.P,J4,16,Pin_16*%
%TO.N,unconnected-(J4-Pad16)*%
X6265000Y-73155000D03*
%TD*%
D16*
%TO.P,J5,1,Pin_1*%
%TO.N,Net-(J5-Pad1)*%
X5000000Y-10750000D03*
D17*
%TO.P,J5,2,Pin_2*%
%TO.N,Net-(J5-Pad2)*%
X5000000Y-13290000D03*
%TO.P,J5,3,Pin_3*%
%TO.N,Net-(J5-Pad3)*%
X5000000Y-15830000D03*
%TO.P,J5,4,Pin_4*%
%TO.N,+12V*%
X5000000Y-18370000D03*
%TD*%
D16*
%TO.P,REF\u002A\u002A,1*%
%TO.N,N/C*%
X22435000Y-1750000D03*
D17*
%TO.P,REF\u002A\u002A,2*%
%TO.N,GND*%
X19895000Y-1750000D03*
%TO.P,REF\u002A\u002A,3*%
%TO.N,Net-(R3-Pad1)*%
X17355000Y-1750000D03*
%TD*%
D16*
%TO.P,REF\u002A\u002A,1*%
%TO.N,Net-(R1-Pad1)*%
X17385000Y-98190000D03*
D17*
%TO.P,REF\u002A\u002A,2*%
%TO.N,GND*%
X19925000Y-98190000D03*
%TO.P,REF\u002A\u002A,3*%
%TO.N,Net-(R2-Pad1)*%
X22465000Y-98190000D03*
%TD*%
D22*
%TO.N,Net-(R3-Pad1)*%
X5304500Y-21270000D03*
D23*
%TO.N,GND*%
X2000000Y-65000000D03*
X2000000Y-33000000D03*
X16910000Y-33000000D03*
X8000000Y-33000000D03*
X22910000Y-33000000D03*
X22910000Y-65000000D03*
X16910000Y-65000000D03*
X8000000Y-65000000D03*
D22*
%TO.N,+12V*%
X4990000Y-50600000D03*
%TO.N,Net-(J5-Pad3)*%
X8720000Y-16100000D03*
%TO.N,-12V*%
X4750000Y-48800000D03*
%TD*%
D24*
%TO.N,Net-(R1-Pad1)*%
X18437500Y-76790000D02*
X17502885Y-76790000D01*
X16105489Y-78187396D02*
X16105489Y-96740489D01*
X17502885Y-76790000D02*
X16105489Y-78187396D01*
X16105489Y-96740489D02*
X17555000Y-98190000D01*
%TO.N,Net-(R2-Pad1)*%
X18325480Y-51434520D02*
X18325480Y-64330205D01*
X23634511Y-78034511D02*
X23634511Y-97190489D01*
X22917210Y-77317210D02*
X23634511Y-78034511D01*
X18447500Y-45239145D02*
X18685489Y-45477134D01*
X18325480Y-64330205D02*
X22917210Y-68921935D01*
X18685489Y-45477134D02*
X18685489Y-51074511D01*
X22917210Y-68921935D02*
X22917210Y-77317210D01*
X18685489Y-51074511D02*
X18325480Y-51434520D01*
X23634511Y-97190489D02*
X22635000Y-98190000D01*
%TO.N,Net-(R3-Pad1)*%
X5304500Y-21270000D02*
X3825489Y-19790989D01*
X3825489Y-3140489D02*
X2445000Y-1760000D01*
X18447500Y-13733363D02*
X18075000Y-13360863D01*
X3825489Y-19790989D02*
X3825489Y-3140489D01*
X17740000Y-5685000D02*
X17740000Y-1750000D01*
X18075000Y-13360863D02*
X18075000Y-6020000D01*
X18075000Y-6020000D02*
X17740000Y-5685000D01*
%TO.N,Net-(J1-PadT)*%
X22330000Y-79411907D02*
X22330000Y-80953050D01*
X22330000Y-80953050D02*
X19890000Y-83393050D01*
%TO.N,Net-(J2-PadT)*%
X19900000Y-50617185D02*
X19900000Y-51874016D01*
X22630000Y-47887185D02*
X19900000Y-50617185D01*
%TO.N,Net-(J3-PadT)*%
X22360000Y-16362463D02*
X22360000Y-17864983D01*
X22360000Y-17864983D02*
X19870000Y-20354983D01*
%TO.N,+5V*%
X3725000Y-78235000D02*
X6265000Y-78235000D01*
%TO.N,+12V*%
X4990000Y-50600000D02*
X5050000Y-50600000D01*
X6470000Y-70220000D02*
X7940000Y-71690000D01*
X6470000Y-52020000D02*
X6470000Y-70220000D01*
X3725000Y-80775000D02*
X6265000Y-80775000D01*
X7940000Y-71690000D02*
X7940000Y-79100000D01*
X5050000Y-50600000D02*
X6470000Y-52020000D01*
X7940000Y-79100000D02*
X6265000Y-80775000D01*
%TO.N,Net-(J5-Pad3)*%
X8720000Y-16100000D02*
X8450000Y-15830000D01*
X8450000Y-15830000D02*
X5000000Y-15830000D01*
%TO.N,-12V*%
X3725000Y-90935000D02*
X6265000Y-90935000D01*
X1750000Y-88960000D02*
X3725000Y-90935000D01*
X3600000Y-70500000D02*
X1750000Y-72350000D01*
X1750000Y-72350000D02*
X1750000Y-88960000D01*
X4750000Y-48800000D02*
X3600000Y-49950000D01*
X3600000Y-49950000D02*
X3600000Y-70500000D01*
%TO.N,Net-(R1-Pad2)*%
X21362500Y-77879407D02*
X19830000Y-79411907D01*
X21362500Y-76790000D02*
X21362500Y-77879407D01*
%TO.N,Net-(R2-Pad2)*%
X21372500Y-45239145D02*
X21372500Y-46644685D01*
X21372500Y-46644685D02*
X20130000Y-47887185D01*
%TO.N,Net-(R3-Pad2)*%
X21372500Y-14849963D02*
X19860000Y-16362463D01*
X21372500Y-13733363D02*
X21372500Y-14849963D01*
%TD*%
%TA.AperFunction,Conductor*%
%TO.N,GND*%
G36*
X1540258Y-528002D02*
G01*
X1586751Y-581658D01*
X1596855Y-651932D01*
X1567361Y-716512D01*
X1547788Y-734761D01*
X1539965Y-740635D01*
X1385629Y-902138D01*
X1259743Y-1086680D01*
X1165688Y-1289305D01*
X1105989Y-1504570D01*
X1082251Y-1726695D01*
X1095110Y-1949715D01*
X1096247Y-1954761D01*
X1096248Y-1954767D01*
X1117275Y-2048069D01*
X1144222Y-2167639D01*
X1228266Y-2374616D01*
X1344987Y-2565088D01*
X1491250Y-2733938D01*
X1663126Y-2876632D01*
X1856000Y-2989338D01*
X2064692Y-3069030D01*
X2069760Y-3070061D01*
X2069763Y-3070062D01*
X2164862Y-3089410D01*
X2283597Y-3113567D01*
X2288772Y-3113757D01*
X2288774Y-3113757D01*
X2501673Y-3121564D01*
X2501677Y-3121564D01*
X2506837Y-3121753D01*
X2511957Y-3121097D01*
X2511959Y-3121097D01*
X2723288Y-3094025D01*
X2723289Y-3094025D01*
X2728416Y-3093368D01*
X2733367Y-3091883D01*
X2733370Y-3091882D01*
X2774829Y-3079444D01*
X2845825Y-3079028D01*
X2900131Y-3111035D01*
X3155084Y-3365988D01*
X3189110Y-3428300D01*
X3191989Y-3455083D01*
X3191989Y-19712222D01*
X3191462Y-19723405D01*
X3189787Y-19730898D01*
X3190036Y-19738824D01*
X3190036Y-19738825D01*
X3191927Y-19798975D01*
X3191989Y-19802934D01*
X3191989Y-19830845D01*
X3192486Y-19834779D01*
X3192486Y-19834780D01*
X3192494Y-19834845D01*
X3193427Y-19846682D01*
X3194816Y-19890878D01*
X3200467Y-19910328D01*
X3204476Y-19929689D01*
X3207015Y-19949786D01*
X3209934Y-19957157D01*
X3209934Y-19957159D01*
X3223293Y-19990901D01*
X3227138Y-20002131D01*
X3239471Y-20044582D01*
X3243504Y-20051401D01*
X3243506Y-20051406D01*
X3249782Y-20062017D01*
X3258477Y-20079765D01*
X3265937Y-20098606D01*
X3270599Y-20105022D01*
X3270599Y-20105023D01*
X3291925Y-20134376D01*
X3298441Y-20144296D01*
X3320947Y-20182351D01*
X3335268Y-20196672D01*
X3348108Y-20211705D01*
X3360017Y-20228096D01*
X3366123Y-20233147D01*
X3394094Y-20256287D01*
X3402873Y-20264277D01*
X4357378Y-21218782D01*
X4391404Y-21281094D01*
X4393592Y-21294703D01*
X4410958Y-21459928D01*
X4469973Y-21641556D01*
X4565460Y-21806944D01*
X4693247Y-21948866D01*
X4847748Y-22061118D01*
X4853776Y-22063802D01*
X4853778Y-22063803D01*
X5016181Y-22136109D01*
X5022212Y-22138794D01*
X5115612Y-22158647D01*
X5202556Y-22177128D01*
X5202561Y-22177128D01*
X5209013Y-22178500D01*
X5399987Y-22178500D01*
X5406439Y-22177128D01*
X5406444Y-22177128D01*
X5493388Y-22158647D01*
X5586788Y-22138794D01*
X5592819Y-22136109D01*
X5755222Y-22063803D01*
X5755224Y-22063802D01*
X5761252Y-22061118D01*
X5915753Y-21948866D01*
X6043540Y-21806944D01*
X6139027Y-21641556D01*
X6198042Y-21459928D01*
X6218004Y-21270000D01*
X6198042Y-21080072D01*
X6139027Y-20898444D01*
X6043540Y-20733056D01*
X5915753Y-20591134D01*
X5761252Y-20478882D01*
X5755224Y-20476198D01*
X5755222Y-20476197D01*
X5592819Y-20403891D01*
X5592818Y-20403891D01*
X5586788Y-20401206D01*
X5493387Y-20381353D01*
X5406444Y-20362872D01*
X5406439Y-20362872D01*
X5399987Y-20361500D01*
X5344095Y-20361500D01*
X5275974Y-20341498D01*
X5255000Y-20324595D01*
X4873706Y-19943301D01*
X4839680Y-19880989D01*
X4844745Y-19810174D01*
X4887292Y-19753338D01*
X4953812Y-19728527D01*
X4967418Y-19728291D01*
X5056673Y-19731564D01*
X5056677Y-19731564D01*
X5061837Y-19731753D01*
X5066957Y-19731097D01*
X5066959Y-19731097D01*
X5278288Y-19704025D01*
X5278289Y-19704025D01*
X5283416Y-19703368D01*
X5288366Y-19701883D01*
X5492429Y-19640661D01*
X5492434Y-19640659D01*
X5497384Y-19639174D01*
X5697994Y-19540896D01*
X5879860Y-19411173D01*
X6038096Y-19253489D01*
X6168453Y-19072077D01*
X6267430Y-18871811D01*
X6332370Y-18658069D01*
X6361529Y-18436590D01*
X6363156Y-18370000D01*
X6344852Y-18147361D01*
X6290431Y-17930702D01*
X6201354Y-17725840D01*
X6080014Y-17538277D01*
X5929670Y-17373051D01*
X5925619Y-17369852D01*
X5925615Y-17369848D01*
X5758414Y-17237800D01*
X5758410Y-17237798D01*
X5754359Y-17234598D01*
X5713053Y-17211796D01*
X5663084Y-17161364D01*
X5648312Y-17091921D01*
X5673428Y-17025516D01*
X5700780Y-16998909D01*
X5826316Y-16909365D01*
X5879860Y-16871173D01*
X6038096Y-16713489D01*
X6168453Y-16532077D01*
X6170746Y-16527437D01*
X6172446Y-16524608D01*
X6224674Y-16476518D01*
X6280451Y-16463500D01*
X7808076Y-16463500D01*
X7876197Y-16483502D01*
X7917195Y-16526500D01*
X7980960Y-16636944D01*
X8108747Y-16778866D01*
X8207430Y-16850564D01*
X8239923Y-16874171D01*
X8263248Y-16891118D01*
X8269276Y-16893802D01*
X8269278Y-16893803D01*
X8431681Y-16966109D01*
X8437712Y-16968794D01*
X8531112Y-16988647D01*
X8618056Y-17007128D01*
X8618061Y-17007128D01*
X8624513Y-17008500D01*
X8815487Y-17008500D01*
X8821939Y-17007128D01*
X8821944Y-17007128D01*
X8908888Y-16988647D01*
X9002288Y-16968794D01*
X9008319Y-16966109D01*
X9170722Y-16893803D01*
X9170724Y-16893802D01*
X9176752Y-16891118D01*
X9200078Y-16874171D01*
X9218918Y-16860483D01*
X9291940Y-16807429D01*
X9358806Y-16783571D01*
X9427958Y-16799651D01*
X9477438Y-16850564D01*
X9492000Y-16909365D01*
X9492000Y-99366000D01*
X9471998Y-99434121D01*
X9418342Y-99480614D01*
X9366000Y-99492000D01*
X8392720Y-99492000D01*
X8324599Y-99471998D01*
X8278106Y-99418342D01*
X8268002Y-99348068D01*
X8297496Y-99283488D01*
X8319552Y-99263421D01*
X8346938Y-99243887D01*
X8434860Y-99181173D01*
X8593096Y-99023489D01*
X8723453Y-98842077D01*
X8736995Y-98814678D01*
X8820136Y-98646453D01*
X8820137Y-98646451D01*
X8822430Y-98641811D01*
X8887370Y-98428069D01*
X8916529Y-98206590D01*
X8918156Y-98140000D01*
X8899852Y-97917361D01*
X8845431Y-97700702D01*
X8756354Y-97495840D01*
X8635014Y-97308277D01*
X8484670Y-97143051D01*
X8480619Y-97139852D01*
X8480615Y-97139848D01*
X8313414Y-97007800D01*
X8313410Y-97007798D01*
X8309359Y-97004598D01*
X8273028Y-96984542D01*
X8257136Y-96975769D01*
X8113789Y-96896638D01*
X8108920Y-96894914D01*
X8108916Y-96894912D01*
X7908087Y-96823795D01*
X7908083Y-96823794D01*
X7903212Y-96822069D01*
X7898119Y-96821162D01*
X7898116Y-96821161D01*
X7688373Y-96783800D01*
X7688367Y-96783799D01*
X7683284Y-96782894D01*
X7609452Y-96781992D01*
X7465081Y-96780228D01*
X7465079Y-96780228D01*
X7459911Y-96780165D01*
X7239091Y-96813955D01*
X7026756Y-96883357D01*
X6828607Y-96986507D01*
X6824474Y-96989610D01*
X6824471Y-96989612D01*
X6654100Y-97117530D01*
X6649965Y-97120635D01*
X6495629Y-97282138D01*
X6492715Y-97286410D01*
X6492714Y-97286411D01*
X6387898Y-97440066D01*
X6332987Y-97485069D01*
X6262462Y-97493240D01*
X6198715Y-97461986D01*
X6178018Y-97437502D01*
X6097426Y-97312926D01*
X6091136Y-97304757D01*
X5947806Y-97147240D01*
X5940273Y-97140215D01*
X5773139Y-97008222D01*
X5764552Y-97002517D01*
X5578117Y-96899599D01*
X5568705Y-96895369D01*
X5367959Y-96824280D01*
X5357988Y-96821646D01*
X5286837Y-96808972D01*
X5273540Y-96810432D01*
X5269000Y-96824989D01*
X5269000Y-98268000D01*
X5248998Y-98336121D01*
X5195342Y-98382614D01*
X5143000Y-98394000D01*
X4887000Y-98394000D01*
X4818879Y-98373998D01*
X4772386Y-98320342D01*
X4761000Y-98268000D01*
X4761000Y-96823102D01*
X4757082Y-96809758D01*
X4742806Y-96807771D01*
X4704324Y-96813660D01*
X4694288Y-96816051D01*
X4491868Y-96882212D01*
X4482359Y-96886209D01*
X4293463Y-96984542D01*
X4284738Y-96990036D01*
X4114433Y-97117905D01*
X4106726Y-97124748D01*
X4029478Y-97205584D01*
X3967954Y-97241014D01*
X3897042Y-97237557D01*
X3839255Y-97196311D01*
X3820402Y-97162763D01*
X3778767Y-97051703D01*
X3775615Y-97043295D01*
X3688261Y-96926739D01*
X3571705Y-96839385D01*
X3435316Y-96788255D01*
X3373134Y-96781500D01*
X1576866Y-96781500D01*
X1514684Y-96788255D01*
X1378295Y-96839385D01*
X1261739Y-96926739D01*
X1174385Y-97043295D01*
X1123255Y-97179684D01*
X1116500Y-97241866D01*
X1116500Y-99038134D01*
X1123255Y-99100316D01*
X1174385Y-99236705D01*
X1214655Y-99290436D01*
X1239501Y-99356942D01*
X1224448Y-99426324D01*
X1174273Y-99476554D01*
X1113827Y-99492000D01*
X634000Y-99492000D01*
X565879Y-99471998D01*
X519386Y-99418342D01*
X508000Y-99366000D01*
X508000Y-72329943D01*
X1111780Y-72329943D01*
X1112526Y-72337835D01*
X1115941Y-72373961D01*
X1116500Y-72385819D01*
X1116500Y-88881233D01*
X1115973Y-88892416D01*
X1114298Y-88899909D01*
X1114547Y-88907835D01*
X1114547Y-88907836D01*
X1116438Y-88967986D01*
X1116500Y-88971945D01*
X1116500Y-88999856D01*
X1116997Y-89003790D01*
X1116997Y-89003791D01*
X1117005Y-89003856D01*
X1117938Y-89015693D01*
X1119327Y-89059889D01*
X1124978Y-89079339D01*
X1128987Y-89098700D01*
X1131526Y-89118797D01*
X1134445Y-89126168D01*
X1134445Y-89126170D01*
X1147804Y-89159912D01*
X1151649Y-89171142D01*
X1161771Y-89205983D01*
X1163982Y-89213593D01*
X1168015Y-89220412D01*
X1168017Y-89220417D01*
X1174293Y-89231028D01*
X1182988Y-89248776D01*
X1190448Y-89267617D01*
X1195110Y-89274033D01*
X1195110Y-89274034D01*
X1216436Y-89303387D01*
X1222952Y-89313307D01*
X1245458Y-89351362D01*
X1259779Y-89365683D01*
X1272619Y-89380716D01*
X1284528Y-89397107D01*
X1290634Y-89402158D01*
X1318605Y-89425298D01*
X1327384Y-89433288D01*
X2329595Y-90435500D01*
X2363621Y-90497812D01*
X2366500Y-90524595D01*
X2366500Y-91833134D01*
X2373255Y-91895316D01*
X2424385Y-92031705D01*
X2511739Y-92148261D01*
X2628295Y-92235615D01*
X2764684Y-92286745D01*
X2826866Y-92293500D01*
X4623134Y-92293500D01*
X4685316Y-92286745D01*
X4821705Y-92235615D01*
X4938261Y-92148261D01*
X5025615Y-92031705D01*
X5047799Y-91972529D01*
X5069598Y-91914382D01*
X5112240Y-91857618D01*
X5178802Y-91832918D01*
X5248150Y-91848126D01*
X5282817Y-91876114D01*
X5311250Y-91908938D01*
X5483126Y-92051632D01*
X5676000Y-92164338D01*
X5884692Y-92244030D01*
X5889760Y-92245061D01*
X5889763Y-92245062D01*
X5997017Y-92266883D01*
X6103597Y-92288567D01*
X6108772Y-92288757D01*
X6108774Y-92288757D01*
X6321673Y-92296564D01*
X6321677Y-92296564D01*
X6326837Y-92296753D01*
X6331957Y-92296097D01*
X6331959Y-92296097D01*
X6543288Y-92269025D01*
X6543289Y-92269025D01*
X6548416Y-92268368D01*
X6553366Y-92266883D01*
X6757429Y-92205661D01*
X6757434Y-92205659D01*
X6762384Y-92204174D01*
X6962994Y-92105896D01*
X7144860Y-91976173D01*
X7303096Y-91818489D01*
X7433453Y-91637077D01*
X7532430Y-91436811D01*
X7597370Y-91223069D01*
X7626529Y-91001590D01*
X7628156Y-90935000D01*
X7609852Y-90712361D01*
X7555431Y-90495702D01*
X7466354Y-90290840D01*
X7345014Y-90103277D01*
X7194670Y-89938051D01*
X7190619Y-89934852D01*
X7190615Y-89934848D01*
X7023414Y-89802800D01*
X7023410Y-89802798D01*
X7019359Y-89799598D01*
X6977569Y-89776529D01*
X6927598Y-89726097D01*
X6912826Y-89656654D01*
X6937942Y-89590248D01*
X6965294Y-89563641D01*
X7140328Y-89438792D01*
X7148200Y-89432139D01*
X7299052Y-89281812D01*
X7305730Y-89273965D01*
X7430003Y-89101020D01*
X7435313Y-89092183D01*
X7529670Y-88901267D01*
X7533469Y-88891672D01*
X7595377Y-88687910D01*
X7597555Y-88677837D01*
X7598986Y-88666962D01*
X7596775Y-88652778D01*
X7583617Y-88649000D01*
X3597000Y-88649000D01*
X3528879Y-88628998D01*
X3482386Y-88575342D01*
X3471000Y-88523000D01*
X3471000Y-88122885D01*
X3979000Y-88122885D01*
X3983475Y-88138124D01*
X3984865Y-88139329D01*
X3992548Y-88141000D01*
X5992885Y-88141000D01*
X6008124Y-88136525D01*
X6009329Y-88135135D01*
X6011000Y-88127452D01*
X6011000Y-88122885D01*
X6519000Y-88122885D01*
X6523475Y-88138124D01*
X6524865Y-88139329D01*
X6532548Y-88141000D01*
X7583344Y-88141000D01*
X7596875Y-88137027D01*
X7598180Y-88127947D01*
X7556214Y-87960875D01*
X7552894Y-87951124D01*
X7467972Y-87755814D01*
X7463105Y-87746739D01*
X7347426Y-87567926D01*
X7341136Y-87559757D01*
X7197806Y-87402240D01*
X7190273Y-87395215D01*
X7023139Y-87263222D01*
X7014552Y-87257517D01*
X6977116Y-87236851D01*
X6927146Y-87186419D01*
X6912374Y-87116976D01*
X6937490Y-87050571D01*
X6964842Y-87023964D01*
X7140327Y-86898792D01*
X7148200Y-86892139D01*
X7299052Y-86741812D01*
X7305730Y-86733965D01*
X7430003Y-86561020D01*
X7435313Y-86552183D01*
X7529670Y-86361267D01*
X7533469Y-86351672D01*
X7595377Y-86147910D01*
X7597555Y-86137837D01*
X7598986Y-86126962D01*
X7596775Y-86112778D01*
X7583617Y-86109000D01*
X6537115Y-86109000D01*
X6521876Y-86113475D01*
X6520671Y-86114865D01*
X6519000Y-86122548D01*
X6519000Y-88122885D01*
X6011000Y-88122885D01*
X6011000Y-86127115D01*
X6006525Y-86111876D01*
X6005135Y-86110671D01*
X5997452Y-86109000D01*
X3997115Y-86109000D01*
X3981876Y-86113475D01*
X3980671Y-86114865D01*
X3979000Y-86122548D01*
X3979000Y-88122885D01*
X3471000Y-88122885D01*
X3471000Y-85582885D01*
X3979000Y-85582885D01*
X3983475Y-85598124D01*
X3984865Y-85599329D01*
X3992548Y-85601000D01*
X5992885Y-85601000D01*
X6008124Y-85596525D01*
X6009329Y-85595135D01*
X6011000Y-85587452D01*
X6011000Y-85582885D01*
X6519000Y-85582885D01*
X6523475Y-85598124D01*
X6524865Y-85599329D01*
X6532548Y-85601000D01*
X7583344Y-85601000D01*
X7596875Y-85597027D01*
X7598180Y-85587947D01*
X7556214Y-85420875D01*
X7552894Y-85411124D01*
X7467972Y-85215814D01*
X7463105Y-85206739D01*
X7347426Y-85027926D01*
X7341136Y-85019757D01*
X7197806Y-84862240D01*
X7190273Y-84855215D01*
X7023139Y-84723222D01*
X7014552Y-84717517D01*
X6977116Y-84696851D01*
X6927146Y-84646419D01*
X6912374Y-84576976D01*
X6937490Y-84510571D01*
X6964842Y-84483964D01*
X7140327Y-84358792D01*
X7148200Y-84352139D01*
X7299052Y-84201812D01*
X7305730Y-84193965D01*
X7430003Y-84021020D01*
X7435313Y-84012183D01*
X7529670Y-83821267D01*
X7533469Y-83811672D01*
X7595377Y-83607910D01*
X7597555Y-83597837D01*
X7598986Y-83586962D01*
X7596775Y-83572778D01*
X7583617Y-83569000D01*
X6537115Y-83569000D01*
X6521876Y-83573475D01*
X6520671Y-83574865D01*
X6519000Y-83582548D01*
X6519000Y-85582885D01*
X6011000Y-85582885D01*
X6011000Y-83587115D01*
X6006525Y-83571876D01*
X6005135Y-83570671D01*
X5997452Y-83569000D01*
X3997115Y-83569000D01*
X3981876Y-83573475D01*
X3980671Y-83574865D01*
X3979000Y-83582548D01*
X3979000Y-85582885D01*
X3471000Y-85582885D01*
X3471000Y-83187000D01*
X3491002Y-83118879D01*
X3544658Y-83072386D01*
X3597000Y-83061000D01*
X7583344Y-83061000D01*
X7596875Y-83057027D01*
X7598180Y-83047947D01*
X7556214Y-82880875D01*
X7552894Y-82871124D01*
X7467972Y-82675814D01*
X7463105Y-82666739D01*
X7347426Y-82487926D01*
X7341136Y-82479757D01*
X7197806Y-82322240D01*
X7190273Y-82315215D01*
X7023139Y-82183222D01*
X7014556Y-82177520D01*
X6977602Y-82157120D01*
X6927631Y-82106687D01*
X6912859Y-82037245D01*
X6937975Y-81970839D01*
X6965327Y-81944232D01*
X6988797Y-81927491D01*
X7144860Y-81816173D01*
X7303096Y-81658489D01*
X7362594Y-81575689D01*
X7430435Y-81481277D01*
X7433453Y-81477077D01*
X7454324Y-81434849D01*
X7530136Y-81281453D01*
X7530137Y-81281451D01*
X7532430Y-81276811D01*
X7597370Y-81063069D01*
X7626529Y-80841590D01*
X7628156Y-80775000D01*
X7609852Y-80552361D01*
X7581821Y-80440765D01*
X7584625Y-80369823D01*
X7614930Y-80320974D01*
X8332247Y-79603657D01*
X8340537Y-79596113D01*
X8347018Y-79592000D01*
X8393659Y-79542332D01*
X8396413Y-79539491D01*
X8416135Y-79519769D01*
X8418619Y-79516567D01*
X8426317Y-79507555D01*
X8451161Y-79481098D01*
X8456586Y-79475321D01*
X8466347Y-79457566D01*
X8477198Y-79441047D01*
X8489614Y-79425041D01*
X8507174Y-79384463D01*
X8512391Y-79373813D01*
X8533695Y-79335060D01*
X8538733Y-79315437D01*
X8545137Y-79296734D01*
X8550033Y-79285420D01*
X8550033Y-79285419D01*
X8553181Y-79278145D01*
X8554420Y-79270322D01*
X8554423Y-79270312D01*
X8560099Y-79234476D01*
X8562505Y-79222856D01*
X8571528Y-79187711D01*
X8571528Y-79187710D01*
X8573500Y-79180030D01*
X8573500Y-79159776D01*
X8575051Y-79140065D01*
X8576980Y-79127886D01*
X8578220Y-79120057D01*
X8574059Y-79076038D01*
X8573500Y-79064181D01*
X8573500Y-71768767D01*
X8574027Y-71757584D01*
X8575702Y-71750091D01*
X8573562Y-71682000D01*
X8573500Y-71678043D01*
X8573500Y-71650144D01*
X8572996Y-71646153D01*
X8572063Y-71634311D01*
X8570923Y-71598036D01*
X8570674Y-71590111D01*
X8568462Y-71582497D01*
X8568461Y-71582492D01*
X8565023Y-71570659D01*
X8561012Y-71551295D01*
X8559467Y-71539064D01*
X8558474Y-71531203D01*
X8555557Y-71523836D01*
X8555556Y-71523831D01*
X8542198Y-71490092D01*
X8538354Y-71478865D01*
X8528230Y-71444022D01*
X8526018Y-71436407D01*
X8515707Y-71418972D01*
X8507012Y-71401224D01*
X8499552Y-71382383D01*
X8473564Y-71346613D01*
X8467048Y-71336693D01*
X8448580Y-71305465D01*
X8448578Y-71305462D01*
X8444542Y-71298638D01*
X8430221Y-71284317D01*
X8417380Y-71269283D01*
X8410131Y-71259306D01*
X8405472Y-71252893D01*
X8371395Y-71224702D01*
X8362616Y-71216712D01*
X7140405Y-69994500D01*
X7106379Y-69932188D01*
X7103500Y-69905405D01*
X7103500Y-52098767D01*
X7104027Y-52087584D01*
X7105702Y-52080091D01*
X7103562Y-52012014D01*
X7103500Y-52008055D01*
X7103500Y-51980144D01*
X7102995Y-51976144D01*
X7102062Y-51964301D01*
X7100922Y-51928029D01*
X7100673Y-51920110D01*
X7095022Y-51900658D01*
X7091014Y-51881306D01*
X7089467Y-51869063D01*
X7088474Y-51861203D01*
X7085556Y-51853832D01*
X7072200Y-51820097D01*
X7068355Y-51808870D01*
X7067721Y-51806687D01*
X7056018Y-51766407D01*
X7051984Y-51759585D01*
X7051981Y-51759579D01*
X7045706Y-51748968D01*
X7037010Y-51731218D01*
X7032472Y-51719756D01*
X7032469Y-51719751D01*
X7029552Y-51712383D01*
X7003573Y-51676625D01*
X6997057Y-51666707D01*
X6978575Y-51635457D01*
X6974542Y-51628637D01*
X6960218Y-51614313D01*
X6947376Y-51599278D01*
X6935472Y-51582893D01*
X6901406Y-51554711D01*
X6892627Y-51546722D01*
X5930075Y-50584170D01*
X5896049Y-50521858D01*
X5893860Y-50508245D01*
X5884232Y-50416635D01*
X5884232Y-50416633D01*
X5883542Y-50410072D01*
X5824527Y-50228444D01*
X5729040Y-50063056D01*
X5601253Y-49921134D01*
X5502157Y-49849136D01*
X5452094Y-49812763D01*
X5452093Y-49812762D01*
X5446752Y-49808882D01*
X5440726Y-49806199D01*
X5440719Y-49806195D01*
X5337915Y-49760425D01*
X5311471Y-49748651D01*
X5257376Y-49702672D01*
X5236726Y-49634745D01*
X5256078Y-49566437D01*
X5288659Y-49531609D01*
X5317722Y-49510493D01*
X5361253Y-49478866D01*
X5380041Y-49458000D01*
X5484621Y-49341852D01*
X5484622Y-49341851D01*
X5489040Y-49336944D01*
X5584527Y-49171556D01*
X5643542Y-48989928D01*
X5663504Y-48800000D01*
X5643542Y-48610072D01*
X5584527Y-48428444D01*
X5489040Y-48263056D01*
X5361253Y-48121134D01*
X5206752Y-48008882D01*
X5200724Y-48006198D01*
X5200722Y-48006197D01*
X5038319Y-47933891D01*
X5038318Y-47933891D01*
X5032288Y-47931206D01*
X4938888Y-47911353D01*
X4851944Y-47892872D01*
X4851939Y-47892872D01*
X4845487Y-47891500D01*
X4654513Y-47891500D01*
X4648061Y-47892872D01*
X4648056Y-47892872D01*
X4561112Y-47911353D01*
X4467712Y-47931206D01*
X4461682Y-47933891D01*
X4461681Y-47933891D01*
X4299278Y-48006197D01*
X4299276Y-48006198D01*
X4293248Y-48008882D01*
X4138747Y-48121134D01*
X4010960Y-48263056D01*
X3915473Y-48428444D01*
X3856458Y-48610072D01*
X3855768Y-48616633D01*
X3855768Y-48616635D01*
X3839093Y-48775292D01*
X3812080Y-48840949D01*
X3802878Y-48851218D01*
X3207742Y-49446353D01*
X3199463Y-49453887D01*
X3192982Y-49458000D01*
X3146357Y-49507651D01*
X3143602Y-49510493D01*
X3123865Y-49530230D01*
X3121385Y-49533427D01*
X3113682Y-49542447D01*
X3083414Y-49574679D01*
X3079595Y-49581625D01*
X3079593Y-49581628D01*
X3073652Y-49592434D01*
X3062801Y-49608953D01*
X3050386Y-49624959D01*
X3047241Y-49632228D01*
X3047238Y-49632232D01*
X3032826Y-49665537D01*
X3027609Y-49676187D01*
X3006305Y-49714940D01*
X3004334Y-49722615D01*
X3004334Y-49722616D01*
X3001267Y-49734562D01*
X2994863Y-49753266D01*
X2986819Y-49771855D01*
X2985580Y-49779678D01*
X2985577Y-49779688D01*
X2979901Y-49815524D01*
X2977495Y-49827144D01*
X2966500Y-49869970D01*
X2966500Y-49890224D01*
X2964949Y-49909934D01*
X2961780Y-49929943D01*
X2962526Y-49937835D01*
X2965941Y-49973961D01*
X2966500Y-49985819D01*
X2966500Y-70185406D01*
X2946498Y-70253527D01*
X2929595Y-70274501D01*
X1357747Y-71846348D01*
X1349461Y-71853888D01*
X1342982Y-71858000D01*
X1337557Y-71863777D01*
X1296357Y-71907651D01*
X1293602Y-71910493D01*
X1273865Y-71930230D01*
X1271385Y-71933427D01*
X1263682Y-71942447D01*
X1233414Y-71974679D01*
X1229595Y-71981625D01*
X1229593Y-71981628D01*
X1223652Y-71992434D01*
X1212801Y-72008953D01*
X1200386Y-72024959D01*
X1197241Y-72032228D01*
X1197238Y-72032232D01*
X1182826Y-72065537D01*
X1177609Y-72076187D01*
X1156305Y-72114940D01*
X1154334Y-72122615D01*
X1154334Y-72122616D01*
X1151267Y-72134562D01*
X1144863Y-72153266D01*
X1144179Y-72154848D01*
X1136819Y-72171855D01*
X1135580Y-72179678D01*
X1135577Y-72179688D01*
X1129901Y-72215524D01*
X1127495Y-72227144D01*
X1116500Y-72269970D01*
X1116500Y-72290224D01*
X1114949Y-72309934D01*
X1111780Y-72329943D01*
X508000Y-72329943D01*
X508000Y-634000D01*
X528002Y-565879D01*
X581658Y-519386D01*
X634000Y-508000D01*
X1472137Y-508000D01*
X1540258Y-528002D01*
G37*
%TD.AperFunction*%
%TA.AperFunction,Conductor*%
G36*
X9434121Y-528002D02*
G01*
X9480614Y-581658D01*
X9492000Y-634000D01*
X9492000Y-15290635D01*
X9471998Y-15358756D01*
X9418342Y-15405249D01*
X9348068Y-15415353D01*
X9291940Y-15392572D01*
X9176752Y-15308882D01*
X9170724Y-15306198D01*
X9170722Y-15306197D01*
X9008319Y-15233891D01*
X9008318Y-15233891D01*
X9002288Y-15231206D01*
X8908887Y-15211353D01*
X8821944Y-15192872D01*
X8821939Y-15192872D01*
X8815487Y-15191500D01*
X8624513Y-15191500D01*
X8591074Y-15198608D01*
X8545799Y-15197661D01*
X8545571Y-15199465D01*
X8537709Y-15198472D01*
X8530030Y-15196500D01*
X8509776Y-15196500D01*
X8490065Y-15194949D01*
X8477886Y-15193020D01*
X8470057Y-15191780D01*
X8462165Y-15192526D01*
X8426039Y-15195941D01*
X8414181Y-15196500D01*
X6276805Y-15196500D01*
X6208684Y-15176498D01*
X6171013Y-15138940D01*
X6082822Y-15002617D01*
X6082820Y-15002614D01*
X6080014Y-14998277D01*
X5929670Y-14833051D01*
X5925619Y-14829852D01*
X5925615Y-14829848D01*
X5758414Y-14697800D01*
X5758410Y-14697798D01*
X5754359Y-14694598D01*
X5713053Y-14671796D01*
X5663084Y-14621364D01*
X5648312Y-14551921D01*
X5673428Y-14485516D01*
X5700780Y-14458909D01*
X5744603Y-14427650D01*
X5879860Y-14331173D01*
X6038096Y-14173489D01*
X6168453Y-13992077D01*
X6267430Y-13791811D01*
X6332370Y-13578069D01*
X6361529Y-13356590D01*
X6363156Y-13290000D01*
X6344852Y-13067361D01*
X6290431Y-12850702D01*
X6201354Y-12645840D01*
X6080014Y-12458277D01*
X6076532Y-12454450D01*
X5932798Y-12296488D01*
X5901746Y-12232642D01*
X5910141Y-12162143D01*
X5955317Y-12107375D01*
X5981761Y-12093706D01*
X6088297Y-12053767D01*
X6096705Y-12050615D01*
X6213261Y-11963261D01*
X6300615Y-11846705D01*
X6351745Y-11710316D01*
X6358500Y-11648134D01*
X6358500Y-9851866D01*
X6351745Y-9789684D01*
X6300615Y-9653295D01*
X6213261Y-9536739D01*
X6096705Y-9449385D01*
X5960316Y-9398255D01*
X5898134Y-9391500D01*
X4584989Y-9391500D01*
X4516868Y-9371498D01*
X4470375Y-9317842D01*
X4458989Y-9265500D01*
X4458989Y-3219256D01*
X4459516Y-3208073D01*
X4461191Y-3200580D01*
X4460942Y-3192653D01*
X4461688Y-3184761D01*
X4464330Y-3185011D01*
X4478942Y-3128756D01*
X4531108Y-3080598D01*
X4601030Y-3068288D01*
X4612151Y-3070037D01*
X4713250Y-3090606D01*
X4727299Y-3089410D01*
X4731000Y-3079065D01*
X4731000Y-1632000D01*
X4751002Y-1563879D01*
X4804658Y-1517386D01*
X4857000Y-1506000D01*
X5113000Y-1506000D01*
X5181121Y-1526002D01*
X5227614Y-1579658D01*
X5239000Y-1632000D01*
X5239000Y-3078517D01*
X5243064Y-3092359D01*
X5256478Y-3094393D01*
X5263184Y-3093534D01*
X5273262Y-3091392D01*
X5477255Y-3030191D01*
X5486842Y-3026433D01*
X5678095Y-2932739D01*
X5686945Y-2927464D01*
X5860328Y-2803792D01*
X5868193Y-2797145D01*
X5972897Y-2692805D01*
X6035268Y-2658889D01*
X6106075Y-2664077D01*
X6162837Y-2706723D01*
X6179819Y-2737826D01*
X6224385Y-2856705D01*
X6311739Y-2973261D01*
X6428295Y-3060615D01*
X6564684Y-3111745D01*
X6626866Y-3118500D01*
X8423134Y-3118500D01*
X8485316Y-3111745D01*
X8621705Y-3060615D01*
X8738261Y-2973261D01*
X8825615Y-2856705D01*
X8876745Y-2720316D01*
X8883500Y-2658134D01*
X8883500Y-861866D01*
X8876745Y-799684D01*
X8873973Y-792288D01*
X8873971Y-792282D01*
X8831214Y-678229D01*
X8826031Y-607422D01*
X8859952Y-545053D01*
X8922207Y-510924D01*
X8949196Y-508000D01*
X9366000Y-508000D01*
X9434121Y-528002D01*
G37*
%TD.AperFunction*%
%TD*%
%TA.AperFunction,Conductor*%
%TO.N,GND*%
G36*
X17606121Y-79177909D02*
G01*
X17652614Y-79231565D01*
X17664000Y-79283907D01*
X17664000Y-80801791D01*
X17668475Y-80817030D01*
X17669865Y-80818235D01*
X17677548Y-80819906D01*
X18354669Y-80819906D01*
X18361490Y-80819536D01*
X18412352Y-80814012D01*
X18427604Y-80810386D01*
X18548054Y-80765231D01*
X18563649Y-80756693D01*
X18665724Y-80680192D01*
X18678285Y-80667631D01*
X18754786Y-80565556D01*
X18763325Y-80549959D01*
X18775278Y-80518074D01*
X18817919Y-80461309D01*
X18884480Y-80436609D01*
X18953829Y-80451816D01*
X18973741Y-80465355D01*
X19099349Y-80569637D01*
X19299322Y-80686491D01*
X19304147Y-80688333D01*
X19304148Y-80688334D01*
X19358974Y-80709270D01*
X19515694Y-80769116D01*
X19520760Y-80770147D01*
X19520761Y-80770147D01*
X19573846Y-80780947D01*
X19742656Y-80815292D01*
X19873324Y-80820083D01*
X19968949Y-80823590D01*
X19968953Y-80823590D01*
X19974113Y-80823779D01*
X19979233Y-80823123D01*
X19979235Y-80823123D01*
X20078660Y-80810386D01*
X20203847Y-80794349D01*
X20208795Y-80792864D01*
X20208802Y-80792863D01*
X20420747Y-80729276D01*
X20425690Y-80727793D01*
X20430324Y-80725523D01*
X20629049Y-80628169D01*
X20629052Y-80628167D01*
X20633684Y-80625898D01*
X20822243Y-80491401D01*
X20986303Y-80327912D01*
X21055370Y-80231795D01*
X21111365Y-80188147D01*
X21182068Y-80181701D01*
X21245033Y-80214504D01*
X21265128Y-80239491D01*
X21266799Y-80242218D01*
X21266804Y-80242224D01*
X21269501Y-80246626D01*
X21421147Y-80421691D01*
X21599349Y-80569637D01*
X21603806Y-80572242D01*
X21604965Y-80573053D01*
X21649292Y-80628511D01*
X21656600Y-80699131D01*
X21621787Y-80765359D01*
X20930443Y-81456702D01*
X20239500Y-82147645D01*
X20177188Y-82181671D01*
X20150405Y-82184550D01*
X19305265Y-82184550D01*
X19302478Y-82184799D01*
X19302472Y-82184799D01*
X19235760Y-82190753D01*
X19145128Y-82198842D01*
X19021269Y-82232726D01*
X18942464Y-82254284D01*
X18942460Y-82254285D01*
X18937048Y-82255766D01*
X18742337Y-82348639D01*
X18567149Y-82474524D01*
X18417023Y-82629442D01*
X18296703Y-82808497D01*
X18209992Y-83006030D01*
X18159632Y-83215795D01*
X18147214Y-83431163D01*
X18173130Y-83645327D01*
X18236563Y-83851516D01*
X18335505Y-84043214D01*
X18338920Y-84047664D01*
X18463415Y-84209910D01*
X18463419Y-84209914D01*
X18466831Y-84214361D01*
X18470980Y-84218136D01*
X18622242Y-84355774D01*
X18622245Y-84355776D01*
X18626389Y-84359547D01*
X18631141Y-84362528D01*
X18804379Y-84471201D01*
X18804383Y-84471203D01*
X18809135Y-84474184D01*
X19009293Y-84554647D01*
X19220537Y-84598394D01*
X19225148Y-84598660D01*
X19225149Y-84598660D01*
X19273452Y-84601445D01*
X19273456Y-84601445D01*
X19275275Y-84601550D01*
X20514735Y-84601550D01*
X20517522Y-84601301D01*
X20517528Y-84601301D01*
X20584240Y-84595347D01*
X20674872Y-84587258D01*
X20801740Y-84552551D01*
X20877536Y-84531816D01*
X20877540Y-84531815D01*
X20882952Y-84530334D01*
X21077663Y-84437461D01*
X21252851Y-84311576D01*
X21402977Y-84156658D01*
X21523297Y-83977603D01*
X21610008Y-83780070D01*
X21660368Y-83570305D01*
X21672786Y-83354937D01*
X21646870Y-83140773D01*
X21583437Y-82934584D01*
X21580864Y-82929598D01*
X21510227Y-82792740D01*
X21496758Y-82723033D01*
X21523114Y-82657110D01*
X21533098Y-82645856D01*
X22722253Y-81456702D01*
X22730539Y-81449162D01*
X22737018Y-81445050D01*
X22783161Y-81395913D01*
X22844373Y-81359947D01*
X22915313Y-81362784D01*
X22973457Y-81403524D01*
X23000346Y-81469232D01*
X23001011Y-81482165D01*
X23001011Y-96760286D01*
X22981009Y-96828407D01*
X22927353Y-96874900D01*
X22857079Y-96885004D01*
X22832953Y-96879059D01*
X22818089Y-96873796D01*
X22813212Y-96872069D01*
X22808123Y-96871162D01*
X22808121Y-96871162D01*
X22598373Y-96833800D01*
X22598367Y-96833799D01*
X22593284Y-96832894D01*
X22519452Y-96831992D01*
X22375081Y-96830228D01*
X22375079Y-96830228D01*
X22369911Y-96830165D01*
X22149091Y-96863955D01*
X21936756Y-96933357D01*
X21863757Y-96971358D01*
X21820105Y-96994082D01*
X21738607Y-97036507D01*
X21734474Y-97039610D01*
X21734471Y-97039612D01*
X21570485Y-97162736D01*
X21559965Y-97170635D01*
X21556393Y-97174373D01*
X21464514Y-97270519D01*
X21405629Y-97332138D01*
X21402715Y-97336410D01*
X21402714Y-97336411D01*
X21297898Y-97490066D01*
X21242987Y-97535069D01*
X21172462Y-97543240D01*
X21108715Y-97511986D01*
X21088018Y-97487502D01*
X21007426Y-97362926D01*
X21001136Y-97354757D01*
X20857806Y-97197240D01*
X20850273Y-97190215D01*
X20683139Y-97058222D01*
X20674552Y-97052517D01*
X20488117Y-96949599D01*
X20478705Y-96945369D01*
X20277959Y-96874280D01*
X20267988Y-96871646D01*
X20196837Y-96858972D01*
X20183540Y-96860432D01*
X20179000Y-96874989D01*
X20179000Y-98318000D01*
X20158998Y-98386121D01*
X20105342Y-98432614D01*
X20053000Y-98444000D01*
X19797000Y-98444000D01*
X19728879Y-98423998D01*
X19682386Y-98370342D01*
X19671000Y-98318000D01*
X19671000Y-96873102D01*
X19667082Y-96859758D01*
X19652806Y-96857771D01*
X19614324Y-96863660D01*
X19604288Y-96866051D01*
X19401868Y-96932212D01*
X19392359Y-96936209D01*
X19203463Y-97034542D01*
X19194738Y-97040036D01*
X19024433Y-97167905D01*
X19016726Y-97174748D01*
X18939478Y-97255584D01*
X18877954Y-97291014D01*
X18807042Y-97287557D01*
X18749255Y-97246311D01*
X18730402Y-97212763D01*
X18688767Y-97101703D01*
X18685615Y-97093295D01*
X18598261Y-96976739D01*
X18481705Y-96889385D01*
X18345316Y-96838255D01*
X18283134Y-96831500D01*
X17144595Y-96831500D01*
X17076474Y-96811498D01*
X17055500Y-96794595D01*
X16775894Y-96514989D01*
X16741868Y-96452677D01*
X16738989Y-96425894D01*
X16738989Y-95587719D01*
X18302001Y-95587719D01*
X18302371Y-95594540D01*
X18307895Y-95645402D01*
X18311521Y-95660654D01*
X18356676Y-95781104D01*
X18365214Y-95796699D01*
X18441715Y-95898774D01*
X18454276Y-95911335D01*
X18556351Y-95987836D01*
X18571946Y-95996374D01*
X18692394Y-96041528D01*
X18707649Y-96045155D01*
X18758514Y-96050681D01*
X18765328Y-96051050D01*
X19637885Y-96051050D01*
X19653124Y-96046575D01*
X19654329Y-96045185D01*
X19656000Y-96037502D01*
X19656000Y-96032934D01*
X20164000Y-96032934D01*
X20168475Y-96048173D01*
X20169865Y-96049378D01*
X20177548Y-96051049D01*
X21054669Y-96051049D01*
X21061490Y-96050679D01*
X21112352Y-96045155D01*
X21127604Y-96041529D01*
X21248054Y-95996374D01*
X21263649Y-95987836D01*
X21365724Y-95911335D01*
X21378285Y-95898774D01*
X21454786Y-95796699D01*
X21463324Y-95781104D01*
X21508478Y-95660656D01*
X21512105Y-95645401D01*
X21517631Y-95594536D01*
X21518000Y-95587722D01*
X21518000Y-95065165D01*
X21513525Y-95049926D01*
X21512135Y-95048721D01*
X21504452Y-95047050D01*
X20182115Y-95047050D01*
X20166876Y-95051525D01*
X20165671Y-95052915D01*
X20164000Y-95060598D01*
X20164000Y-96032934D01*
X19656000Y-96032934D01*
X19656000Y-95065165D01*
X19651525Y-95049926D01*
X19650135Y-95048721D01*
X19642452Y-95047050D01*
X18320116Y-95047050D01*
X18304877Y-95051525D01*
X18303672Y-95052915D01*
X18302001Y-95060598D01*
X18302001Y-95587719D01*
X16738989Y-95587719D01*
X16738989Y-94520935D01*
X18302000Y-94520935D01*
X18306475Y-94536174D01*
X18307865Y-94537379D01*
X18315548Y-94539050D01*
X19637885Y-94539050D01*
X19653124Y-94534575D01*
X19654329Y-94533185D01*
X19656000Y-94525502D01*
X19656000Y-94520935D01*
X20164000Y-94520935D01*
X20168475Y-94536174D01*
X20169865Y-94537379D01*
X20177548Y-94539050D01*
X21499884Y-94539050D01*
X21515123Y-94534575D01*
X21516328Y-94533185D01*
X21517999Y-94525502D01*
X21517999Y-93998381D01*
X21517629Y-93991560D01*
X21512105Y-93940698D01*
X21508479Y-93925446D01*
X21463324Y-93804996D01*
X21454786Y-93789401D01*
X21378285Y-93687326D01*
X21365724Y-93674765D01*
X21263649Y-93598264D01*
X21248054Y-93589726D01*
X21127606Y-93544572D01*
X21112351Y-93540945D01*
X21061486Y-93535419D01*
X21054672Y-93535050D01*
X20182115Y-93535050D01*
X20166876Y-93539525D01*
X20165671Y-93540915D01*
X20164000Y-93548598D01*
X20164000Y-94520935D01*
X19656000Y-94520935D01*
X19656000Y-93553166D01*
X19651525Y-93537927D01*
X19650135Y-93536722D01*
X19642452Y-93535051D01*
X18765331Y-93535051D01*
X18758510Y-93535421D01*
X18707648Y-93540945D01*
X18692396Y-93544571D01*
X18571946Y-93589726D01*
X18556351Y-93598264D01*
X18454276Y-93674765D01*
X18441715Y-93687326D01*
X18365214Y-93789401D01*
X18356676Y-93804996D01*
X18311522Y-93925444D01*
X18307895Y-93940699D01*
X18302369Y-93991564D01*
X18302000Y-93998378D01*
X18302000Y-94520935D01*
X16738989Y-94520935D01*
X16738989Y-91732740D01*
X18197037Y-91732740D01*
X18224025Y-91955765D01*
X18290082Y-92170485D01*
X18292652Y-92175465D01*
X18292654Y-92175469D01*
X18357852Y-92301788D01*
X18393118Y-92370114D01*
X18529877Y-92548342D01*
X18696036Y-92699535D01*
X18700783Y-92702513D01*
X18700786Y-92702515D01*
X18829229Y-92783086D01*
X18886344Y-92818914D01*
X19094783Y-92902706D01*
X19314767Y-92948263D01*
X19319378Y-92948529D01*
X19319379Y-92948529D01*
X19369952Y-92951445D01*
X19369956Y-92951445D01*
X19371775Y-92951550D01*
X20416999Y-92951550D01*
X20419786Y-92951301D01*
X20419792Y-92951301D01*
X20489929Y-92945041D01*
X20583762Y-92936667D01*
X20589176Y-92935186D01*
X20589181Y-92935185D01*
X20716912Y-92900241D01*
X20800451Y-92877387D01*
X20805509Y-92874975D01*
X20805513Y-92874973D01*
X20923042Y-92818914D01*
X21003218Y-92780672D01*
X21185654Y-92649579D01*
X21341992Y-92488251D01*
X21467290Y-92301788D01*
X21557588Y-92096083D01*
X21610032Y-91877639D01*
X21622963Y-91653360D01*
X21595975Y-91430335D01*
X21529918Y-91215615D01*
X21464798Y-91089446D01*
X21429454Y-91020969D01*
X21429454Y-91020968D01*
X21426882Y-91015986D01*
X21290123Y-90837758D01*
X21123964Y-90686565D01*
X21119217Y-90683587D01*
X21119214Y-90683585D01*
X20938405Y-90570165D01*
X20933656Y-90567186D01*
X20725217Y-90483394D01*
X20505233Y-90437837D01*
X20500622Y-90437571D01*
X20500621Y-90437571D01*
X20450048Y-90434655D01*
X20450044Y-90434655D01*
X20448225Y-90434550D01*
X19403001Y-90434550D01*
X19400214Y-90434799D01*
X19400208Y-90434799D01*
X19330071Y-90441059D01*
X19236238Y-90449433D01*
X19230824Y-90450914D01*
X19230819Y-90450915D01*
X19116262Y-90482255D01*
X19019549Y-90508713D01*
X19014491Y-90511125D01*
X19014487Y-90511127D01*
X18918166Y-90557070D01*
X18816782Y-90605428D01*
X18634346Y-90736521D01*
X18478008Y-90897849D01*
X18352710Y-91084312D01*
X18262412Y-91290017D01*
X18209968Y-91508461D01*
X18197037Y-91732740D01*
X16738989Y-91732740D01*
X16738989Y-80945907D01*
X16758991Y-80877786D01*
X16812647Y-80831293D01*
X16864989Y-80819907D01*
X17137885Y-80819907D01*
X17153124Y-80815432D01*
X17154329Y-80814042D01*
X17156000Y-80806359D01*
X17156000Y-79283907D01*
X17176002Y-79215786D01*
X17229658Y-79169293D01*
X17282000Y-79157907D01*
X17538000Y-79157907D01*
X17606121Y-79177909D01*
G37*
%TD.AperFunction*%
%TA.AperFunction,Conductor*%
G36*
X16437787Y-528002D02*
G01*
X16484280Y-581658D01*
X16494384Y-651932D01*
X16464890Y-716512D01*
X16453729Y-727809D01*
X16449965Y-730635D01*
X16295629Y-892138D01*
X16169743Y-1076680D01*
X16075688Y-1279305D01*
X16015989Y-1494570D01*
X15992251Y-1716695D01*
X16005110Y-1939715D01*
X16006247Y-1944761D01*
X16006248Y-1944767D01*
X16027275Y-2038069D01*
X16054222Y-2157639D01*
X16138266Y-2364616D01*
X16254987Y-2555088D01*
X16401250Y-2723938D01*
X16573126Y-2866632D01*
X16766000Y-2979338D01*
X16974692Y-3059030D01*
X16997795Y-3063731D01*
X17005622Y-3065323D01*
X17068387Y-3098505D01*
X17103248Y-3160353D01*
X17106500Y-3188793D01*
X17106500Y-5606233D01*
X17105973Y-5617416D01*
X17104298Y-5624909D01*
X17104547Y-5632835D01*
X17104547Y-5632836D01*
X17106438Y-5692986D01*
X17106500Y-5696945D01*
X17106500Y-5724856D01*
X17106997Y-5728790D01*
X17106997Y-5728791D01*
X17107005Y-5728856D01*
X17107938Y-5740693D01*
X17109327Y-5784889D01*
X17114978Y-5804339D01*
X17118987Y-5823700D01*
X17121526Y-5843797D01*
X17124445Y-5851168D01*
X17124445Y-5851170D01*
X17137804Y-5884912D01*
X17141649Y-5896142D01*
X17150915Y-5928036D01*
X17153982Y-5938593D01*
X17158015Y-5945412D01*
X17158017Y-5945417D01*
X17164293Y-5956028D01*
X17172988Y-5973776D01*
X17180448Y-5992617D01*
X17185110Y-5999033D01*
X17185110Y-5999034D01*
X17206436Y-6028387D01*
X17212952Y-6038307D01*
X17235458Y-6076362D01*
X17249779Y-6090683D01*
X17262619Y-6105716D01*
X17274528Y-6122107D01*
X17280634Y-6127158D01*
X17308605Y-6150298D01*
X17317384Y-6158288D01*
X17404595Y-6245499D01*
X17438621Y-6307811D01*
X17441500Y-6334594D01*
X17441500Y-12769451D01*
X17435093Y-12809117D01*
X17387203Y-12953502D01*
X17376500Y-13057963D01*
X17376500Y-14408763D01*
X17387474Y-14514529D01*
X17443450Y-14682309D01*
X17536522Y-14832711D01*
X17607991Y-14904055D01*
X17627018Y-14923049D01*
X17661097Y-14985331D01*
X17664000Y-15012222D01*
X17664000Y-17752347D01*
X17668475Y-17767586D01*
X17669865Y-17768791D01*
X17677548Y-17770462D01*
X18354669Y-17770462D01*
X18361490Y-17770092D01*
X18412352Y-17764568D01*
X18427604Y-17760942D01*
X18548054Y-17715787D01*
X18563649Y-17707249D01*
X18665724Y-17630748D01*
X18678285Y-17618187D01*
X18754786Y-17516112D01*
X18763325Y-17500515D01*
X18775278Y-17468630D01*
X18817919Y-17411865D01*
X18884480Y-17387165D01*
X18953829Y-17402372D01*
X18973741Y-17415911D01*
X19099349Y-17520193D01*
X19299322Y-17637047D01*
X19304147Y-17638889D01*
X19304148Y-17638890D01*
X19323095Y-17646125D01*
X19515694Y-17719672D01*
X19520760Y-17720703D01*
X19520761Y-17720703D01*
X19535541Y-17723710D01*
X19742656Y-17765848D01*
X19873324Y-17770639D01*
X19968949Y-17774146D01*
X19968953Y-17774146D01*
X19974113Y-17774335D01*
X19979233Y-17773679D01*
X19979235Y-17773679D01*
X20078668Y-17760941D01*
X20203847Y-17744905D01*
X20208795Y-17743420D01*
X20208802Y-17743419D01*
X20420747Y-17679832D01*
X20425690Y-17678349D01*
X20506236Y-17638890D01*
X20629049Y-17578725D01*
X20629052Y-17578723D01*
X20633684Y-17576454D01*
X20822243Y-17441957D01*
X20986303Y-17278468D01*
X21055370Y-17182351D01*
X21111365Y-17138703D01*
X21182068Y-17132257D01*
X21245033Y-17165060D01*
X21265128Y-17190047D01*
X21266799Y-17192774D01*
X21266804Y-17192780D01*
X21269501Y-17197182D01*
X21421147Y-17372247D01*
X21599349Y-17520193D01*
X21600570Y-17520906D01*
X21644218Y-17575506D01*
X21651531Y-17646125D01*
X21616716Y-17712363D01*
X20219500Y-19109578D01*
X20157188Y-19143604D01*
X20130405Y-19146483D01*
X19305265Y-19146483D01*
X19302478Y-19146732D01*
X19302472Y-19146732D01*
X19235760Y-19152686D01*
X19145128Y-19160775D01*
X19021269Y-19194659D01*
X18942464Y-19216217D01*
X18942460Y-19216218D01*
X18937048Y-19217699D01*
X18742337Y-19310572D01*
X18567149Y-19436457D01*
X18417023Y-19591375D01*
X18296703Y-19770430D01*
X18209992Y-19967963D01*
X18159632Y-20177728D01*
X18147214Y-20393096D01*
X18173130Y-20607260D01*
X18236563Y-20813449D01*
X18335505Y-21005147D01*
X18338920Y-21009597D01*
X18463415Y-21171843D01*
X18463419Y-21171847D01*
X18466831Y-21176294D01*
X18470980Y-21180069D01*
X18622242Y-21317707D01*
X18622245Y-21317709D01*
X18626389Y-21321480D01*
X18631141Y-21324461D01*
X18804379Y-21433134D01*
X18804383Y-21433136D01*
X18809135Y-21436117D01*
X19009293Y-21516580D01*
X19220537Y-21560327D01*
X19225148Y-21560593D01*
X19225149Y-21560593D01*
X19273452Y-21563378D01*
X19273456Y-21563378D01*
X19275275Y-21563483D01*
X20514735Y-21563483D01*
X20517522Y-21563234D01*
X20517528Y-21563234D01*
X20584240Y-21557280D01*
X20674872Y-21549191D01*
X20801740Y-21514484D01*
X20877536Y-21493749D01*
X20877540Y-21493748D01*
X20882952Y-21492267D01*
X21077663Y-21399394D01*
X21252851Y-21273509D01*
X21402977Y-21118591D01*
X21523297Y-20939536D01*
X21610008Y-20742003D01*
X21660368Y-20532238D01*
X21672786Y-20316870D01*
X21646870Y-20102706D01*
X21583437Y-19896517D01*
X21580864Y-19891531D01*
X21503419Y-19741482D01*
X21489950Y-19671775D01*
X21516306Y-19605852D01*
X21526290Y-19594598D01*
X22752253Y-18368635D01*
X22760539Y-18361095D01*
X22767018Y-18356983D01*
X22813644Y-18307331D01*
X22816398Y-18304490D01*
X22836135Y-18284753D01*
X22838615Y-18281556D01*
X22846320Y-18272534D01*
X22871159Y-18246083D01*
X22876586Y-18240304D01*
X22880405Y-18233358D01*
X22880407Y-18233355D01*
X22886348Y-18222549D01*
X22897199Y-18206030D01*
X22904758Y-18196284D01*
X22909614Y-18190024D01*
X22912759Y-18182755D01*
X22912762Y-18182751D01*
X22927174Y-18149446D01*
X22932391Y-18138796D01*
X22953695Y-18100043D01*
X22958733Y-18080420D01*
X22965137Y-18061717D01*
X22970033Y-18050403D01*
X22970033Y-18050402D01*
X22973181Y-18043128D01*
X22974420Y-18035305D01*
X22974423Y-18035295D01*
X22980099Y-17999459D01*
X22982505Y-17987839D01*
X22991528Y-17952694D01*
X22991528Y-17952693D01*
X22993500Y-17945013D01*
X22993500Y-17924759D01*
X22995051Y-17905048D01*
X22996980Y-17892869D01*
X22998220Y-17885040D01*
X22994059Y-17841021D01*
X22993500Y-17829164D01*
X22993500Y-17723710D01*
X23013502Y-17655589D01*
X23064067Y-17610559D01*
X23096860Y-17594494D01*
X23129049Y-17578725D01*
X23129052Y-17578723D01*
X23133684Y-17576454D01*
X23322243Y-17441957D01*
X23486303Y-17278468D01*
X23621458Y-17090380D01*
X23724078Y-16882743D01*
X23791408Y-16661134D01*
X23821640Y-16431504D01*
X23823327Y-16362463D01*
X23817032Y-16285897D01*
X23804773Y-16136781D01*
X23804772Y-16136775D01*
X23804349Y-16131630D01*
X23747925Y-15906996D01*
X23655570Y-15694594D01*
X23529764Y-15500128D01*
X23373887Y-15328821D01*
X23369836Y-15325622D01*
X23369832Y-15325618D01*
X23196177Y-15188474D01*
X23196172Y-15188471D01*
X23192123Y-15185273D01*
X23187607Y-15182780D01*
X23187604Y-15182778D01*
X22993879Y-15075836D01*
X22993875Y-15075834D01*
X22989355Y-15073339D01*
X22984486Y-15071615D01*
X22984482Y-15071613D01*
X22775903Y-14997751D01*
X22775899Y-14997750D01*
X22771028Y-14996025D01*
X22765935Y-14995118D01*
X22765932Y-14995117D01*
X22548095Y-14956314D01*
X22548089Y-14956313D01*
X22543006Y-14955408D01*
X22509665Y-14955001D01*
X22432995Y-14954064D01*
X22365123Y-14933231D01*
X22319290Y-14879011D01*
X22310045Y-14808619D01*
X22327275Y-14761956D01*
X22373274Y-14687333D01*
X22373275Y-14687330D01*
X22377115Y-14681101D01*
X22432797Y-14513224D01*
X22443500Y-14408763D01*
X22443500Y-13057963D01*
X22432526Y-12952197D01*
X22376550Y-12784417D01*
X22283478Y-12634015D01*
X22158303Y-12509058D01*
X22152072Y-12505217D01*
X22013968Y-12420088D01*
X22013966Y-12420087D01*
X22007738Y-12416248D01*
X21847254Y-12363018D01*
X21846389Y-12362731D01*
X21846387Y-12362731D01*
X21839861Y-12360566D01*
X21833025Y-12359866D01*
X21833022Y-12359865D01*
X21789969Y-12355454D01*
X21735400Y-12349863D01*
X21009600Y-12349863D01*
X21006354Y-12350200D01*
X21006350Y-12350200D01*
X20910692Y-12360125D01*
X20910688Y-12360126D01*
X20903834Y-12360837D01*
X20897298Y-12363018D01*
X20897296Y-12363018D01*
X20765194Y-12407091D01*
X20736054Y-12416813D01*
X20585652Y-12509885D01*
X20460695Y-12635060D01*
X20367885Y-12785625D01*
X20312203Y-12953502D01*
X20301500Y-13057963D01*
X20301500Y-14408763D01*
X20312474Y-14514529D01*
X20368450Y-14682309D01*
X20417738Y-14761956D01*
X20421375Y-14767834D01*
X20440213Y-14836285D01*
X20419052Y-14904055D01*
X20403326Y-14923232D01*
X20368015Y-14958543D01*
X20305703Y-14992569D01*
X20256825Y-14993495D01*
X20192809Y-14982092D01*
X20048095Y-14956314D01*
X20048089Y-14956313D01*
X20043006Y-14955408D01*
X19965726Y-14954464D01*
X19816581Y-14952642D01*
X19816579Y-14952642D01*
X19811411Y-14952579D01*
X19582464Y-14987613D01*
X19516605Y-15009139D01*
X19509452Y-15011477D01*
X19438488Y-15013628D01*
X19377626Y-14977072D01*
X19346190Y-14913414D01*
X19354160Y-14842867D01*
X19363047Y-14825596D01*
X19448275Y-14687331D01*
X19448276Y-14687329D01*
X19452115Y-14681101D01*
X19507797Y-14513224D01*
X19518500Y-14408763D01*
X19518500Y-13057963D01*
X19507526Y-12952197D01*
X19451550Y-12784417D01*
X19358478Y-12634015D01*
X19233303Y-12509058D01*
X19227072Y-12505217D01*
X19088968Y-12420088D01*
X19088966Y-12420087D01*
X19082738Y-12416248D01*
X18922254Y-12363018D01*
X18921389Y-12362731D01*
X18921387Y-12362731D01*
X18914861Y-12360566D01*
X18908023Y-12359865D01*
X18908021Y-12359865D01*
X18821657Y-12351016D01*
X18755930Y-12324174D01*
X18715148Y-12266059D01*
X18708500Y-12225672D01*
X18708500Y-6098768D01*
X18709027Y-6087585D01*
X18710702Y-6080092D01*
X18708562Y-6012001D01*
X18708500Y-6008044D01*
X18708500Y-5980144D01*
X18707996Y-5976153D01*
X18707063Y-5964311D01*
X18705923Y-5928036D01*
X18705674Y-5920111D01*
X18700021Y-5900652D01*
X18696012Y-5881293D01*
X18695846Y-5879983D01*
X18693474Y-5861203D01*
X18690558Y-5853837D01*
X18690556Y-5853831D01*
X18677200Y-5820098D01*
X18673355Y-5808868D01*
X18663230Y-5774017D01*
X18663230Y-5774016D01*
X18661019Y-5766407D01*
X18650705Y-5748966D01*
X18642008Y-5731213D01*
X18637472Y-5719758D01*
X18634552Y-5712383D01*
X18608563Y-5676612D01*
X18602047Y-5666692D01*
X18579542Y-5628638D01*
X18573938Y-5623033D01*
X18565220Y-5614315D01*
X18552379Y-5599281D01*
X18545131Y-5589305D01*
X18545130Y-5589304D01*
X18540472Y-5582893D01*
X18506401Y-5554707D01*
X18497622Y-5546718D01*
X18410405Y-5459501D01*
X18376379Y-5397189D01*
X18373500Y-5370406D01*
X18373500Y-2701336D01*
X18397177Y-2627810D01*
X18523453Y-2452077D01*
X18524640Y-2452930D01*
X18571960Y-2409362D01*
X18641897Y-2397145D01*
X18707338Y-2424678D01*
X18735166Y-2456511D01*
X18792694Y-2550388D01*
X18798777Y-2558699D01*
X18938213Y-2719667D01*
X18945580Y-2726883D01*
X19109434Y-2862916D01*
X19117881Y-2868831D01*
X19301756Y-2976279D01*
X19311042Y-2980729D01*
X19510001Y-3056703D01*
X19519899Y-3059579D01*
X19623250Y-3080606D01*
X19637299Y-3079410D01*
X19641000Y-3069065D01*
X19641000Y-1622000D01*
X19661002Y-1553879D01*
X19714658Y-1507386D01*
X19767000Y-1496000D01*
X20023000Y-1496000D01*
X20091121Y-1516002D01*
X20137614Y-1569658D01*
X20149000Y-1622000D01*
X20149000Y-3068517D01*
X20153064Y-3082359D01*
X20166478Y-3084393D01*
X20173184Y-3083534D01*
X20183262Y-3081392D01*
X20387255Y-3020191D01*
X20396842Y-3016433D01*
X20588095Y-2922739D01*
X20596945Y-2917464D01*
X20770328Y-2793792D01*
X20778193Y-2787145D01*
X20882897Y-2682805D01*
X20945268Y-2648889D01*
X21016075Y-2654077D01*
X21072837Y-2696723D01*
X21089819Y-2727826D01*
X21134385Y-2846705D01*
X21221739Y-2963261D01*
X21338295Y-3050615D01*
X21474684Y-3101745D01*
X21536866Y-3108500D01*
X23333134Y-3108500D01*
X23395316Y-3101745D01*
X23531705Y-3050615D01*
X23648261Y-2963261D01*
X23735615Y-2846705D01*
X23786745Y-2710316D01*
X23793500Y-2648134D01*
X23793500Y-851866D01*
X23786745Y-789684D01*
X23783973Y-782288D01*
X23783971Y-782282D01*
X23744963Y-678229D01*
X23739780Y-607422D01*
X23773701Y-545053D01*
X23835957Y-510924D01*
X23862945Y-508000D01*
X24276000Y-508000D01*
X24344121Y-528002D01*
X24390614Y-581658D01*
X24402000Y-634000D01*
X24402000Y-6655229D01*
X24381998Y-6723350D01*
X24328342Y-6769843D01*
X24305949Y-6777618D01*
X24134168Y-6819653D01*
X24129933Y-6821368D01*
X24129931Y-6821369D01*
X23887069Y-6919738D01*
X23882840Y-6921451D01*
X23648839Y-7058464D01*
X23437068Y-7227822D01*
X23433947Y-7231163D01*
X23309224Y-7364678D01*
X23251963Y-7425975D01*
X23097402Y-7648775D01*
X23095374Y-7652851D01*
X23095373Y-7652853D01*
X23013252Y-7817923D01*
X22976621Y-7891553D01*
X22892153Y-8149223D01*
X22845765Y-8416388D01*
X22841500Y-8502063D01*
X22841500Y-9191347D01*
X22841665Y-9193615D01*
X22841665Y-9193627D01*
X22849725Y-9304701D01*
X22856125Y-9392914D01*
X22857109Y-9397369D01*
X22857109Y-9397372D01*
X22896482Y-9575703D01*
X22914585Y-9657700D01*
X23010655Y-9911273D01*
X23142324Y-10148322D01*
X23306833Y-10363880D01*
X23500736Y-10553433D01*
X23719972Y-10713010D01*
X23959947Y-10839267D01*
X23964248Y-10840786D01*
X23964253Y-10840788D01*
X24097087Y-10887696D01*
X24215634Y-10929559D01*
X24275408Y-10941341D01*
X24300366Y-10946260D01*
X24363333Y-10979058D01*
X24398572Y-11040692D01*
X24402000Y-11069882D01*
X24402000Y-38179951D01*
X24381998Y-38248072D01*
X24328342Y-38294565D01*
X24305949Y-38302340D01*
X24134168Y-38344375D01*
X24129933Y-38346090D01*
X24129931Y-38346091D01*
X23887069Y-38444460D01*
X23882840Y-38446173D01*
X23648839Y-38583186D01*
X23437068Y-38752544D01*
X23433947Y-38755885D01*
X23309224Y-38889400D01*
X23251963Y-38950697D01*
X23097402Y-39173497D01*
X23095374Y-39177573D01*
X23095373Y-39177575D01*
X23013252Y-39342645D01*
X22976621Y-39416275D01*
X22892153Y-39673945D01*
X22845765Y-39941110D01*
X22841500Y-40026785D01*
X22841500Y-40716069D01*
X22841665Y-40718337D01*
X22841665Y-40718349D01*
X22849725Y-40829423D01*
X22856125Y-40917636D01*
X22857109Y-40922091D01*
X22857109Y-40922094D01*
X22896482Y-41100425D01*
X22914585Y-41182422D01*
X23010655Y-41435995D01*
X23142324Y-41673044D01*
X23306833Y-41888602D01*
X23500736Y-42078155D01*
X23719972Y-42237732D01*
X23959947Y-42363989D01*
X23964248Y-42365508D01*
X23964253Y-42365510D01*
X24097087Y-42412418D01*
X24215634Y-42454281D01*
X24275408Y-42466063D01*
X24300366Y-42470982D01*
X24363333Y-42503780D01*
X24398572Y-42565414D01*
X24402000Y-42594604D01*
X24402000Y-69704673D01*
X24381998Y-69772794D01*
X24328342Y-69819287D01*
X24305949Y-69827062D01*
X24134168Y-69869097D01*
X24129933Y-69870812D01*
X24129931Y-69870813D01*
X23945340Y-69945580D01*
X23882840Y-69970895D01*
X23740373Y-70054313D01*
X23671484Y-70071472D01*
X23604251Y-70048661D01*
X23560024Y-69993123D01*
X23550710Y-69945580D01*
X23550710Y-69000702D01*
X23551237Y-68989519D01*
X23552912Y-68982026D01*
X23550772Y-68913935D01*
X23550710Y-68909978D01*
X23550710Y-68882079D01*
X23550206Y-68878088D01*
X23549273Y-68866246D01*
X23548133Y-68829971D01*
X23547884Y-68822046D01*
X23545672Y-68814432D01*
X23545671Y-68814427D01*
X23542233Y-68802594D01*
X23538222Y-68783230D01*
X23536677Y-68770999D01*
X23535684Y-68763138D01*
X23532767Y-68755771D01*
X23532766Y-68755766D01*
X23519408Y-68722027D01*
X23515564Y-68710800D01*
X23505440Y-68675957D01*
X23503228Y-68668342D01*
X23492917Y-68650907D01*
X23484222Y-68633159D01*
X23476762Y-68614318D01*
X23450774Y-68578548D01*
X23444258Y-68568628D01*
X23425790Y-68537400D01*
X23425788Y-68537397D01*
X23421752Y-68530573D01*
X23407431Y-68516252D01*
X23394590Y-68501218D01*
X23387341Y-68491241D01*
X23382682Y-68484828D01*
X23348605Y-68456637D01*
X23339826Y-68448647D01*
X19622088Y-64730908D01*
X19588062Y-64668596D01*
X19593127Y-64597780D01*
X19635674Y-64540945D01*
X19645980Y-64535786D01*
X19654329Y-64526151D01*
X19656000Y-64518468D01*
X19656000Y-64513900D01*
X20164000Y-64513900D01*
X20168475Y-64529139D01*
X20169865Y-64530344D01*
X20177548Y-64532015D01*
X21054669Y-64532015D01*
X21061490Y-64531645D01*
X21112352Y-64526121D01*
X21127604Y-64522495D01*
X21248054Y-64477340D01*
X21263649Y-64468802D01*
X21365724Y-64392301D01*
X21378285Y-64379740D01*
X21454786Y-64277665D01*
X21463324Y-64262070D01*
X21508478Y-64141622D01*
X21512105Y-64126367D01*
X21517631Y-64075502D01*
X21518000Y-64068688D01*
X21518000Y-63546131D01*
X21513525Y-63530892D01*
X21512135Y-63529687D01*
X21504452Y-63528016D01*
X20182115Y-63528016D01*
X20166876Y-63532491D01*
X20165671Y-63533881D01*
X20164000Y-63541564D01*
X20164000Y-64513900D01*
X19656000Y-64513900D01*
X19656000Y-63001901D01*
X20164000Y-63001901D01*
X20168475Y-63017140D01*
X20169865Y-63018345D01*
X20177548Y-63020016D01*
X21499884Y-63020016D01*
X21515123Y-63015541D01*
X21516328Y-63014151D01*
X21517999Y-63006468D01*
X21517999Y-62479347D01*
X21517629Y-62472526D01*
X21512105Y-62421664D01*
X21508479Y-62406412D01*
X21463324Y-62285962D01*
X21454786Y-62270367D01*
X21378285Y-62168292D01*
X21365724Y-62155731D01*
X21263649Y-62079230D01*
X21248054Y-62070692D01*
X21127606Y-62025538D01*
X21112351Y-62021911D01*
X21061486Y-62016385D01*
X21054672Y-62016016D01*
X20182115Y-62016016D01*
X20166876Y-62020491D01*
X20165671Y-62021881D01*
X20164000Y-62029564D01*
X20164000Y-63001901D01*
X19656000Y-63001901D01*
X19656000Y-62034132D01*
X19651525Y-62018893D01*
X19650135Y-62017688D01*
X19642452Y-62016017D01*
X19084980Y-62016017D01*
X19016859Y-61996015D01*
X18970366Y-61942359D01*
X18958980Y-61890017D01*
X18958980Y-61510315D01*
X18978982Y-61442194D01*
X19032638Y-61395701D01*
X19102912Y-61385597D01*
X19110516Y-61386930D01*
X19314767Y-61429229D01*
X19319378Y-61429495D01*
X19319379Y-61429495D01*
X19369952Y-61432411D01*
X19369956Y-61432411D01*
X19371775Y-61432516D01*
X20416999Y-61432516D01*
X20419786Y-61432267D01*
X20419792Y-61432267D01*
X20489929Y-61426007D01*
X20583762Y-61417633D01*
X20589176Y-61416152D01*
X20589181Y-61416151D01*
X20716912Y-61381207D01*
X20800451Y-61358353D01*
X20805509Y-61355941D01*
X20805513Y-61355939D01*
X20901835Y-61309995D01*
X21003218Y-61261638D01*
X21185654Y-61130545D01*
X21341992Y-60969217D01*
X21467290Y-60782754D01*
X21557588Y-60577049D01*
X21610032Y-60358605D01*
X21622963Y-60134326D01*
X21595975Y-59911301D01*
X21529918Y-59696581D01*
X21426882Y-59496952D01*
X21290123Y-59318724D01*
X21123964Y-59167531D01*
X21119217Y-59164553D01*
X21119214Y-59164551D01*
X20938405Y-59051131D01*
X20933656Y-59048152D01*
X20725217Y-58964360D01*
X20505233Y-58918803D01*
X20500622Y-58918537D01*
X20500621Y-58918537D01*
X20450048Y-58915621D01*
X20450044Y-58915621D01*
X20448225Y-58915516D01*
X19403001Y-58915516D01*
X19400214Y-58915765D01*
X19400208Y-58915765D01*
X19331693Y-58921880D01*
X19236238Y-58930399D01*
X19150673Y-58953807D01*
X19118228Y-58962683D01*
X19047244Y-58961365D01*
X18988240Y-58921880D01*
X18959951Y-58856763D01*
X18958980Y-58841149D01*
X18958980Y-53179961D01*
X18978982Y-53111840D01*
X19032638Y-53065347D01*
X19102912Y-53055243D01*
X19110531Y-53056579D01*
X19169173Y-53068723D01*
X19220537Y-53079360D01*
X19225148Y-53079626D01*
X19225149Y-53079626D01*
X19273452Y-53082411D01*
X19273456Y-53082411D01*
X19275275Y-53082516D01*
X20514735Y-53082516D01*
X20517522Y-53082267D01*
X20517528Y-53082267D01*
X20584240Y-53076313D01*
X20674872Y-53068224D01*
X20798731Y-53034340D01*
X20877536Y-53012782D01*
X20877540Y-53012781D01*
X20882952Y-53011300D01*
X21077663Y-52918427D01*
X21252851Y-52792542D01*
X21402977Y-52637624D01*
X21523297Y-52458569D01*
X21610008Y-52261036D01*
X21660368Y-52051271D01*
X21672786Y-51835903D01*
X21646870Y-51621739D01*
X21583437Y-51415550D01*
X21484495Y-51223852D01*
X21402314Y-51116752D01*
X21356585Y-51057156D01*
X21356581Y-51057152D01*
X21353169Y-51052705D01*
X21232077Y-50942520D01*
X21197758Y-50911292D01*
X21197755Y-50911290D01*
X21193611Y-50907519D01*
X21041511Y-50812106D01*
X21015621Y-50795865D01*
X21015617Y-50795863D01*
X21010865Y-50792882D01*
X20909183Y-50752006D01*
X20853439Y-50708039D01*
X20830314Y-50640914D01*
X20847151Y-50571943D01*
X20867085Y-50546004D01*
X22094957Y-49318133D01*
X22157269Y-49284107D01*
X22209169Y-49283757D01*
X22242656Y-49290570D01*
X22247831Y-49290760D01*
X22247833Y-49290760D01*
X22468949Y-49298868D01*
X22468953Y-49298868D01*
X22474113Y-49299057D01*
X22479233Y-49298401D01*
X22479235Y-49298401D01*
X22590814Y-49284107D01*
X22703847Y-49269627D01*
X22708795Y-49268142D01*
X22708802Y-49268141D01*
X22920747Y-49204554D01*
X22925690Y-49203071D01*
X22930324Y-49200801D01*
X23129049Y-49103447D01*
X23129052Y-49103445D01*
X23133684Y-49101176D01*
X23322243Y-48966679D01*
X23486303Y-48803190D01*
X23621458Y-48615102D01*
X23724078Y-48407465D01*
X23791408Y-48185856D01*
X23821640Y-47956226D01*
X23823327Y-47887185D01*
X23817032Y-47810619D01*
X23804773Y-47661503D01*
X23804772Y-47661497D01*
X23804349Y-47656352D01*
X23747925Y-47431718D01*
X23655570Y-47219316D01*
X23529764Y-47024850D01*
X23373887Y-46853543D01*
X23369836Y-46850344D01*
X23369832Y-46850340D01*
X23196177Y-46713196D01*
X23196172Y-46713193D01*
X23192123Y-46709995D01*
X23187607Y-46707502D01*
X23187604Y-46707500D01*
X22993879Y-46600558D01*
X22993875Y-46600556D01*
X22989355Y-46598061D01*
X22984486Y-46596337D01*
X22984482Y-46596335D01*
X22775903Y-46522473D01*
X22775899Y-46522472D01*
X22771028Y-46520747D01*
X22765935Y-46519840D01*
X22765932Y-46519839D01*
X22548095Y-46481036D01*
X22548089Y-46481035D01*
X22543006Y-46480130D01*
X22421407Y-46478645D01*
X22353537Y-46457812D01*
X22307703Y-46403593D01*
X22298458Y-46333201D01*
X22315687Y-46286538D01*
X22373275Y-46193113D01*
X22373276Y-46193111D01*
X22377115Y-46186883D01*
X22432797Y-46019006D01*
X22443500Y-45914545D01*
X22443500Y-44563745D01*
X22432526Y-44457979D01*
X22376550Y-44290199D01*
X22283478Y-44139797D01*
X22158303Y-44014840D01*
X22152072Y-44010999D01*
X22013968Y-43925870D01*
X22013966Y-43925869D01*
X22007738Y-43922030D01*
X21847254Y-43868800D01*
X21846389Y-43868513D01*
X21846387Y-43868513D01*
X21839861Y-43866348D01*
X21833025Y-43865648D01*
X21833022Y-43865647D01*
X21789969Y-43861236D01*
X21735400Y-43855645D01*
X21009600Y-43855645D01*
X21006354Y-43855982D01*
X21006350Y-43855982D01*
X20910692Y-43865907D01*
X20910688Y-43865908D01*
X20903834Y-43866619D01*
X20897298Y-43868800D01*
X20897296Y-43868800D01*
X20765194Y-43912873D01*
X20736054Y-43922595D01*
X20585652Y-44015667D01*
X20460695Y-44140842D01*
X20367885Y-44291407D01*
X20312203Y-44459284D01*
X20301500Y-44563745D01*
X20301500Y-45914545D01*
X20312474Y-46020311D01*
X20368450Y-46188091D01*
X20461522Y-46338493D01*
X20466228Y-46343191D01*
X20492762Y-46408744D01*
X20479592Y-46478508D01*
X20430795Y-46530077D01*
X20361864Y-46547078D01*
X20325320Y-46539972D01*
X20275907Y-46522474D01*
X20275899Y-46522472D01*
X20271028Y-46520747D01*
X20265935Y-46519840D01*
X20265932Y-46519839D01*
X20048095Y-46481036D01*
X20048089Y-46481035D01*
X20043006Y-46480130D01*
X19965726Y-46479186D01*
X19816581Y-46477364D01*
X19816579Y-46477364D01*
X19811411Y-46477301D01*
X19582464Y-46512335D01*
X19490706Y-46542326D01*
X19419743Y-46544477D01*
X19358882Y-46507921D01*
X19327445Y-46444264D01*
X19335415Y-46373716D01*
X19352680Y-46344469D01*
X19354134Y-46342628D01*
X19359305Y-46337448D01*
X19452115Y-46186883D01*
X19507797Y-46019006D01*
X19518500Y-45914545D01*
X19518500Y-44563745D01*
X19507526Y-44457979D01*
X19451550Y-44290199D01*
X19358478Y-44139797D01*
X19233303Y-44014840D01*
X19227072Y-44010999D01*
X19088968Y-43925870D01*
X19088966Y-43925869D01*
X19082738Y-43922030D01*
X18922254Y-43868800D01*
X18921389Y-43868513D01*
X18921387Y-43868513D01*
X18914861Y-43866348D01*
X18908025Y-43865648D01*
X18908022Y-43865647D01*
X18864969Y-43861236D01*
X18810400Y-43855645D01*
X18084600Y-43855645D01*
X18081354Y-43855982D01*
X18081350Y-43855982D01*
X17985692Y-43865907D01*
X17985688Y-43865908D01*
X17978834Y-43866619D01*
X17972298Y-43868800D01*
X17972296Y-43868800D01*
X17840194Y-43912873D01*
X17811054Y-43922595D01*
X17660652Y-44015667D01*
X17535695Y-44140842D01*
X17442885Y-44291407D01*
X17387203Y-44459284D01*
X17376500Y-44563745D01*
X17376500Y-45914545D01*
X17387474Y-46020311D01*
X17443450Y-46188091D01*
X17536522Y-46338493D01*
X17571807Y-46373716D01*
X17627018Y-46428831D01*
X17661097Y-46491113D01*
X17664000Y-46518004D01*
X17664000Y-49277069D01*
X17668475Y-49292308D01*
X17669865Y-49293513D01*
X17677548Y-49295184D01*
X17925989Y-49295184D01*
X17994110Y-49315186D01*
X18040603Y-49368842D01*
X18051989Y-49421184D01*
X18051989Y-50759916D01*
X18031987Y-50828037D01*
X18015084Y-50849011D01*
X17933227Y-50930868D01*
X17924941Y-50938408D01*
X17918462Y-50942520D01*
X17913037Y-50948297D01*
X17871836Y-50992172D01*
X17869081Y-50995014D01*
X17849345Y-51014750D01*
X17846865Y-51017947D01*
X17839162Y-51026967D01*
X17808894Y-51059199D01*
X17805075Y-51066145D01*
X17805073Y-51066148D01*
X17799132Y-51076954D01*
X17788281Y-51093473D01*
X17775866Y-51109479D01*
X17772721Y-51116748D01*
X17772718Y-51116752D01*
X17758306Y-51150057D01*
X17753089Y-51160707D01*
X17731785Y-51199460D01*
X17729814Y-51207135D01*
X17729814Y-51207136D01*
X17726747Y-51219082D01*
X17720343Y-51237786D01*
X17712299Y-51256375D01*
X17711060Y-51264198D01*
X17711057Y-51264208D01*
X17705381Y-51300044D01*
X17702975Y-51311664D01*
X17691980Y-51354490D01*
X17691980Y-51374744D01*
X17690429Y-51394454D01*
X17687260Y-51414463D01*
X17688006Y-51422355D01*
X17691421Y-51458481D01*
X17691980Y-51470339D01*
X17691980Y-64251438D01*
X17691453Y-64262621D01*
X17689778Y-64270114D01*
X17690027Y-64278040D01*
X17690027Y-64278041D01*
X17691918Y-64338191D01*
X17691980Y-64342150D01*
X17691980Y-64370061D01*
X17692477Y-64373995D01*
X17692477Y-64373996D01*
X17692485Y-64374061D01*
X17693418Y-64385898D01*
X17694807Y-64430094D01*
X17700458Y-64449544D01*
X17704467Y-64468905D01*
X17707006Y-64489002D01*
X17709925Y-64496373D01*
X17709925Y-64496375D01*
X17723284Y-64530117D01*
X17727129Y-64541347D01*
X17739462Y-64583798D01*
X17743495Y-64590617D01*
X17743497Y-64590622D01*
X17749773Y-64601233D01*
X17758468Y-64618981D01*
X17765928Y-64637822D01*
X17770590Y-64644238D01*
X17770590Y-64644239D01*
X17791916Y-64673592D01*
X17798432Y-64683512D01*
X17820938Y-64721567D01*
X17835259Y-64735888D01*
X17848099Y-64750921D01*
X17860008Y-64767312D01*
X17866114Y-64772363D01*
X17894085Y-64795503D01*
X17902864Y-64803493D01*
X22246805Y-69147435D01*
X22280831Y-69209747D01*
X22283710Y-69236530D01*
X22283710Y-75423479D01*
X22263708Y-75491600D01*
X22210052Y-75538093D01*
X22139778Y-75548197D01*
X22091594Y-75530739D01*
X22003968Y-75476725D01*
X22003966Y-75476724D01*
X21997738Y-75472885D01*
X21837254Y-75419655D01*
X21836389Y-75419368D01*
X21836387Y-75419368D01*
X21829861Y-75417203D01*
X21823025Y-75416503D01*
X21823022Y-75416502D01*
X21779969Y-75412091D01*
X21725400Y-75406500D01*
X20999600Y-75406500D01*
X20996354Y-75406837D01*
X20996350Y-75406837D01*
X20900692Y-75416762D01*
X20900688Y-75416763D01*
X20893834Y-75417474D01*
X20887298Y-75419655D01*
X20887296Y-75419655D01*
X20755194Y-75463728D01*
X20726054Y-75473450D01*
X20575652Y-75566522D01*
X20450695Y-75691697D01*
X20357885Y-75842262D01*
X20302203Y-76010139D01*
X20291500Y-76114600D01*
X20291500Y-77465400D01*
X20302474Y-77571166D01*
X20304655Y-77577702D01*
X20304655Y-77577704D01*
X20326489Y-77643149D01*
X20358450Y-77738946D01*
X20391805Y-77792846D01*
X20400980Y-77807673D01*
X20419818Y-77876124D01*
X20398657Y-77943894D01*
X20382931Y-77963071D01*
X20342551Y-78003451D01*
X20280239Y-78037477D01*
X20231360Y-78038403D01*
X20048095Y-78005758D01*
X20048089Y-78005757D01*
X20043006Y-78004852D01*
X19970096Y-78003961D01*
X19816581Y-78002086D01*
X19816579Y-78002086D01*
X19811411Y-78002023D01*
X19582464Y-78037057D01*
X19553368Y-78046567D01*
X19502481Y-78063199D01*
X19431517Y-78065350D01*
X19370655Y-78028793D01*
X19339219Y-77965136D01*
X19347189Y-77894588D01*
X19356076Y-77877318D01*
X19365300Y-77862355D01*
X19408146Y-77792846D01*
X19438275Y-77743968D01*
X19438276Y-77743966D01*
X19442115Y-77737738D01*
X19486534Y-77603818D01*
X19495632Y-77576389D01*
X19495632Y-77576387D01*
X19497797Y-77569861D01*
X19508500Y-77465400D01*
X19508500Y-76114600D01*
X19505653Y-76087162D01*
X19498238Y-76015692D01*
X19498237Y-76015688D01*
X19497526Y-76008834D01*
X19441550Y-75841054D01*
X19348478Y-75690652D01*
X19223303Y-75565695D01*
X19194916Y-75548197D01*
X19078968Y-75476725D01*
X19078966Y-75476724D01*
X19072738Y-75472885D01*
X18912254Y-75419655D01*
X18911389Y-75419368D01*
X18911387Y-75419368D01*
X18904861Y-75417203D01*
X18898025Y-75416503D01*
X18898022Y-75416502D01*
X18854969Y-75412091D01*
X18800400Y-75406500D01*
X18074600Y-75406500D01*
X18071354Y-75406837D01*
X18071350Y-75406837D01*
X17975692Y-75416762D01*
X17975688Y-75416763D01*
X17968834Y-75417474D01*
X17962298Y-75419655D01*
X17962296Y-75419655D01*
X17830194Y-75463728D01*
X17801054Y-75473450D01*
X17650652Y-75566522D01*
X17525695Y-75691697D01*
X17432885Y-75842262D01*
X17377203Y-76010139D01*
X17376502Y-76016977D01*
X17376502Y-76016979D01*
X17369311Y-76087162D01*
X17342469Y-76152889D01*
X17279120Y-76195316D01*
X17265309Y-76199329D01*
X17249291Y-76203982D01*
X17242472Y-76208015D01*
X17242467Y-76208017D01*
X17231856Y-76214293D01*
X17214106Y-76222990D01*
X17195268Y-76230448D01*
X17188852Y-76235109D01*
X17188851Y-76235110D01*
X17159510Y-76256428D01*
X17149586Y-76262947D01*
X17118345Y-76281422D01*
X17118340Y-76281426D01*
X17111522Y-76285458D01*
X17097198Y-76299782D01*
X17082166Y-76312621D01*
X17065778Y-76324528D01*
X17037597Y-76358593D01*
X17029607Y-76367373D01*
X15713236Y-77683744D01*
X15704950Y-77691284D01*
X15698471Y-77695396D01*
X15693046Y-77701173D01*
X15651846Y-77745047D01*
X15649091Y-77747889D01*
X15633095Y-77763885D01*
X15570783Y-77797911D01*
X15499968Y-77792846D01*
X15443132Y-77750299D01*
X15418321Y-77683779D01*
X15418000Y-77674790D01*
X15418000Y-74119141D01*
X15438002Y-74051020D01*
X15491658Y-74004527D01*
X15514051Y-73996752D01*
X15528422Y-73993235D01*
X15685832Y-73954717D01*
X15845039Y-73890232D01*
X15932931Y-73854632D01*
X15932932Y-73854632D01*
X15937160Y-73852919D01*
X16171161Y-73715906D01*
X16382932Y-73546548D01*
X16386846Y-73542358D01*
X16564921Y-73351731D01*
X16564923Y-73351728D01*
X16568037Y-73348395D01*
X16722598Y-73125595D01*
X16843379Y-72882817D01*
X16927847Y-72625147D01*
X16974235Y-72357982D01*
X16978500Y-72272307D01*
X16978500Y-71583023D01*
X16976214Y-71551507D01*
X16964205Y-71386007D01*
X16963875Y-71381456D01*
X16962891Y-71376998D01*
X16906400Y-71121130D01*
X16906399Y-71121126D01*
X16905415Y-71116670D01*
X16809345Y-70863097D01*
X16677676Y-70626048D01*
X16513167Y-70410490D01*
X16319264Y-70220937D01*
X16113921Y-70071472D01*
X16103721Y-70064048D01*
X16100028Y-70061360D01*
X15860053Y-69935103D01*
X15855752Y-69933584D01*
X15855747Y-69933582D01*
X15677998Y-69870813D01*
X15604366Y-69844811D01*
X15544592Y-69833029D01*
X15519634Y-69828110D01*
X15456667Y-69795312D01*
X15421428Y-69733678D01*
X15418000Y-69704488D01*
X15418000Y-48831854D01*
X16002001Y-48831854D01*
X16002371Y-48838675D01*
X16007895Y-48889537D01*
X16011521Y-48904789D01*
X16056676Y-49025239D01*
X16065214Y-49040834D01*
X16141715Y-49142909D01*
X16154276Y-49155470D01*
X16256351Y-49231971D01*
X16271946Y-49240509D01*
X16392394Y-49285663D01*
X16407649Y-49289290D01*
X16458514Y-49294816D01*
X16465328Y-49295185D01*
X17137885Y-49295185D01*
X17153124Y-49290710D01*
X17154329Y-49289320D01*
X17156000Y-49281637D01*
X17156000Y-48159300D01*
X17151525Y-48144061D01*
X17150135Y-48142856D01*
X17142452Y-48141185D01*
X16020116Y-48141185D01*
X16004877Y-48145660D01*
X16003672Y-48147050D01*
X16002001Y-48154733D01*
X16002001Y-48831854D01*
X15418000Y-48831854D01*
X15418000Y-47615070D01*
X16002000Y-47615070D01*
X16006475Y-47630309D01*
X16007865Y-47631514D01*
X16015548Y-47633185D01*
X17137885Y-47633185D01*
X17153124Y-47628710D01*
X17154329Y-47627320D01*
X17156000Y-47619637D01*
X17156000Y-46497301D01*
X17151525Y-46482062D01*
X17150135Y-46480857D01*
X17142452Y-46479186D01*
X16465331Y-46479186D01*
X16458510Y-46479556D01*
X16407648Y-46485080D01*
X16392396Y-46488706D01*
X16271946Y-46533861D01*
X16256351Y-46542399D01*
X16154276Y-46618900D01*
X16141715Y-46631461D01*
X16065214Y-46733536D01*
X16056676Y-46749131D01*
X16011522Y-46869579D01*
X16007895Y-46884834D01*
X16002369Y-46935699D01*
X16002000Y-46942513D01*
X16002000Y-47615070D01*
X15418000Y-47615070D01*
X15418000Y-42594419D01*
X15438002Y-42526298D01*
X15491658Y-42479805D01*
X15514051Y-42472030D01*
X15528422Y-42468513D01*
X15685832Y-42429995D01*
X15845039Y-42365510D01*
X15932931Y-42329910D01*
X15932932Y-42329910D01*
X15937160Y-42328197D01*
X16171161Y-42191184D01*
X16382932Y-42021826D01*
X16504399Y-41891797D01*
X16564921Y-41827009D01*
X16564923Y-41827006D01*
X16568037Y-41823673D01*
X16722598Y-41600873D01*
X16804624Y-41435995D01*
X16841346Y-41362182D01*
X16841347Y-41362179D01*
X16843379Y-41358095D01*
X16927847Y-41100425D01*
X16974235Y-40833260D01*
X16978500Y-40747585D01*
X16978500Y-40058301D01*
X16976328Y-40028355D01*
X16964205Y-39861285D01*
X16963875Y-39856734D01*
X16962891Y-39852276D01*
X16906400Y-39596408D01*
X16906399Y-39596404D01*
X16905415Y-39591948D01*
X16809345Y-39338375D01*
X16677676Y-39101326D01*
X16513167Y-38885768D01*
X16319264Y-38696215D01*
X16100028Y-38536638D01*
X15860053Y-38410381D01*
X15855752Y-38408862D01*
X15855747Y-38408860D01*
X15677998Y-38346091D01*
X15604366Y-38320089D01*
X15544592Y-38308307D01*
X15519634Y-38303388D01*
X15456667Y-38270590D01*
X15421428Y-38208956D01*
X15418000Y-38179766D01*
X15418000Y-32549652D01*
X18302001Y-32549652D01*
X18302371Y-32556473D01*
X18307895Y-32607335D01*
X18311521Y-32622587D01*
X18356676Y-32743037D01*
X18365214Y-32758632D01*
X18441715Y-32860707D01*
X18454276Y-32873268D01*
X18556351Y-32949769D01*
X18571946Y-32958307D01*
X18692394Y-33003461D01*
X18707649Y-33007088D01*
X18758514Y-33012614D01*
X18765328Y-33012983D01*
X19637885Y-33012983D01*
X19653124Y-33008508D01*
X19654329Y-33007118D01*
X19656000Y-32999435D01*
X19656000Y-32994867D01*
X20164000Y-32994867D01*
X20168475Y-33010106D01*
X20169865Y-33011311D01*
X20177548Y-33012982D01*
X21054669Y-33012982D01*
X21061490Y-33012612D01*
X21112352Y-33007088D01*
X21127604Y-33003462D01*
X21248054Y-32958307D01*
X21263649Y-32949769D01*
X21365724Y-32873268D01*
X21378285Y-32860707D01*
X21454786Y-32758632D01*
X21463324Y-32743037D01*
X21508478Y-32622589D01*
X21512105Y-32607334D01*
X21517631Y-32556469D01*
X21518000Y-32549655D01*
X21518000Y-32027098D01*
X21513525Y-32011859D01*
X21512135Y-32010654D01*
X21504452Y-32008983D01*
X20182115Y-32008983D01*
X20166876Y-32013458D01*
X20165671Y-32014848D01*
X20164000Y-32022531D01*
X20164000Y-32994867D01*
X19656000Y-32994867D01*
X19656000Y-32027098D01*
X19651525Y-32011859D01*
X19650135Y-32010654D01*
X19642452Y-32008983D01*
X18320116Y-32008983D01*
X18304877Y-32013458D01*
X18303672Y-32014848D01*
X18302001Y-32022531D01*
X18302001Y-32549652D01*
X15418000Y-32549652D01*
X15418000Y-31482868D01*
X18302000Y-31482868D01*
X18306475Y-31498107D01*
X18307865Y-31499312D01*
X18315548Y-31500983D01*
X19637885Y-31500983D01*
X19653124Y-31496508D01*
X19654329Y-31495118D01*
X19656000Y-31487435D01*
X19656000Y-31482868D01*
X20164000Y-31482868D01*
X20168475Y-31498107D01*
X20169865Y-31499312D01*
X20177548Y-31500983D01*
X21499884Y-31500983D01*
X21515123Y-31496508D01*
X21516328Y-31495118D01*
X21517999Y-31487435D01*
X21517999Y-30960314D01*
X21517629Y-30953493D01*
X21512105Y-30902631D01*
X21508479Y-30887379D01*
X21463324Y-30766929D01*
X21454786Y-30751334D01*
X21378285Y-30649259D01*
X21365724Y-30636698D01*
X21263649Y-30560197D01*
X21248054Y-30551659D01*
X21127606Y-30506505D01*
X21112351Y-30502878D01*
X21061486Y-30497352D01*
X21054672Y-30496983D01*
X20182115Y-30496983D01*
X20166876Y-30501458D01*
X20165671Y-30502848D01*
X20164000Y-30510531D01*
X20164000Y-31482868D01*
X19656000Y-31482868D01*
X19656000Y-30515099D01*
X19651525Y-30499860D01*
X19650135Y-30498655D01*
X19642452Y-30496984D01*
X18765331Y-30496984D01*
X18758510Y-30497354D01*
X18707648Y-30502878D01*
X18692396Y-30506504D01*
X18571946Y-30551659D01*
X18556351Y-30560197D01*
X18454276Y-30636698D01*
X18441715Y-30649259D01*
X18365214Y-30751334D01*
X18356676Y-30766929D01*
X18311522Y-30887377D01*
X18307895Y-30902632D01*
X18302369Y-30953497D01*
X18302000Y-30960311D01*
X18302000Y-31482868D01*
X15418000Y-31482868D01*
X15418000Y-28694673D01*
X18197037Y-28694673D01*
X18224025Y-28917698D01*
X18290082Y-29132418D01*
X18292652Y-29137398D01*
X18292654Y-29137402D01*
X18357852Y-29263721D01*
X18393118Y-29332047D01*
X18529877Y-29510275D01*
X18696036Y-29661468D01*
X18700783Y-29664446D01*
X18700786Y-29664448D01*
X18829229Y-29745019D01*
X18886344Y-29780847D01*
X19094783Y-29864639D01*
X19314767Y-29910196D01*
X19319378Y-29910462D01*
X19319379Y-29910462D01*
X19369952Y-29913378D01*
X19369956Y-29913378D01*
X19371775Y-29913483D01*
X20416999Y-29913483D01*
X20419786Y-29913234D01*
X20419792Y-29913234D01*
X20489929Y-29906974D01*
X20583762Y-29898600D01*
X20589176Y-29897119D01*
X20589181Y-29897118D01*
X20716912Y-29862174D01*
X20800451Y-29839320D01*
X20805509Y-29836908D01*
X20805513Y-29836906D01*
X20923042Y-29780847D01*
X21003218Y-29742605D01*
X21185654Y-29611512D01*
X21341992Y-29450184D01*
X21467290Y-29263721D01*
X21557588Y-29058016D01*
X21610032Y-28839572D01*
X21622963Y-28615293D01*
X21595975Y-28392268D01*
X21529918Y-28177548D01*
X21464798Y-28051379D01*
X21429454Y-27982902D01*
X21429454Y-27982901D01*
X21426882Y-27977919D01*
X21290123Y-27799691D01*
X21123964Y-27648498D01*
X21119217Y-27645520D01*
X21119214Y-27645518D01*
X20938405Y-27532098D01*
X20933656Y-27529119D01*
X20725217Y-27445327D01*
X20505233Y-27399770D01*
X20500622Y-27399504D01*
X20500621Y-27399504D01*
X20450048Y-27396588D01*
X20450044Y-27396588D01*
X20448225Y-27396483D01*
X19403001Y-27396483D01*
X19400214Y-27396732D01*
X19400208Y-27396732D01*
X19330071Y-27402992D01*
X19236238Y-27411366D01*
X19230824Y-27412847D01*
X19230819Y-27412848D01*
X19116262Y-27444188D01*
X19019549Y-27470646D01*
X19014491Y-27473058D01*
X19014487Y-27473060D01*
X18918166Y-27519003D01*
X18816782Y-27567361D01*
X18634346Y-27698454D01*
X18478008Y-27859782D01*
X18352710Y-28046245D01*
X18262412Y-28251950D01*
X18209968Y-28470394D01*
X18197037Y-28694673D01*
X15418000Y-28694673D01*
X15418000Y-17307132D01*
X16002001Y-17307132D01*
X16002371Y-17313953D01*
X16007895Y-17364815D01*
X16011521Y-17380067D01*
X16056676Y-17500517D01*
X16065214Y-17516112D01*
X16141715Y-17618187D01*
X16154276Y-17630748D01*
X16256351Y-17707249D01*
X16271946Y-17715787D01*
X16392394Y-17760941D01*
X16407649Y-17764568D01*
X16458514Y-17770094D01*
X16465328Y-17770463D01*
X17137885Y-17770463D01*
X17153124Y-17765988D01*
X17154329Y-17764598D01*
X17156000Y-17756915D01*
X17156000Y-16634578D01*
X17151525Y-16619339D01*
X17150135Y-16618134D01*
X17142452Y-16616463D01*
X16020116Y-16616463D01*
X16004877Y-16620938D01*
X16003672Y-16622328D01*
X16002001Y-16630011D01*
X16002001Y-17307132D01*
X15418000Y-17307132D01*
X15418000Y-16090348D01*
X16002000Y-16090348D01*
X16006475Y-16105587D01*
X16007865Y-16106792D01*
X16015548Y-16108463D01*
X17137885Y-16108463D01*
X17153124Y-16103988D01*
X17154329Y-16102598D01*
X17156000Y-16094915D01*
X17156000Y-14972579D01*
X17151525Y-14957340D01*
X17150135Y-14956135D01*
X17142452Y-14954464D01*
X16465331Y-14954464D01*
X16458510Y-14954834D01*
X16407648Y-14960358D01*
X16392396Y-14963984D01*
X16271946Y-15009139D01*
X16256351Y-15017677D01*
X16154276Y-15094178D01*
X16141715Y-15106739D01*
X16065214Y-15208814D01*
X16056676Y-15224409D01*
X16011522Y-15344857D01*
X16007895Y-15360112D01*
X16002369Y-15410977D01*
X16002000Y-15417791D01*
X16002000Y-16090348D01*
X15418000Y-16090348D01*
X15418000Y-11069697D01*
X15438002Y-11001576D01*
X15491658Y-10955083D01*
X15514051Y-10947308D01*
X15528422Y-10943791D01*
X15685832Y-10905273D01*
X15845039Y-10840788D01*
X15932931Y-10805188D01*
X15932932Y-10805188D01*
X15937160Y-10803475D01*
X16171161Y-10666462D01*
X16382932Y-10497104D01*
X16504399Y-10367075D01*
X16564921Y-10302287D01*
X16564923Y-10302284D01*
X16568037Y-10298951D01*
X16722598Y-10076151D01*
X16804624Y-9911273D01*
X16841346Y-9837460D01*
X16841347Y-9837457D01*
X16843379Y-9833373D01*
X16927847Y-9575703D01*
X16974235Y-9308538D01*
X16978500Y-9222863D01*
X16978500Y-8533579D01*
X16976328Y-8503633D01*
X16964205Y-8336563D01*
X16963875Y-8332012D01*
X16962891Y-8327554D01*
X16906400Y-8071686D01*
X16906399Y-8071682D01*
X16905415Y-8067226D01*
X16809345Y-7813653D01*
X16677676Y-7576604D01*
X16513167Y-7361046D01*
X16319264Y-7171493D01*
X16100028Y-7011916D01*
X15860053Y-6885659D01*
X15855752Y-6884140D01*
X15855747Y-6884138D01*
X15677998Y-6821369D01*
X15604366Y-6795367D01*
X15544592Y-6783585D01*
X15519634Y-6778666D01*
X15456667Y-6745868D01*
X15421428Y-6684234D01*
X15418000Y-6655044D01*
X15418000Y-634000D01*
X15438002Y-565879D01*
X15491658Y-519386D01*
X15544000Y-508000D01*
X16369666Y-508000D01*
X16437787Y-528002D01*
G37*
%TD.AperFunction*%
%TD*%
M02*
