%TF.GenerationSoftware,KiCad,Pcbnew,(6.0.0)*%
%TF.CreationDate,2022-02-24T10:47:42+08:00*%
%TF.ProjectId,LedController 2HP sandwich,4c656443-6f6e-4747-926f-6c6c65722032,rev?*%
%TF.SameCoordinates,Original*%
%TF.FileFunction,Legend,Bot*%
%TF.FilePolarity,Positive*%
%FSLAX46Y46*%
G04 Gerber Fmt 4.6, Leading zero omitted, Abs format (unit mm)*
G04 Created by KiCad (PCBNEW (6.0.0)) date 2022-02-24 10:47:42*
%MOMM*%
%LPD*%
G01*
G04 APERTURE LIST*
%ADD10C,3.000000*%
%ADD11C,0.150000*%
%ADD12C,0.120000*%
G04 APERTURE END LIST*
D10*
X7895000Y-91000000D02*
X2145000Y-91000000D01*
D11*
X5372619Y-61841547D02*
X5420238Y-61936785D01*
X5467857Y-61984404D01*
X5563095Y-62032023D01*
X5848809Y-62032023D01*
X5944047Y-61984404D01*
X5991666Y-61936785D01*
X6039285Y-61841547D01*
X6039285Y-61698690D01*
X5991666Y-61603452D01*
X5944047Y-61555833D01*
X5848809Y-61508214D01*
X5563095Y-61508214D01*
X5467857Y-61555833D01*
X5420238Y-61603452D01*
X5372619Y-61698690D01*
X5372619Y-61841547D01*
X5372619Y-61079642D02*
X6039285Y-61079642D01*
X5848809Y-61079642D02*
X5944047Y-61032023D01*
X5991666Y-60984404D01*
X6039285Y-60889166D01*
X6039285Y-60793928D01*
X5372619Y-60460595D02*
X6039285Y-60460595D01*
X6372619Y-60460595D02*
X6325000Y-60508214D01*
X6277380Y-60460595D01*
X6325000Y-60412976D01*
X6372619Y-60460595D01*
X6277380Y-60460595D01*
X6039285Y-59555833D02*
X5229761Y-59555833D01*
X5134523Y-59603452D01*
X5086904Y-59651071D01*
X5039285Y-59746309D01*
X5039285Y-59889166D01*
X5086904Y-59984404D01*
X5420238Y-59555833D02*
X5372619Y-59651071D01*
X5372619Y-59841547D01*
X5420238Y-59936785D01*
X5467857Y-59984404D01*
X5563095Y-60032023D01*
X5848809Y-60032023D01*
X5944047Y-59984404D01*
X5991666Y-59936785D01*
X6039285Y-59841547D01*
X6039285Y-59651071D01*
X5991666Y-59555833D01*
X5372619Y-59079642D02*
X6039285Y-59079642D01*
X6372619Y-59079642D02*
X6325000Y-59127261D01*
X6277380Y-59079642D01*
X6325000Y-59032023D01*
X6372619Y-59079642D01*
X6277380Y-59079642D01*
X6039285Y-58603452D02*
X5372619Y-58603452D01*
X5944047Y-58603452D02*
X5991666Y-58555833D01*
X6039285Y-58460595D01*
X6039285Y-58317738D01*
X5991666Y-58222500D01*
X5896428Y-58174880D01*
X5372619Y-58174880D01*
X5372619Y-57270119D02*
X5896428Y-57270119D01*
X5991666Y-57317738D01*
X6039285Y-57412976D01*
X6039285Y-57603452D01*
X5991666Y-57698690D01*
X5420238Y-57270119D02*
X5372619Y-57365357D01*
X5372619Y-57603452D01*
X5420238Y-57698690D01*
X5515476Y-57746309D01*
X5610714Y-57746309D01*
X5705952Y-57698690D01*
X5753571Y-57603452D01*
X5753571Y-57365357D01*
X5801190Y-57270119D01*
X5372619Y-56651071D02*
X5420238Y-56746309D01*
X5515476Y-56793928D01*
X6372619Y-56793928D01*
X5420238Y-55079642D02*
X5372619Y-55174880D01*
X5372619Y-55365357D01*
X5420238Y-55460595D01*
X5467857Y-55508214D01*
X5563095Y-55555833D01*
X5848809Y-55555833D01*
X5944047Y-55508214D01*
X5991666Y-55460595D01*
X6039285Y-55365357D01*
X6039285Y-55174880D01*
X5991666Y-55079642D01*
X5372619Y-54651071D02*
X6039285Y-54651071D01*
X6372619Y-54651071D02*
X6325000Y-54698690D01*
X6277380Y-54651071D01*
X6325000Y-54603452D01*
X6372619Y-54651071D01*
X6277380Y-54651071D01*
X5372619Y-54174880D02*
X6039285Y-54174880D01*
X5848809Y-54174880D02*
X5944047Y-54127261D01*
X5991666Y-54079642D01*
X6039285Y-53984404D01*
X6039285Y-53889166D01*
X5420238Y-53127261D02*
X5372619Y-53222500D01*
X5372619Y-53412976D01*
X5420238Y-53508214D01*
X5467857Y-53555833D01*
X5563095Y-53603452D01*
X5848809Y-53603452D01*
X5944047Y-53555833D01*
X5991666Y-53508214D01*
X6039285Y-53412976D01*
X6039285Y-53222500D01*
X5991666Y-53127261D01*
X6039285Y-52270119D02*
X5372619Y-52270119D01*
X6039285Y-52698690D02*
X5515476Y-52698690D01*
X5420238Y-52651071D01*
X5372619Y-52555833D01*
X5372619Y-52412976D01*
X5420238Y-52317738D01*
X5467857Y-52270119D01*
X5372619Y-51793928D02*
X6039285Y-51793928D01*
X6372619Y-51793928D02*
X6325000Y-51841547D01*
X6277380Y-51793928D01*
X6325000Y-51746309D01*
X6372619Y-51793928D01*
X6277380Y-51793928D01*
X6039285Y-51460595D02*
X6039285Y-51079642D01*
X6372619Y-51317738D02*
X5515476Y-51317738D01*
X5420238Y-51270119D01*
X5372619Y-51174880D01*
X5372619Y-51079642D01*
X5372619Y-49984404D02*
X6372619Y-49984404D01*
X5991666Y-49984404D02*
X6039285Y-49889166D01*
X6039285Y-49698690D01*
X5991666Y-49603452D01*
X5944047Y-49555833D01*
X5848809Y-49508214D01*
X5563095Y-49508214D01*
X5467857Y-49555833D01*
X5420238Y-49603452D01*
X5372619Y-49698690D01*
X5372619Y-49889166D01*
X5420238Y-49984404D01*
X6039285Y-49174880D02*
X5372619Y-48936785D01*
X6039285Y-48698690D02*
X5372619Y-48936785D01*
X5134523Y-49032023D01*
X5086904Y-49079642D01*
X5039285Y-49174880D01*
X4429285Y-61555833D02*
X3619761Y-61555833D01*
X3524523Y-61603452D01*
X3476904Y-61651071D01*
X3429285Y-61746309D01*
X3429285Y-61889166D01*
X3476904Y-61984404D01*
X3810238Y-61555833D02*
X3762619Y-61651071D01*
X3762619Y-61841547D01*
X3810238Y-61936785D01*
X3857857Y-61984404D01*
X3953095Y-62032023D01*
X4238809Y-62032023D01*
X4334047Y-61984404D01*
X4381666Y-61936785D01*
X4429285Y-61841547D01*
X4429285Y-61651071D01*
X4381666Y-61555833D01*
X3762619Y-61079642D02*
X4429285Y-61079642D01*
X4762619Y-61079642D02*
X4715000Y-61127261D01*
X4667380Y-61079642D01*
X4715000Y-61032023D01*
X4762619Y-61079642D01*
X4667380Y-61079642D01*
X4429285Y-60746309D02*
X4429285Y-60365357D01*
X4762619Y-60603452D02*
X3905476Y-60603452D01*
X3810238Y-60555833D01*
X3762619Y-60460595D01*
X3762619Y-60365357D01*
X3762619Y-60032023D02*
X4762619Y-60032023D01*
X3762619Y-59603452D02*
X4286428Y-59603452D01*
X4381666Y-59651071D01*
X4429285Y-59746309D01*
X4429285Y-59889166D01*
X4381666Y-59984404D01*
X4334047Y-60032023D01*
X4429285Y-58698690D02*
X3762619Y-58698690D01*
X4429285Y-59127261D02*
X3905476Y-59127261D01*
X3810238Y-59079642D01*
X3762619Y-58984404D01*
X3762619Y-58841547D01*
X3810238Y-58746309D01*
X3857857Y-58698690D01*
X3762619Y-58222500D02*
X4762619Y-58222500D01*
X4381666Y-58222500D02*
X4429285Y-58127261D01*
X4429285Y-57936785D01*
X4381666Y-57841547D01*
X4334047Y-57793928D01*
X4238809Y-57746309D01*
X3953095Y-57746309D01*
X3857857Y-57793928D01*
X3810238Y-57841547D01*
X3762619Y-57936785D01*
X3762619Y-58127261D01*
X3810238Y-58222500D01*
X3857857Y-57317738D02*
X3810238Y-57270119D01*
X3762619Y-57317738D01*
X3810238Y-57365357D01*
X3857857Y-57317738D01*
X3762619Y-57317738D01*
X3810238Y-56412976D02*
X3762619Y-56508214D01*
X3762619Y-56698690D01*
X3810238Y-56793928D01*
X3857857Y-56841547D01*
X3953095Y-56889166D01*
X4238809Y-56889166D01*
X4334047Y-56841547D01*
X4381666Y-56793928D01*
X4429285Y-56698690D01*
X4429285Y-56508214D01*
X4381666Y-56412976D01*
X3762619Y-55841547D02*
X3810238Y-55936785D01*
X3857857Y-55984404D01*
X3953095Y-56032023D01*
X4238809Y-56032023D01*
X4334047Y-55984404D01*
X4381666Y-55936785D01*
X4429285Y-55841547D01*
X4429285Y-55698690D01*
X4381666Y-55603452D01*
X4334047Y-55555833D01*
X4238809Y-55508214D01*
X3953095Y-55508214D01*
X3857857Y-55555833D01*
X3810238Y-55603452D01*
X3762619Y-55698690D01*
X3762619Y-55841547D01*
X3762619Y-55079642D02*
X4429285Y-55079642D01*
X4334047Y-55079642D02*
X4381666Y-55032023D01*
X4429285Y-54936785D01*
X4429285Y-54793928D01*
X4381666Y-54698690D01*
X4286428Y-54651071D01*
X3762619Y-54651071D01*
X4286428Y-54651071D02*
X4381666Y-54603452D01*
X4429285Y-54508214D01*
X4429285Y-54365357D01*
X4381666Y-54270119D01*
X4286428Y-54222500D01*
X3762619Y-54222500D01*
X4810238Y-53032023D02*
X3524523Y-53889166D01*
X4762619Y-52412976D02*
X4048333Y-52412976D01*
X3905476Y-52460595D01*
X3810238Y-52555833D01*
X3762619Y-52698690D01*
X3762619Y-52793928D01*
X3762619Y-51793928D02*
X3810238Y-51889166D01*
X3857857Y-51936785D01*
X3953095Y-51984404D01*
X4238809Y-51984404D01*
X4334047Y-51936785D01*
X4381666Y-51889166D01*
X4429285Y-51793928D01*
X4429285Y-51651071D01*
X4381666Y-51555833D01*
X4334047Y-51508214D01*
X4238809Y-51460595D01*
X3953095Y-51460595D01*
X3857857Y-51508214D01*
X3810238Y-51555833D01*
X3762619Y-51651071D01*
X3762619Y-51793928D01*
X4429285Y-51032023D02*
X3762619Y-51032023D01*
X4334047Y-51032023D02*
X4381666Y-50984404D01*
X4429285Y-50889166D01*
X4429285Y-50746309D01*
X4381666Y-50651071D01*
X4286428Y-50603452D01*
X3762619Y-50603452D01*
X3762619Y-49698690D02*
X4286428Y-49698690D01*
X4381666Y-49746309D01*
X4429285Y-49841547D01*
X4429285Y-50032023D01*
X4381666Y-50127261D01*
X3810238Y-49698690D02*
X3762619Y-49793928D01*
X3762619Y-50032023D01*
X3810238Y-50127261D01*
X3905476Y-50174880D01*
X4000714Y-50174880D01*
X4095952Y-50127261D01*
X4143571Y-50032023D01*
X4143571Y-49793928D01*
X4191190Y-49698690D01*
X4429285Y-49365357D02*
X4429285Y-48984404D01*
X4762619Y-49222500D02*
X3905476Y-49222500D01*
X3810238Y-49174880D01*
X3762619Y-49079642D01*
X3762619Y-48984404D01*
X3762619Y-48651071D02*
X4762619Y-48651071D01*
X3762619Y-48222500D02*
X4286428Y-48222500D01*
X4381666Y-48270119D01*
X4429285Y-48365357D01*
X4429285Y-48508214D01*
X4381666Y-48603452D01*
X4334047Y-48651071D01*
X3762619Y-47317738D02*
X4286428Y-47317738D01*
X4381666Y-47365357D01*
X4429285Y-47460595D01*
X4429285Y-47651071D01*
X4381666Y-47746309D01*
X3810238Y-47317738D02*
X3762619Y-47412976D01*
X3762619Y-47651071D01*
X3810238Y-47746309D01*
X3905476Y-47793928D01*
X4000714Y-47793928D01*
X4095952Y-47746309D01*
X4143571Y-47651071D01*
X4143571Y-47412976D01*
X4191190Y-47317738D01*
X4429285Y-46841547D02*
X3762619Y-46841547D01*
X4334047Y-46841547D02*
X4381666Y-46793928D01*
X4429285Y-46698690D01*
X4429285Y-46555833D01*
X4381666Y-46460595D01*
X4286428Y-46412976D01*
X3762619Y-46412976D01*
X4286428Y-45603452D02*
X4238809Y-45460595D01*
X4191190Y-45412976D01*
X4095952Y-45365357D01*
X3953095Y-45365357D01*
X3857857Y-45412976D01*
X3810238Y-45460595D01*
X3762619Y-45555833D01*
X3762619Y-45936785D01*
X4762619Y-45936785D01*
X4762619Y-45603452D01*
X4715000Y-45508214D01*
X4667380Y-45460595D01*
X4572142Y-45412976D01*
X4476904Y-45412976D01*
X4381666Y-45460595D01*
X4334047Y-45508214D01*
X4286428Y-45603452D01*
X4286428Y-45936785D01*
X3810238Y-44555833D02*
X3762619Y-44651071D01*
X3762619Y-44841547D01*
X3810238Y-44936785D01*
X3905476Y-44984404D01*
X4286428Y-44984404D01*
X4381666Y-44936785D01*
X4429285Y-44841547D01*
X4429285Y-44651071D01*
X4381666Y-44555833D01*
X4286428Y-44508214D01*
X4191190Y-44508214D01*
X4095952Y-44984404D01*
X3762619Y-43651071D02*
X4762619Y-43651071D01*
X3810238Y-43651071D02*
X3762619Y-43746309D01*
X3762619Y-43936785D01*
X3810238Y-44032023D01*
X3857857Y-44079642D01*
X3953095Y-44127261D01*
X4238809Y-44127261D01*
X4334047Y-44079642D01*
X4381666Y-44032023D01*
X4429285Y-43936785D01*
X4429285Y-43746309D01*
X4381666Y-43651071D01*
X3762619Y-43174880D02*
X4429285Y-43174880D01*
X4238809Y-43174880D02*
X4334047Y-43127261D01*
X4381666Y-43079642D01*
X4429285Y-42984404D01*
X4429285Y-42889166D01*
X3762619Y-42127261D02*
X4286428Y-42127261D01*
X4381666Y-42174880D01*
X4429285Y-42270119D01*
X4429285Y-42460595D01*
X4381666Y-42555833D01*
X3810238Y-42127261D02*
X3762619Y-42222500D01*
X3762619Y-42460595D01*
X3810238Y-42555833D01*
X3905476Y-42603452D01*
X4000714Y-42603452D01*
X4095952Y-42555833D01*
X4143571Y-42460595D01*
X4143571Y-42222500D01*
X4191190Y-42127261D01*
X4429285Y-41746309D02*
X3762619Y-41508214D01*
X4429285Y-41270119D01*
X3762619Y-40460595D02*
X4286428Y-40460595D01*
X4381666Y-40508214D01*
X4429285Y-40603452D01*
X4429285Y-40793928D01*
X4381666Y-40889166D01*
X3810238Y-40460595D02*
X3762619Y-40555833D01*
X3762619Y-40793928D01*
X3810238Y-40889166D01*
X3905476Y-40936785D01*
X4000714Y-40936785D01*
X4095952Y-40889166D01*
X4143571Y-40793928D01*
X4143571Y-40555833D01*
X4191190Y-40460595D01*
X1098571Y-93027619D02*
X765238Y-93503809D01*
X527142Y-93027619D02*
X527142Y-94027619D01*
X908095Y-94027619D01*
X1003333Y-93980000D01*
X1050952Y-93932380D01*
X1098571Y-93837142D01*
X1098571Y-93694285D01*
X1050952Y-93599047D01*
X1003333Y-93551428D01*
X908095Y-93503809D01*
X527142Y-93503809D01*
X1527142Y-93551428D02*
X1860476Y-93551428D01*
X2003333Y-93027619D02*
X1527142Y-93027619D01*
X1527142Y-94027619D01*
X2003333Y-94027619D01*
X2431904Y-93027619D02*
X2431904Y-94027619D01*
X2670000Y-94027619D01*
X2812857Y-93980000D01*
X2908095Y-93884761D01*
X2955714Y-93789523D01*
X3003333Y-93599047D01*
X3003333Y-93456190D01*
X2955714Y-93265714D01*
X2908095Y-93170476D01*
X2812857Y-93075238D01*
X2670000Y-93027619D01*
X2431904Y-93027619D01*
X4146190Y-93075238D02*
X4289047Y-93027619D01*
X4527142Y-93027619D01*
X4622380Y-93075238D01*
X4670000Y-93122857D01*
X4717619Y-93218095D01*
X4717619Y-93313333D01*
X4670000Y-93408571D01*
X4622380Y-93456190D01*
X4527142Y-93503809D01*
X4336666Y-93551428D01*
X4241428Y-93599047D01*
X4193809Y-93646666D01*
X4146190Y-93741904D01*
X4146190Y-93837142D01*
X4193809Y-93932380D01*
X4241428Y-93980000D01*
X4336666Y-94027619D01*
X4574761Y-94027619D01*
X4717619Y-93980000D01*
X5003333Y-94027619D02*
X5574761Y-94027619D01*
X5289047Y-93027619D02*
X5289047Y-94027619D01*
X6479523Y-93027619D02*
X6146190Y-93503809D01*
X5908095Y-93027619D02*
X5908095Y-94027619D01*
X6289047Y-94027619D01*
X6384285Y-93980000D01*
X6431904Y-93932380D01*
X6479523Y-93837142D01*
X6479523Y-93694285D01*
X6431904Y-93599047D01*
X6384285Y-93551428D01*
X6289047Y-93503809D01*
X5908095Y-93503809D01*
X6908095Y-93027619D02*
X6908095Y-94027619D01*
X7384285Y-93027619D02*
X7384285Y-94027619D01*
X7765238Y-94027619D01*
X7860476Y-93980000D01*
X7908095Y-93932380D01*
X7955714Y-93837142D01*
X7955714Y-93694285D01*
X7908095Y-93599047D01*
X7860476Y-93551428D01*
X7765238Y-93503809D01*
X7384285Y-93503809D01*
X8384285Y-93551428D02*
X8717619Y-93551428D01*
X8860476Y-93027619D02*
X8384285Y-93027619D01*
X8384285Y-94027619D01*
X8860476Y-94027619D01*
X6277380Y-38262023D02*
X6325000Y-38214404D01*
X6372619Y-38119166D01*
X6372619Y-37881071D01*
X6325000Y-37785833D01*
X6277380Y-37738214D01*
X6182142Y-37690595D01*
X6086904Y-37690595D01*
X5944047Y-37738214D01*
X5372619Y-38309642D01*
X5372619Y-37690595D01*
X5372619Y-37262023D02*
X6372619Y-37262023D01*
X5896428Y-37262023D02*
X5896428Y-36690595D01*
X5372619Y-36690595D02*
X6372619Y-36690595D01*
X5372619Y-36214404D02*
X6372619Y-36214404D01*
X6372619Y-35833452D01*
X6325000Y-35738214D01*
X6277380Y-35690595D01*
X6182142Y-35642976D01*
X6039285Y-35642976D01*
X5944047Y-35690595D01*
X5896428Y-35738214D01*
X5848809Y-35833452D01*
X5848809Y-36214404D01*
X5372619Y-34452500D02*
X6039285Y-34452500D01*
X5848809Y-34452500D02*
X5944047Y-34404880D01*
X5991666Y-34357261D01*
X6039285Y-34262023D01*
X6039285Y-34166785D01*
X5420238Y-33452500D02*
X5372619Y-33547738D01*
X5372619Y-33738214D01*
X5420238Y-33833452D01*
X5515476Y-33881071D01*
X5896428Y-33881071D01*
X5991666Y-33833452D01*
X6039285Y-33738214D01*
X6039285Y-33547738D01*
X5991666Y-33452500D01*
X5896428Y-33404880D01*
X5801190Y-33404880D01*
X5705952Y-33881071D01*
X6039285Y-33071547D02*
X5372619Y-32833452D01*
X6039285Y-32595357D01*
X5372619Y-32214404D02*
X6039285Y-32214404D01*
X6372619Y-32214404D02*
X6325000Y-32262023D01*
X6277380Y-32214404D01*
X6325000Y-32166785D01*
X6372619Y-32214404D01*
X6277380Y-32214404D01*
X5420238Y-31785833D02*
X5372619Y-31690595D01*
X5372619Y-31500119D01*
X5420238Y-31404880D01*
X5515476Y-31357261D01*
X5563095Y-31357261D01*
X5658333Y-31404880D01*
X5705952Y-31500119D01*
X5705952Y-31642976D01*
X5753571Y-31738214D01*
X5848809Y-31785833D01*
X5896428Y-31785833D01*
X5991666Y-31738214D01*
X6039285Y-31642976D01*
X6039285Y-31500119D01*
X5991666Y-31404880D01*
X5372619Y-30928690D02*
X6039285Y-30928690D01*
X6372619Y-30928690D02*
X6325000Y-30976309D01*
X6277380Y-30928690D01*
X6325000Y-30881071D01*
X6372619Y-30928690D01*
X6277380Y-30928690D01*
X5372619Y-30309642D02*
X5420238Y-30404880D01*
X5467857Y-30452500D01*
X5563095Y-30500119D01*
X5848809Y-30500119D01*
X5944047Y-30452500D01*
X5991666Y-30404880D01*
X6039285Y-30309642D01*
X6039285Y-30166785D01*
X5991666Y-30071547D01*
X5944047Y-30023928D01*
X5848809Y-29976309D01*
X5563095Y-29976309D01*
X5467857Y-30023928D01*
X5420238Y-30071547D01*
X5372619Y-30166785D01*
X5372619Y-30309642D01*
X6039285Y-29547738D02*
X5372619Y-29547738D01*
X5944047Y-29547738D02*
X5991666Y-29500119D01*
X6039285Y-29404880D01*
X6039285Y-29262023D01*
X5991666Y-29166785D01*
X5896428Y-29119166D01*
X5372619Y-29119166D01*
X5372619Y-27881071D02*
X6372619Y-27881071D01*
X5991666Y-27881071D02*
X6039285Y-27785833D01*
X6039285Y-27595357D01*
X5991666Y-27500119D01*
X5944047Y-27452500D01*
X5848809Y-27404880D01*
X5563095Y-27404880D01*
X5467857Y-27452500D01*
X5420238Y-27500119D01*
X5372619Y-27595357D01*
X5372619Y-27785833D01*
X5420238Y-27881071D01*
X6039285Y-27071547D02*
X5372619Y-26833452D01*
X6039285Y-26595357D02*
X5372619Y-26833452D01*
X5134523Y-26928690D01*
X5086904Y-26976309D01*
X5039285Y-27071547D01*
X4429285Y-37785833D02*
X3619761Y-37785833D01*
X3524523Y-37833452D01*
X3476904Y-37881071D01*
X3429285Y-37976309D01*
X3429285Y-38119166D01*
X3476904Y-38214404D01*
X3810238Y-37785833D02*
X3762619Y-37881071D01*
X3762619Y-38071547D01*
X3810238Y-38166785D01*
X3857857Y-38214404D01*
X3953095Y-38262023D01*
X4238809Y-38262023D01*
X4334047Y-38214404D01*
X4381666Y-38166785D01*
X4429285Y-38071547D01*
X4429285Y-37881071D01*
X4381666Y-37785833D01*
X3762619Y-37309642D02*
X4429285Y-37309642D01*
X4762619Y-37309642D02*
X4715000Y-37357261D01*
X4667380Y-37309642D01*
X4715000Y-37262023D01*
X4762619Y-37309642D01*
X4667380Y-37309642D01*
X4429285Y-36976309D02*
X4429285Y-36595357D01*
X4762619Y-36833452D02*
X3905476Y-36833452D01*
X3810238Y-36785833D01*
X3762619Y-36690595D01*
X3762619Y-36595357D01*
X3762619Y-36262023D02*
X4762619Y-36262023D01*
X3762619Y-35833452D02*
X4286428Y-35833452D01*
X4381666Y-35881071D01*
X4429285Y-35976309D01*
X4429285Y-36119166D01*
X4381666Y-36214404D01*
X4334047Y-36262023D01*
X4429285Y-34928690D02*
X3762619Y-34928690D01*
X4429285Y-35357261D02*
X3905476Y-35357261D01*
X3810238Y-35309642D01*
X3762619Y-35214404D01*
X3762619Y-35071547D01*
X3810238Y-34976309D01*
X3857857Y-34928690D01*
X3762619Y-34452500D02*
X4762619Y-34452500D01*
X4381666Y-34452500D02*
X4429285Y-34357261D01*
X4429285Y-34166785D01*
X4381666Y-34071547D01*
X4334047Y-34023928D01*
X4238809Y-33976309D01*
X3953095Y-33976309D01*
X3857857Y-34023928D01*
X3810238Y-34071547D01*
X3762619Y-34166785D01*
X3762619Y-34357261D01*
X3810238Y-34452500D01*
X3857857Y-33547738D02*
X3810238Y-33500119D01*
X3762619Y-33547738D01*
X3810238Y-33595357D01*
X3857857Y-33547738D01*
X3762619Y-33547738D01*
X3810238Y-32642976D02*
X3762619Y-32738214D01*
X3762619Y-32928690D01*
X3810238Y-33023928D01*
X3857857Y-33071547D01*
X3953095Y-33119166D01*
X4238809Y-33119166D01*
X4334047Y-33071547D01*
X4381666Y-33023928D01*
X4429285Y-32928690D01*
X4429285Y-32738214D01*
X4381666Y-32642976D01*
X3762619Y-32071547D02*
X3810238Y-32166785D01*
X3857857Y-32214404D01*
X3953095Y-32262023D01*
X4238809Y-32262023D01*
X4334047Y-32214404D01*
X4381666Y-32166785D01*
X4429285Y-32071547D01*
X4429285Y-31928690D01*
X4381666Y-31833452D01*
X4334047Y-31785833D01*
X4238809Y-31738214D01*
X3953095Y-31738214D01*
X3857857Y-31785833D01*
X3810238Y-31833452D01*
X3762619Y-31928690D01*
X3762619Y-32071547D01*
X3762619Y-31309642D02*
X4429285Y-31309642D01*
X4334047Y-31309642D02*
X4381666Y-31262023D01*
X4429285Y-31166785D01*
X4429285Y-31023928D01*
X4381666Y-30928690D01*
X4286428Y-30881071D01*
X3762619Y-30881071D01*
X4286428Y-30881071D02*
X4381666Y-30833452D01*
X4429285Y-30738214D01*
X4429285Y-30595357D01*
X4381666Y-30500119D01*
X4286428Y-30452500D01*
X3762619Y-30452500D01*
X4810238Y-29262023D02*
X3524523Y-30119166D01*
X3762619Y-28928690D02*
X4762619Y-28928690D01*
X4143571Y-28833452D02*
X3762619Y-28547738D01*
X4429285Y-28547738D02*
X4048333Y-28928690D01*
X3810238Y-27738214D02*
X3762619Y-27833452D01*
X3762619Y-28023928D01*
X3810238Y-28119166D01*
X3905476Y-28166785D01*
X4286428Y-28166785D01*
X4381666Y-28119166D01*
X4429285Y-28023928D01*
X4429285Y-27833452D01*
X4381666Y-27738214D01*
X4286428Y-27690595D01*
X4191190Y-27690595D01*
X4095952Y-28166785D01*
X3762619Y-27119166D02*
X3810238Y-27214404D01*
X3905476Y-27262023D01*
X4762619Y-27262023D01*
X3762619Y-26309642D02*
X4286428Y-26309642D01*
X4381666Y-26357261D01*
X4429285Y-26452500D01*
X4429285Y-26642976D01*
X4381666Y-26738214D01*
X3810238Y-26309642D02*
X3762619Y-26404880D01*
X3762619Y-26642976D01*
X3810238Y-26738214D01*
X3905476Y-26785833D01*
X4000714Y-26785833D01*
X4095952Y-26738214D01*
X4143571Y-26642976D01*
X4143571Y-26404880D01*
X4191190Y-26309642D01*
X3762619Y-25833452D02*
X4429285Y-25833452D01*
X4762619Y-25833452D02*
X4715000Y-25881071D01*
X4667380Y-25833452D01*
X4715000Y-25785833D01*
X4762619Y-25833452D01*
X4667380Y-25833452D01*
X4429285Y-25500119D02*
X4429285Y-25119166D01*
X3762619Y-25357261D02*
X4619761Y-25357261D01*
X4715000Y-25309642D01*
X4762619Y-25214404D01*
X4762619Y-25119166D01*
X4429285Y-24357261D02*
X3762619Y-24357261D01*
X4429285Y-24785833D02*
X3905476Y-24785833D01*
X3810238Y-24738214D01*
X3762619Y-24642976D01*
X3762619Y-24500119D01*
X3810238Y-24404880D01*
X3857857Y-24357261D01*
%TO.C,R1*%
X20066666Y-74132380D02*
X20400000Y-73656190D01*
X20638095Y-74132380D02*
X20638095Y-73132380D01*
X20257142Y-73132380D01*
X20161904Y-73180000D01*
X20114285Y-73227619D01*
X20066666Y-73322857D01*
X20066666Y-73465714D01*
X20114285Y-73560952D01*
X20161904Y-73608571D01*
X20257142Y-73656190D01*
X20638095Y-73656190D01*
X19114285Y-74132380D02*
X19685714Y-74132380D01*
X19400000Y-74132380D02*
X19400000Y-73132380D01*
X19495238Y-73275238D01*
X19590476Y-73370476D01*
X19685714Y-73418095D01*
X20600476Y-75412380D02*
X21171904Y-75412380D01*
X20886190Y-75412380D02*
X20886190Y-74412380D01*
X20981428Y-74555238D01*
X21076666Y-74650476D01*
X21171904Y-74698095D01*
X19981428Y-74412380D02*
X19886190Y-74412380D01*
X19790952Y-74460000D01*
X19743333Y-74507619D01*
X19695714Y-74602857D01*
X19648095Y-74793333D01*
X19648095Y-75031428D01*
X19695714Y-75221904D01*
X19743333Y-75317142D01*
X19790952Y-75364761D01*
X19886190Y-75412380D01*
X19981428Y-75412380D01*
X20076666Y-75364761D01*
X20124285Y-75317142D01*
X20171904Y-75221904D01*
X20219523Y-75031428D01*
X20219523Y-74793333D01*
X20171904Y-74602857D01*
X20124285Y-74507619D01*
X20076666Y-74460000D01*
X19981428Y-74412380D01*
X19219523Y-75412380D02*
X19219523Y-74412380D01*
X18648095Y-75412380D02*
X19076666Y-74840952D01*
X18648095Y-74412380D02*
X19219523Y-74983809D01*
%TO.C,R2*%
X20096666Y-42562380D02*
X20430000Y-42086190D01*
X20668095Y-42562380D02*
X20668095Y-41562380D01*
X20287142Y-41562380D01*
X20191904Y-41610000D01*
X20144285Y-41657619D01*
X20096666Y-41752857D01*
X20096666Y-41895714D01*
X20144285Y-41990952D01*
X20191904Y-42038571D01*
X20287142Y-42086190D01*
X20668095Y-42086190D01*
X19715714Y-41657619D02*
X19668095Y-41610000D01*
X19572857Y-41562380D01*
X19334761Y-41562380D01*
X19239523Y-41610000D01*
X19191904Y-41657619D01*
X19144285Y-41752857D01*
X19144285Y-41848095D01*
X19191904Y-41990952D01*
X19763333Y-42562380D01*
X19144285Y-42562380D01*
X20590476Y-43862380D02*
X21161904Y-43862380D01*
X20876190Y-43862380D02*
X20876190Y-42862380D01*
X20971428Y-43005238D01*
X21066666Y-43100476D01*
X21161904Y-43148095D01*
X19971428Y-42862380D02*
X19876190Y-42862380D01*
X19780952Y-42910000D01*
X19733333Y-42957619D01*
X19685714Y-43052857D01*
X19638095Y-43243333D01*
X19638095Y-43481428D01*
X19685714Y-43671904D01*
X19733333Y-43767142D01*
X19780952Y-43814761D01*
X19876190Y-43862380D01*
X19971428Y-43862380D01*
X20066666Y-43814761D01*
X20114285Y-43767142D01*
X20161904Y-43671904D01*
X20209523Y-43481428D01*
X20209523Y-43243333D01*
X20161904Y-43052857D01*
X20114285Y-42957619D01*
X20066666Y-42910000D01*
X19971428Y-42862380D01*
X19209523Y-43862380D02*
X19209523Y-42862380D01*
X18638095Y-43862380D02*
X19066666Y-43290952D01*
X18638095Y-42862380D02*
X19209523Y-43433809D01*
%TO.C,R3*%
X20046666Y-11052380D02*
X20380000Y-10576190D01*
X20618095Y-11052380D02*
X20618095Y-10052380D01*
X20237142Y-10052380D01*
X20141904Y-10100000D01*
X20094285Y-10147619D01*
X20046666Y-10242857D01*
X20046666Y-10385714D01*
X20094285Y-10480952D01*
X20141904Y-10528571D01*
X20237142Y-10576190D01*
X20618095Y-10576190D01*
X19713333Y-10052380D02*
X19094285Y-10052380D01*
X19427619Y-10433333D01*
X19284761Y-10433333D01*
X19189523Y-10480952D01*
X19141904Y-10528571D01*
X19094285Y-10623809D01*
X19094285Y-10861904D01*
X19141904Y-10957142D01*
X19189523Y-11004761D01*
X19284761Y-11052380D01*
X19570476Y-11052380D01*
X19665714Y-11004761D01*
X19713333Y-10957142D01*
X20540476Y-12342380D02*
X21111904Y-12342380D01*
X20826190Y-12342380D02*
X20826190Y-11342380D01*
X20921428Y-11485238D01*
X21016666Y-11580476D01*
X21111904Y-11628095D01*
X19921428Y-11342380D02*
X19826190Y-11342380D01*
X19730952Y-11390000D01*
X19683333Y-11437619D01*
X19635714Y-11532857D01*
X19588095Y-11723333D01*
X19588095Y-11961428D01*
X19635714Y-12151904D01*
X19683333Y-12247142D01*
X19730952Y-12294761D01*
X19826190Y-12342380D01*
X19921428Y-12342380D01*
X20016666Y-12294761D01*
X20064285Y-12247142D01*
X20111904Y-12151904D01*
X20159523Y-11961428D01*
X20159523Y-11723333D01*
X20111904Y-11532857D01*
X20064285Y-11437619D01*
X20016666Y-11390000D01*
X19921428Y-11342380D01*
X19159523Y-12342380D02*
X19159523Y-11342380D01*
X18588095Y-12342380D02*
X19016666Y-11770952D01*
X18588095Y-11342380D02*
X19159523Y-11913809D01*
%TO.C,J5*%
X5333333Y-7872380D02*
X5333333Y-8586666D01*
X5380952Y-8729523D01*
X5476190Y-8824761D01*
X5619047Y-8872380D01*
X5714285Y-8872380D01*
X4380952Y-7872380D02*
X4857142Y-7872380D01*
X4904761Y-8348571D01*
X4857142Y-8300952D01*
X4761904Y-8253333D01*
X4523809Y-8253333D01*
X4428571Y-8300952D01*
X4380952Y-8348571D01*
X4333333Y-8443809D01*
X4333333Y-8681904D01*
X4380952Y-8777142D01*
X4428571Y-8824761D01*
X4523809Y-8872380D01*
X4761904Y-8872380D01*
X4857142Y-8824761D01*
X4904761Y-8777142D01*
%TO.C,REF\u002A\u002A*%
X15067380Y-96856666D02*
X14591190Y-96523333D01*
X15067380Y-96285238D02*
X14067380Y-96285238D01*
X14067380Y-96666190D01*
X14115000Y-96761428D01*
X14162619Y-96809047D01*
X14257857Y-96856666D01*
X14400714Y-96856666D01*
X14495952Y-96809047D01*
X14543571Y-96761428D01*
X14591190Y-96666190D01*
X14591190Y-96285238D01*
X14543571Y-97285238D02*
X14543571Y-97618571D01*
X15067380Y-97761428D02*
X15067380Y-97285238D01*
X14067380Y-97285238D01*
X14067380Y-97761428D01*
X14543571Y-98523333D02*
X14543571Y-98190000D01*
X15067380Y-98190000D02*
X14067380Y-98190000D01*
X14067380Y-98666190D01*
X14067380Y-99190000D02*
X14305476Y-99190000D01*
X14210238Y-98951904D02*
X14305476Y-99190000D01*
X14210238Y-99428095D01*
X14495952Y-99047142D02*
X14305476Y-99190000D01*
X14495952Y-99332857D01*
X14067380Y-99951904D02*
X14305476Y-99951904D01*
X14210238Y-99713809D02*
X14305476Y-99951904D01*
X14210238Y-100190000D01*
X14495952Y-99809047D02*
X14305476Y-99951904D01*
X14495952Y-100094761D01*
D12*
%TO.C,R1*%
X19172936Y-77700000D02*
X20627064Y-77700000D01*
X19172936Y-75880000D02*
X20627064Y-75880000D01*
%TO.C,R2*%
X19182936Y-46149145D02*
X20637064Y-46149145D01*
X19182936Y-44329145D02*
X20637064Y-44329145D01*
%TO.C,R3*%
X19182936Y-12823363D02*
X20637064Y-12823363D01*
X19182936Y-14643363D02*
X20637064Y-14643363D01*
%TO.C,J4*%
X4995000Y-89665000D02*
X4995000Y-92265000D01*
X7595000Y-92265000D02*
X7595000Y-71825000D01*
X2395000Y-71825000D02*
X7595000Y-71825000D01*
X2395000Y-89665000D02*
X2395000Y-71825000D01*
X2395000Y-90935000D02*
X2395000Y-92265000D01*
X2395000Y-92265000D02*
X3725000Y-92265000D01*
X2395000Y-89665000D02*
X4995000Y-89665000D01*
X4995000Y-92265000D02*
X7595000Y-92265000D01*
%TO.C,J5*%
X6330000Y-12020000D02*
X6330000Y-19700000D01*
X6330000Y-12020000D02*
X3670000Y-12020000D01*
X6330000Y-10750000D02*
X6330000Y-9420000D01*
X6330000Y-9420000D02*
X5000000Y-9420000D01*
X6330000Y-19700000D02*
X3670000Y-19700000D01*
X3670000Y-12020000D02*
X3670000Y-19700000D01*
%TO.C,REF\u002A\u002A*%
X21165000Y-420000D02*
X16025000Y-420000D01*
X21165000Y-3080000D02*
X21165000Y-420000D01*
X23765000Y-1750000D02*
X23765000Y-420000D01*
X21165000Y-3080000D02*
X16025000Y-3080000D01*
X16025000Y-3080000D02*
X16025000Y-420000D01*
X23765000Y-420000D02*
X22435000Y-420000D01*
X18655000Y-96860000D02*
X18655000Y-99520000D01*
X23795000Y-96860000D02*
X23795000Y-99520000D01*
X18655000Y-96860000D02*
X23795000Y-96860000D01*
X16055000Y-99520000D02*
X17385000Y-99520000D01*
X18655000Y-99520000D02*
X23795000Y-99520000D01*
X16055000Y-98190000D02*
X16055000Y-99520000D01*
%TD*%
M02*
