M48
; DRILL file {KiCad (6.0.0)} date Thu Feb 24 10:47:42 2022
; FORMAT={-:-/ absolute / inch / decimal}
; #@! TF.CreationDate,2022-02-24T10:47:42+08:00
; #@! TF.GenerationSoftware,Kicad,Pcbnew,(6.0.0)
; #@! TF.FileFunction,Plated,1,2,PTH
FMAT,2
INCH
; #@! TA.AperFunction,Plated,PTH,ViaDrill
T1C0.0157
; #@! TA.AperFunction,Plated,PTH,ComponentDrill
T2C0.0197
; #@! TA.AperFunction,Plated,PTH,ComponentDrill
T3C0.0236
; #@! TA.AperFunction,Plated,PTH,ComponentDrill
T4C0.0394
; #@! TA.AperFunction,Plated,PTH,ComponentDrill
T5C0.0433
; #@! TA.AperFunction,Plated,PTH,ViaDrill
T6C0.0827
; #@! TA.AperFunction,Plated,PTH,ComponentDrill
T7C0.2400
; #@! TA.AperFunction,Plated,PTH,ComponentDrill
T8C0.2800
%
G90
G05
T1
X0.187Y-1.9213
X0.1965Y-1.9921
X0.2088Y-0.8374
X0.3433Y-0.6339
T4
X0.0963Y-0.0693
X0.0974Y-3.8638
X0.1467Y-2.8801
X0.1467Y-2.9801
X0.1467Y-3.0801
X0.1467Y-3.1801
X0.1467Y-3.2801
X0.1467Y-3.3801
X0.1467Y-3.4801
X0.1467Y-3.5801
X0.1963Y-0.0693
X0.1969Y-0.4232
X0.1969Y-0.5232
X0.1969Y-0.6232
X0.1969Y-0.7232
X0.1974Y-3.8638
X0.2467Y-2.8801
X0.2467Y-2.9801
X0.2467Y-3.0801
X0.2467Y-3.1801
X0.2467Y-3.2801
X0.2467Y-3.3801
X0.2467Y-3.4801
X0.2467Y-3.5801
X0.2963Y-0.0693
X0.2974Y-3.8638
X0.6833Y-0.0689
X0.6844Y-3.8657
X0.6854Y-0.6442
X0.6854Y-1.8853
X0.6854Y-3.1265
X0.7833Y-0.0689
X0.7839Y-0.6442
X0.7839Y-1.8853
X0.7839Y-3.1265
X0.7844Y-3.8657
X0.8823Y-0.6442
X0.8823Y-1.8853
X0.8823Y-3.1265
X0.8833Y-0.0689
X0.8844Y-3.8657
T6
X0.0787Y-1.2992
X0.0787Y-2.5591
X0.315Y-1.2992
X0.315Y-2.5591
X0.6657Y-1.2992
X0.6657Y-2.5591
X0.902Y-1.2992
X0.902Y-2.5591
T7
X1.3616Y-0.9997
X1.3616Y-2.2406
X1.3616Y-3.4815
T8
X1.3616Y-0.3535
X1.3616Y-1.5947
X1.3616Y-2.8358
T2
G00X0.7642Y-0.8014
M15
G01X0.8035Y-0.8014
M16
G05
G00X0.7642Y-2.0423
M15
G01X0.8035Y-2.0423
M16
G05
G00X0.7642Y-3.2832
M15
G01X0.8035Y-3.2832
M16
G05
T3
G00X0.7661Y-1.1281
M15
G01X0.8016Y-1.1281
M16
G05
G00X0.7701Y-1.2502
M15
G01X0.7976Y-1.2502
M16
G05
G00X0.7661Y-2.3691
M15
G01X0.8016Y-2.3691
M16
G05
G00X0.7701Y-2.4911
M15
G01X0.7976Y-2.4911
M16
G05
G00X0.7661Y-3.61
M15
G01X0.8016Y-3.61
M16
G05
G00X0.7701Y-3.732
M15
G01X0.7976Y-3.732
M16
G05
T5
G00X0.5949Y-0.3627
M15
G01X0.5949Y-0.3351
M16
G05
G00X0.5949Y-1.6038
M15
G01X0.5949Y-1.5763
M16
G05
G00X0.5949Y-2.845
M15
G01X0.5949Y-2.8174
M16
G05
G00X0.9728Y-0.3627
M15
G01X0.9728Y-0.3351
M16
G05
G00X0.9728Y-1.6038
M15
G01X0.9728Y-1.5763
M16
G05
G00X0.9728Y-2.845
M15
G01X0.9728Y-2.8174
M16
G05
T0
M30
