%TF.GenerationSoftware,KiCad,Pcbnew,(6.0.0)*%
%TF.CreationDate,2022-02-24T10:47:42+08:00*%
%TF.ProjectId,LedController 2HP sandwich,4c656443-6f6e-4747-926f-6c6c65722032,rev?*%
%TF.SameCoordinates,Original*%
%TF.FileFunction,Soldermask,Bot*%
%TF.FilePolarity,Negative*%
%FSLAX46Y46*%
G04 Gerber Fmt 4.6, Leading zero omitted, Abs format (unit mm)*
G04 Created by KiCad (PCBNEW (6.0.0)) date 2022-02-24 10:47:42*
%MOMM*%
%LPD*%
G01*
G04 APERTURE LIST*
G04 Aperture macros list*
%AMRoundRect*
0 Rectangle with rounded corners*
0 $1 Rounding radius*
0 $2 $3 $4 $5 $6 $7 $8 $9 X,Y pos of 4 corners*
0 Add a 4 corners polygon primitive as box body*
4,1,4,$2,$3,$4,$5,$6,$7,$8,$9,$2,$3,0*
0 Add four circle primitives for the rounded corners*
1,1,$1+$1,$2,$3*
1,1,$1+$1,$4,$5*
1,1,$1+$1,$6,$7*
1,1,$1+$1,$8,$9*
0 Add four rect primitives between the rounded corners*
20,1,$1+$1,$2,$3,$4,$5,0*
20,1,$1+$1,$4,$5,$6,$7,0*
20,1,$1+$1,$6,$7,$8,$9,0*
20,1,$1+$1,$8,$9,$2,$3,0*%
G04 Aperture macros list end*
%ADD10O,2.720000X3.240000*%
%ADD11R,1.800000X1.800000*%
%ADD12C,1.800000*%
%ADD13R,2.200000X1.500000*%
%ADD14O,2.500000X1.400000*%
%ADD15O,2.400000X1.500000*%
%ADD16R,1.700000X1.700000*%
%ADD17O,1.700000X1.700000*%
%ADD18C,8.000000*%
%ADD19C,7.612000*%
%ADD20C,3.500000*%
%ADD21RoundRect,0.250000X-0.312500X-0.625000X0.312500X-0.625000X0.312500X0.625000X-0.312500X0.625000X0*%
G04 APERTURE END LIST*
D10*
%TO.C,RV2*%
X15110000Y-40387185D03*
X24710000Y-40387185D03*
D11*
X17410000Y-47887185D03*
D12*
X19910000Y-47887185D03*
X22410000Y-47887185D03*
%TD*%
D10*
%TO.C,RV3*%
X15110000Y-8862463D03*
X24710000Y-8862463D03*
D11*
X17410000Y-16362463D03*
D12*
X19910000Y-16362463D03*
X22410000Y-16362463D03*
%TD*%
D13*
%TO.C,J1*%
X19910000Y-94793050D03*
D14*
X19910000Y-83393050D03*
D15*
X19910000Y-91693050D03*
%TD*%
D13*
%TO.C,J2*%
X19910000Y-63274016D03*
D14*
X19910000Y-51874016D03*
D15*
X19910000Y-60174016D03*
%TD*%
D13*
%TO.C,J3*%
X19910000Y-31754983D03*
D14*
X19910000Y-20354983D03*
D15*
X19910000Y-28654983D03*
%TD*%
D10*
%TO.C,RV1*%
X15110000Y-71911907D03*
X24710000Y-71911907D03*
D11*
X17410000Y-79411907D03*
D12*
X19910000Y-79411907D03*
X22410000Y-79411907D03*
%TD*%
D16*
%TO.C,REF\u002A\u002A*%
X7525000Y-1760000D03*
D17*
X4985000Y-1760000D03*
X2445000Y-1760000D03*
%TD*%
D18*
%TO.C,*%
X34584447Y-25392520D03*
%TD*%
%TO.C,*%
X34584447Y-88430587D03*
%TD*%
D16*
%TO.C,REF\u002A\u002A*%
X2475000Y-98140000D03*
D17*
X5015000Y-98140000D03*
X7555000Y-98140000D03*
%TD*%
D19*
%TO.C,*%
X34584447Y-72029444D03*
%TD*%
D20*
%TO.C,U$1*%
X36992500Y11362500D03*
X36992500Y-111137500D03*
%TD*%
D19*
%TO.C,*%
X34584447Y-8980000D03*
%TD*%
D18*
%TO.C,*%
X34584447Y-56911553D03*
%TD*%
D19*
%TO.C,*%
X34584447Y-40504722D03*
%TD*%
D21*
%TO.C,R1*%
X18437500Y-76790000D03*
X21362500Y-76790000D03*
%TD*%
%TO.C,R2*%
X18447500Y-45239145D03*
X21372500Y-45239145D03*
%TD*%
%TO.C,R3*%
X18447500Y-13733363D03*
X21372500Y-13733363D03*
%TD*%
D16*
%TO.C,J4*%
X3725000Y-90935000D03*
D17*
X6265000Y-90935000D03*
X3725000Y-88395000D03*
X6265000Y-88395000D03*
X3725000Y-85855000D03*
X6265000Y-85855000D03*
X3725000Y-83315000D03*
X6265000Y-83315000D03*
X3725000Y-80775000D03*
X6265000Y-80775000D03*
X3725000Y-78235000D03*
X6265000Y-78235000D03*
X3725000Y-75695000D03*
X6265000Y-75695000D03*
X3725000Y-73155000D03*
X6265000Y-73155000D03*
%TD*%
D16*
%TO.C,J5*%
X5000000Y-10750000D03*
D17*
X5000000Y-13290000D03*
X5000000Y-15830000D03*
X5000000Y-18370000D03*
%TD*%
D16*
%TO.C,REF\u002A\u002A*%
X22435000Y-1750000D03*
D17*
X19895000Y-1750000D03*
X17355000Y-1750000D03*
%TD*%
D16*
%TO.C,REF\u002A\u002A*%
X17385000Y-98190000D03*
D17*
X19925000Y-98190000D03*
X22465000Y-98190000D03*
%TD*%
M02*
