%TF.GenerationSoftware,KiCad,Pcbnew,(6.0.0)*%
%TF.CreationDate,2022-02-24T10:47:42+08:00*%
%TF.ProjectId,LedController 2HP sandwich,4c656443-6f6e-4747-926f-6c6c65722032,rev?*%
%TF.SameCoordinates,Original*%
%TF.FileFunction,Copper,L1,Top*%
%TF.FilePolarity,Positive*%
%FSLAX46Y46*%
G04 Gerber Fmt 4.6, Leading zero omitted, Abs format (unit mm)*
G04 Created by KiCad (PCBNEW (6.0.0)) date 2022-02-24 10:47:42*
%MOMM*%
%LPD*%
G01*
G04 APERTURE LIST*
G04 Aperture macros list*
%AMRoundRect*
0 Rectangle with rounded corners*
0 $1 Rounding radius*
0 $2 $3 $4 $5 $6 $7 $8 $9 X,Y pos of 4 corners*
0 Add a 4 corners polygon primitive as box body*
4,1,4,$2,$3,$4,$5,$6,$7,$8,$9,$2,$3,0*
0 Add four circle primitives for the rounded corners*
1,1,$1+$1,$2,$3*
1,1,$1+$1,$4,$5*
1,1,$1+$1,$6,$7*
1,1,$1+$1,$8,$9*
0 Add four rect primitives between the rounded corners*
20,1,$1+$1,$2,$3,$4,$5,0*
20,1,$1+$1,$4,$5,$6,$7,0*
20,1,$1+$1,$6,$7,$8,$9,0*
20,1,$1+$1,$8,$9,$2,$3,0*%
G04 Aperture macros list end*
%ADD10C,0.500000*%
%TA.AperFunction,NonConductor*%
%ADD11C,0.500000*%
%TD*%
%TA.AperFunction,SMDPad,CuDef*%
%ADD12RoundRect,0.250000X0.312500X0.625000X-0.312500X0.625000X-0.312500X-0.625000X0.312500X-0.625000X0*%
%TD*%
%TA.AperFunction,SMDPad,CuDef*%
%ADD13RoundRect,0.250000X-0.312500X-0.625000X0.312500X-0.625000X0.312500X0.625000X-0.312500X0.625000X0*%
%TD*%
%TA.AperFunction,ComponentPad*%
%ADD14O,2.720000X3.240000*%
%TD*%
%TA.AperFunction,ComponentPad*%
%ADD15R,1.800000X1.800000*%
%TD*%
%TA.AperFunction,ComponentPad*%
%ADD16C,1.800000*%
%TD*%
%TA.AperFunction,SMDPad,CuDef*%
%ADD17RoundRect,0.150000X0.150000X-0.825000X0.150000X0.825000X-0.150000X0.825000X-0.150000X-0.825000X0*%
%TD*%
%TA.AperFunction,ComponentPad*%
%ADD18R,2.200000X1.500000*%
%TD*%
%TA.AperFunction,ComponentPad*%
%ADD19O,2.500000X1.400000*%
%TD*%
%TA.AperFunction,ComponentPad*%
%ADD20O,2.400000X1.500000*%
%TD*%
%TA.AperFunction,ComponentPad*%
%ADD21R,1.700000X1.700000*%
%TD*%
%TA.AperFunction,ComponentPad*%
%ADD22O,1.700000X1.700000*%
%TD*%
%TA.AperFunction,ComponentPad*%
%ADD23C,8.000000*%
%TD*%
%TA.AperFunction,ComponentPad*%
%ADD24C,7.612000*%
%TD*%
%TA.AperFunction,WasherPad*%
%ADD25C,3.500000*%
%TD*%
%TA.AperFunction,ViaPad*%
%ADD26C,0.800000*%
%TD*%
%TA.AperFunction,ViaPad*%
%ADD27C,2.300000*%
%TD*%
%TA.AperFunction,Conductor*%
%ADD28C,0.250000*%
%TD*%
G04 APERTURE END LIST*
D10*
D11*
X32164285Y-49080663D02*
X31878571Y-48937805D01*
X31450000Y-48937805D01*
X31021428Y-49080663D01*
X30735714Y-49366377D01*
X30592857Y-49652091D01*
X30450000Y-50223520D01*
X30450000Y-50652091D01*
X30592857Y-51223520D01*
X30735714Y-51509234D01*
X31021428Y-51794948D01*
X31450000Y-51937805D01*
X31735714Y-51937805D01*
X32164285Y-51794948D01*
X32307142Y-51652091D01*
X32307142Y-50652091D01*
X31735714Y-50652091D01*
X35307142Y-51937805D02*
X34307142Y-50509234D01*
X33592857Y-51937805D02*
X33592857Y-48937805D01*
X34735714Y-48937805D01*
X35021428Y-49080663D01*
X35164285Y-49223520D01*
X35307142Y-49509234D01*
X35307142Y-49937805D01*
X35164285Y-50223520D01*
X35021428Y-50366377D01*
X34735714Y-50509234D01*
X33592857Y-50509234D01*
X36592857Y-51937805D02*
X36592857Y-48937805D01*
X38307142Y-51937805D01*
X38307142Y-48937805D01*
D10*
D11*
X32521428Y-20384476D02*
X31521428Y-18955905D01*
X30807142Y-20384476D02*
X30807142Y-17384476D01*
X31950000Y-17384476D01*
X32235714Y-17527334D01*
X32378571Y-17670191D01*
X32521428Y-17955905D01*
X32521428Y-18384476D01*
X32378571Y-18670191D01*
X32235714Y-18813048D01*
X31950000Y-18955905D01*
X30807142Y-18955905D01*
X33807142Y-18813048D02*
X34807142Y-18813048D01*
X35235714Y-20384476D02*
X33807142Y-20384476D01*
X33807142Y-17384476D01*
X35235714Y-17384476D01*
X36521428Y-20384476D02*
X36521428Y-17384476D01*
X37235714Y-17384476D01*
X37664285Y-17527334D01*
X37950000Y-17813048D01*
X38092857Y-18098762D01*
X38235714Y-18670191D01*
X38235714Y-19098762D01*
X38092857Y-19670191D01*
X37950000Y-19955905D01*
X37664285Y-20241619D01*
X37235714Y-20384476D01*
X36521428Y-20384476D01*
D10*
D11*
X31878571Y-81942149D02*
X32307142Y-82085006D01*
X32450000Y-82227863D01*
X32592857Y-82513577D01*
X32592857Y-82942149D01*
X32450000Y-83227863D01*
X32307142Y-83370720D01*
X32021428Y-83513577D01*
X30878571Y-83513577D01*
X30878571Y-80513577D01*
X31878571Y-80513577D01*
X32164285Y-80656435D01*
X32307142Y-80799292D01*
X32450000Y-81085006D01*
X32450000Y-81370720D01*
X32307142Y-81656435D01*
X32164285Y-81799292D01*
X31878571Y-81942149D01*
X30878571Y-81942149D01*
X35307142Y-83513577D02*
X33878571Y-83513577D01*
X33878571Y-80513577D01*
X36307142Y-80513577D02*
X36307142Y-82942149D01*
X36450000Y-83227863D01*
X36592857Y-83370720D01*
X36878571Y-83513577D01*
X37450000Y-83513577D01*
X37735714Y-83370720D01*
X37878571Y-83227863D01*
X38021428Y-82942149D01*
X38021428Y-80513577D01*
D12*
%TO.P,R4,1*%
%TO.N,Net-(R1-Pad1)*%
X4012020Y-55854097D03*
%TO.P,R4,2*%
%TO.N,Net-(J5-Pad1)*%
X1087020Y-55854097D03*
%TD*%
D13*
%TO.P,R5,1*%
%TO.N,Net-(R2-Pad1)*%
X6077020Y-55824097D03*
%TO.P,R5,2*%
%TO.N,Net-(J5-Pad2)*%
X9002020Y-55824097D03*
%TD*%
%TO.P,R6,1*%
%TO.N,Net-(R3-Pad1)*%
X5697500Y-43720000D03*
%TO.P,R6,2*%
%TO.N,Net-(J5-Pad3)*%
X8622500Y-43720000D03*
%TD*%
D14*
%TO.P,RV2,*%
%TO.N,*%
X15110000Y-40387185D03*
X24710000Y-40387185D03*
D15*
%TO.P,RV2,1,1*%
%TO.N,GND*%
X17410000Y-47887185D03*
D16*
%TO.P,RV2,2,2*%
%TO.N,Net-(R2-Pad2)*%
X19910000Y-47887185D03*
%TO.P,RV2,3,3*%
%TO.N,Net-(J2-PadT)*%
X22410000Y-47887185D03*
%TD*%
D14*
%TO.P,RV3,*%
%TO.N,*%
X15110000Y-8862463D03*
X24710000Y-8862463D03*
D15*
%TO.P,RV3,1,1*%
%TO.N,GND*%
X17410000Y-16362463D03*
D16*
%TO.P,RV3,2,2*%
%TO.N,Net-(R3-Pad2)*%
X19910000Y-16362463D03*
%TO.P,RV3,3,3*%
%TO.N,Net-(J3-PadT)*%
X22410000Y-16362463D03*
%TD*%
D17*
%TO.P,U1,1*%
%TO.N,Net-(J5-Pad1)*%
X1190000Y-52184097D03*
%TO.P,U1,2,-*%
%TO.N,Net-(R1-Pad1)*%
X2460000Y-52184097D03*
%TO.P,U1,3,+*%
%TO.N,+5V*%
X3730000Y-52184097D03*
%TO.P,U1,4,V+*%
%TO.N,+12V*%
X5000000Y-52184097D03*
%TO.P,U1,5,+*%
%TO.N,+5V*%
X6270000Y-52184097D03*
%TO.P,U1,6,-*%
%TO.N,Net-(R2-Pad1)*%
X7540000Y-52184097D03*
%TO.P,U1,7*%
%TO.N,Net-(J5-Pad2)*%
X8810000Y-52184097D03*
%TO.P,U1,8*%
%TO.N,Net-(J5-Pad3)*%
X8810000Y-47234097D03*
%TO.P,U1,9,-*%
%TO.N,Net-(R3-Pad1)*%
X7540000Y-47234097D03*
%TO.P,U1,10,+*%
%TO.N,+5V*%
X6270000Y-47234097D03*
%TO.P,U1,11,V-*%
%TO.N,-12V*%
X5000000Y-47234097D03*
%TO.P,U1,12*%
%TO.N,N/C*%
X3730000Y-47234097D03*
%TO.P,U1,13*%
X2460000Y-47234097D03*
%TO.P,U1,14*%
X1190000Y-47234097D03*
%TD*%
D18*
%TO.P,J1,S*%
%TO.N,GND*%
X19910000Y-94793050D03*
D19*
%TO.P,J1,T*%
%TO.N,Net-(J1-PadT)*%
X19910000Y-83393050D03*
D20*
%TO.P,J1,TN*%
%TO.N,Net-(J3-PadT)*%
X19910000Y-91693050D03*
%TD*%
D18*
%TO.P,J2,S*%
%TO.N,GND*%
X19910000Y-63274016D03*
D19*
%TO.P,J2,T*%
%TO.N,Net-(J2-PadT)*%
X19910000Y-51874016D03*
D20*
%TO.P,J2,TN*%
%TO.N,Net-(J1-PadT)*%
X19910000Y-60174016D03*
%TD*%
D18*
%TO.P,J3,S*%
%TO.N,GND*%
X19910000Y-31754983D03*
D19*
%TO.P,J3,T*%
%TO.N,Net-(J3-PadT)*%
X19910000Y-20354983D03*
D20*
%TO.P,J3,TN*%
%TO.N,Net-(J2-PadT)*%
X19910000Y-28654983D03*
%TD*%
D14*
%TO.P,RV1,*%
%TO.N,*%
X15110000Y-71911907D03*
X24710000Y-71911907D03*
D15*
%TO.P,RV1,1,1*%
%TO.N,GND*%
X17410000Y-79411907D03*
D16*
%TO.P,RV1,2,2*%
%TO.N,Net-(R1-Pad2)*%
X19910000Y-79411907D03*
%TO.P,RV1,3,3*%
%TO.N,Net-(J1-PadT)*%
X22410000Y-79411907D03*
%TD*%
D21*
%TO.P,REF\u002A\u002A,1*%
%TO.N,N/C*%
X7525000Y-1760000D03*
D22*
%TO.P,REF\u002A\u002A,2*%
%TO.N,GND*%
X4985000Y-1760000D03*
%TO.P,REF\u002A\u002A,3*%
%TO.N,Net-(R3-Pad1)*%
X2445000Y-1760000D03*
%TD*%
D23*
%TO.P,,1*%
%TO.N,N/C*%
X34584447Y-25392520D03*
%TD*%
%TO.P,,1*%
%TO.N,N/C*%
X34584447Y-88430587D03*
%TD*%
D21*
%TO.P,REF\u002A\u002A,1*%
%TO.N,Net-(R1-Pad1)*%
X2475000Y-98140000D03*
D22*
%TO.P,REF\u002A\u002A,2*%
%TO.N,GND*%
X5015000Y-98140000D03*
%TO.P,REF\u002A\u002A,3*%
%TO.N,Net-(R2-Pad1)*%
X7555000Y-98140000D03*
%TD*%
D24*
%TO.P,,alps pot*%
%TO.N,N/C*%
X34584447Y-72029444D03*
%TD*%
D25*
%TO.P,U$1,*%
%TO.N,*%
X36992500Y11362500D03*
X36992500Y-111137500D03*
%TD*%
D24*
%TO.P,,alps pot*%
%TO.N,N/C*%
X34584447Y-8980000D03*
%TD*%
D23*
%TO.P,,1*%
%TO.N,N/C*%
X34584447Y-56911553D03*
%TD*%
D24*
%TO.P,,alps pot*%
%TO.N,N/C*%
X34584447Y-40504722D03*
%TD*%
D21*
%TO.P,J4,1,Pin_1*%
%TO.N,-12V*%
X3725000Y-90935000D03*
D22*
%TO.P,J4,2,Pin_2*%
X6265000Y-90935000D03*
%TO.P,J4,3,Pin_3*%
%TO.N,GND*%
X3725000Y-88395000D03*
%TO.P,J4,4,Pin_4*%
X6265000Y-88395000D03*
%TO.P,J4,5,Pin_5*%
X3725000Y-85855000D03*
%TO.P,J4,6,Pin_6*%
X6265000Y-85855000D03*
%TO.P,J4,7,Pin_7*%
X3725000Y-83315000D03*
%TO.P,J4,8,Pin_8*%
X6265000Y-83315000D03*
%TO.P,J4,9,Pin_9*%
%TO.N,+12V*%
X3725000Y-80775000D03*
%TO.P,J4,10,Pin_10*%
X6265000Y-80775000D03*
%TO.P,J4,11,Pin_11*%
%TO.N,+5V*%
X3725000Y-78235000D03*
%TO.P,J4,12,Pin_12*%
X6265000Y-78235000D03*
%TO.P,J4,13,Pin_13*%
%TO.N,unconnected-(J4-Pad13)*%
X3725000Y-75695000D03*
%TO.P,J4,14,Pin_14*%
%TO.N,unconnected-(J4-Pad14)*%
X6265000Y-75695000D03*
%TO.P,J4,15,Pin_15*%
%TO.N,unconnected-(J4-Pad15)*%
X3725000Y-73155000D03*
%TO.P,J4,16,Pin_16*%
%TO.N,unconnected-(J4-Pad16)*%
X6265000Y-73155000D03*
%TD*%
D21*
%TO.P,J5,1,Pin_1*%
%TO.N,Net-(J5-Pad1)*%
X5000000Y-10750000D03*
D22*
%TO.P,J5,2,Pin_2*%
%TO.N,Net-(J5-Pad2)*%
X5000000Y-13290000D03*
%TO.P,J5,3,Pin_3*%
%TO.N,Net-(J5-Pad3)*%
X5000000Y-15830000D03*
%TO.P,J5,4,Pin_4*%
%TO.N,+12V*%
X5000000Y-18370000D03*
%TD*%
D21*
%TO.P,REF\u002A\u002A,1*%
%TO.N,N/C*%
X22435000Y-1750000D03*
D22*
%TO.P,REF\u002A\u002A,2*%
%TO.N,GND*%
X19895000Y-1750000D03*
%TO.P,REF\u002A\u002A,3*%
%TO.N,Net-(R3-Pad1)*%
X17355000Y-1750000D03*
%TD*%
D21*
%TO.P,REF\u002A\u002A,1*%
%TO.N,Net-(R1-Pad1)*%
X17385000Y-98190000D03*
D22*
%TO.P,REF\u002A\u002A,2*%
%TO.N,GND*%
X19925000Y-98190000D03*
%TO.P,REF\u002A\u002A,3*%
%TO.N,Net-(R2-Pad1)*%
X22465000Y-98190000D03*
%TD*%
D26*
%TO.N,Net-(R3-Pad1)*%
X5304500Y-21270000D03*
D27*
%TO.N,GND*%
X2000000Y-65000000D03*
X2000000Y-33000000D03*
X16910000Y-33000000D03*
X8000000Y-33000000D03*
X22910000Y-33000000D03*
X22910000Y-65000000D03*
X16910000Y-65000000D03*
X8000000Y-65000000D03*
D26*
%TO.N,+12V*%
X4990000Y-50600000D03*
%TO.N,Net-(J5-Pad3)*%
X8720000Y-16100000D03*
%TO.N,-12V*%
X4750000Y-48800000D03*
%TD*%
D28*
%TO.N,Net-(R1-Pad1)*%
X1330000Y-72100000D02*
X1330000Y-96995000D01*
X4012020Y-55854097D02*
X2479520Y-54321597D01*
X1330000Y-96995000D02*
X2475000Y-98140000D01*
X2479520Y-54321597D02*
X2479520Y-52184097D01*
X4170000Y-69260000D02*
X1330000Y-72100000D01*
X4012020Y-55854097D02*
X4170000Y-56012077D01*
X4170000Y-56012077D02*
X4170000Y-69260000D01*
%TO.N,Net-(R2-Pad1)*%
X6077020Y-55824097D02*
X6077020Y-69027020D01*
X6077020Y-69027020D02*
X8510000Y-71460000D01*
X7559520Y-54341597D02*
X7559520Y-52184097D01*
X8510000Y-71460000D02*
X8510000Y-97185000D01*
X6077020Y-55824097D02*
X7559520Y-54341597D01*
X8510000Y-97185000D02*
X7555000Y-98140000D01*
%TO.N,Net-(R3-Pad1)*%
X5304500Y-21270000D02*
X5029520Y-21544980D01*
X7540000Y-46858025D02*
X5697500Y-45015525D01*
X5697500Y-45015525D02*
X5697500Y-43720000D01*
X5029520Y-43052020D02*
X5697500Y-43720000D01*
X7540000Y-47234097D02*
X7540000Y-46858025D01*
X5029520Y-21544980D02*
X5029520Y-43052020D01*
%TO.N,Net-(J1-PadT)*%
X21334511Y-78336418D02*
X22410000Y-79411907D01*
X19910000Y-60174016D02*
X21334511Y-61598527D01*
X21334511Y-61598527D02*
X21334511Y-78336418D01*
%TO.N,Net-(J2-PadT)*%
X21435489Y-30180472D02*
X21435489Y-46912674D01*
X21435489Y-46912674D02*
X22410000Y-47887185D01*
X19910000Y-28654983D02*
X21435489Y-30180472D01*
%TO.N,Net-(J3-PadT)*%
X21484520Y-82968680D02*
X18634511Y-80118671D01*
X18634511Y-64348527D02*
X18150000Y-63864016D01*
X18660000Y-33590000D02*
X18385480Y-33315480D01*
X18634511Y-80118671D02*
X18634511Y-64348527D01*
X18385480Y-33315480D02*
X18385480Y-21879503D01*
X18660000Y-49086207D02*
X18660000Y-33590000D01*
X19910000Y-91693050D02*
X21484520Y-90118530D01*
X18150000Y-49596207D02*
X18660000Y-49086207D01*
X18385480Y-21879503D02*
X19910000Y-20354983D01*
X18150000Y-63864016D02*
X18150000Y-49596207D01*
X21484520Y-90118530D02*
X21484520Y-82968680D01*
%TO.N,+5V*%
X5346552Y-53483617D02*
X5029520Y-53483617D01*
X3749520Y-52184097D02*
X3749520Y-52869520D01*
X6270000Y-52184097D02*
X6270000Y-52560169D01*
X4653448Y-53483617D02*
X3730000Y-52560169D01*
X3730000Y-52560169D02*
X3730000Y-52184097D01*
X5090489Y-77060489D02*
X5090489Y-53544586D01*
X6289520Y-52864097D02*
X6289520Y-47234097D01*
X5029520Y-53483617D02*
X4653448Y-53483617D01*
X6265000Y-78235000D02*
X5090489Y-77060489D01*
X5090489Y-53544586D02*
X5029520Y-53483617D01*
X6270000Y-52560169D02*
X5346552Y-53483617D01*
%TO.N,+12V*%
X4990000Y-50600000D02*
X5000000Y-50610000D01*
X5000000Y-50610000D02*
X5000000Y-52184097D01*
X4580000Y-45168025D02*
X5624520Y-46212545D01*
X4580000Y-18790000D02*
X4580000Y-45168025D01*
X5624520Y-49965480D02*
X4990000Y-50600000D01*
X5000000Y-18370000D02*
X4580000Y-18790000D01*
X5624520Y-46212545D02*
X5624520Y-49965480D01*
%TO.N,Net-(J5-Pad3)*%
X7659520Y-42583802D02*
X5928560Y-40852842D01*
X6914031Y-22015969D02*
X6914031Y-17905969D01*
X5928560Y-23001440D02*
X6914031Y-22015969D01*
X8810000Y-47234097D02*
X8810000Y-43907500D01*
X5928560Y-40852842D02*
X5928560Y-23001440D01*
X8810000Y-43907500D02*
X8622500Y-43720000D01*
X7659520Y-42757020D02*
X7659520Y-42583802D01*
X8622500Y-43720000D02*
X7659520Y-42757020D01*
X6914031Y-17905969D02*
X8720000Y-16100000D01*
%TO.N,Net-(J5-Pad2)*%
X7210000Y-42770000D02*
X5479040Y-41039039D01*
X9002020Y-52356597D02*
X8829520Y-52184097D01*
X9002020Y-55824097D02*
X9002020Y-52356597D01*
X8164520Y-51538617D02*
X8164520Y-46212545D01*
X8164520Y-46212545D02*
X7210000Y-45258025D01*
X5479040Y-22815242D02*
X6464511Y-21829771D01*
X6464511Y-14754511D02*
X5000000Y-13290000D01*
X8810000Y-52184097D02*
X8164520Y-51538617D01*
X6464511Y-21829771D02*
X6464511Y-14754511D01*
X5479040Y-41039039D02*
X5479040Y-22815242D01*
X7210000Y-45258025D02*
X7210000Y-42770000D01*
%TO.N,Net-(J5-Pad1)*%
X3105480Y-42114520D02*
X4120000Y-41100000D01*
X4120000Y-41100000D02*
X4120000Y-23020000D01*
X3210000Y-22110000D02*
X3210000Y-12540000D01*
X3105480Y-48504520D02*
X3105480Y-42114520D01*
X1087020Y-55854097D02*
X1087020Y-52287077D01*
X4120000Y-23020000D02*
X3210000Y-22110000D01*
X1087020Y-52287077D02*
X1190000Y-52184097D01*
X3210000Y-12540000D02*
X5000000Y-10750000D01*
X1190000Y-52184097D02*
X1190000Y-50420000D01*
X1190000Y-50420000D02*
X3105480Y-48504520D01*
%TO.N,-12V*%
X4750000Y-48800000D02*
X5000000Y-48550000D01*
X5000000Y-48550000D02*
X5000000Y-47234097D01*
%TD*%
%TA.AperFunction,Conductor*%
%TO.N,GND*%
G36*
X7849052Y-55052135D02*
G01*
X7905888Y-55094682D01*
X7930699Y-55161202D01*
X7931020Y-55170191D01*
X7931020Y-56499497D01*
X7931357Y-56502743D01*
X7931357Y-56502747D01*
X7934465Y-56532695D01*
X7941994Y-56605263D01*
X7997970Y-56773043D01*
X8091042Y-56923445D01*
X8096224Y-56928618D01*
X8121094Y-56953445D01*
X8216217Y-57048402D01*
X8366782Y-57141212D01*
X8376849Y-57144551D01*
X8528131Y-57194729D01*
X8528133Y-57194729D01*
X8534659Y-57196894D01*
X8541495Y-57197594D01*
X8541498Y-57197595D01*
X8584551Y-57202006D01*
X8639120Y-57207597D01*
X9364920Y-57207597D01*
X9364920Y-57209007D01*
X9428541Y-57224158D01*
X9477749Y-57275334D01*
X9492000Y-57333541D01*
X9492000Y-99366000D01*
X9471998Y-99434121D01*
X9418342Y-99480614D01*
X9366000Y-99492000D01*
X8392720Y-99492000D01*
X8324599Y-99471998D01*
X8278106Y-99418342D01*
X8268002Y-99348068D01*
X8297496Y-99283488D01*
X8319552Y-99263421D01*
X8346938Y-99243887D01*
X8434860Y-99181173D01*
X8593096Y-99023489D01*
X8723453Y-98842077D01*
X8736995Y-98814678D01*
X8820136Y-98646453D01*
X8820137Y-98646451D01*
X8822430Y-98641811D01*
X8887370Y-98428069D01*
X8916529Y-98206590D01*
X8918156Y-98140000D01*
X8899852Y-97917361D01*
X8871917Y-97806148D01*
X8874721Y-97735208D01*
X8912988Y-97679558D01*
X8917018Y-97677000D01*
X8963644Y-97627348D01*
X8966398Y-97624507D01*
X8986135Y-97604770D01*
X8988615Y-97601573D01*
X8996320Y-97592551D01*
X9021159Y-97566100D01*
X9026586Y-97560321D01*
X9030405Y-97553375D01*
X9030407Y-97553372D01*
X9036348Y-97542566D01*
X9047199Y-97526047D01*
X9054758Y-97516301D01*
X9059614Y-97510041D01*
X9062759Y-97502772D01*
X9062762Y-97502768D01*
X9077174Y-97469463D01*
X9082391Y-97458813D01*
X9103695Y-97420060D01*
X9108733Y-97400437D01*
X9115137Y-97381734D01*
X9120033Y-97370420D01*
X9120033Y-97370419D01*
X9123181Y-97363145D01*
X9124420Y-97355322D01*
X9124423Y-97355312D01*
X9130099Y-97319476D01*
X9132505Y-97307856D01*
X9141528Y-97272711D01*
X9141528Y-97272710D01*
X9143500Y-97265030D01*
X9143500Y-97244776D01*
X9145051Y-97225065D01*
X9146980Y-97212886D01*
X9148220Y-97205057D01*
X9144059Y-97161038D01*
X9143500Y-97149181D01*
X9143500Y-71538767D01*
X9144027Y-71527584D01*
X9145702Y-71520091D01*
X9143562Y-71452014D01*
X9143500Y-71448055D01*
X9143500Y-71420144D01*
X9142995Y-71416144D01*
X9142062Y-71404301D01*
X9140922Y-71368029D01*
X9140673Y-71360110D01*
X9135022Y-71340658D01*
X9131014Y-71321306D01*
X9129467Y-71309063D01*
X9128474Y-71301203D01*
X9125556Y-71293832D01*
X9112200Y-71260097D01*
X9108355Y-71248870D01*
X9107721Y-71246687D01*
X9096018Y-71206407D01*
X9091984Y-71199585D01*
X9091981Y-71199579D01*
X9085706Y-71188968D01*
X9077010Y-71171218D01*
X9072472Y-71159756D01*
X9072469Y-71159751D01*
X9069552Y-71152383D01*
X9043573Y-71116625D01*
X9037057Y-71106707D01*
X9018575Y-71075457D01*
X9014542Y-71068637D01*
X9000218Y-71054313D01*
X8987376Y-71039278D01*
X8975472Y-71022893D01*
X8941406Y-70994711D01*
X8932627Y-70986722D01*
X6747425Y-68801520D01*
X6713399Y-68739208D01*
X6710520Y-68712425D01*
X6710520Y-57212672D01*
X6730522Y-57144551D01*
X6770217Y-57105528D01*
X6822409Y-57073231D01*
X6863868Y-57047575D01*
X6988825Y-56922400D01*
X7058558Y-56809273D01*
X7077795Y-56778065D01*
X7077796Y-56778063D01*
X7081635Y-56771835D01*
X7127367Y-56633958D01*
X7135152Y-56610486D01*
X7135152Y-56610484D01*
X7137317Y-56603958D01*
X7148020Y-56499497D01*
X7148020Y-55701191D01*
X7168022Y-55633070D01*
X7184925Y-55612096D01*
X7715925Y-55081096D01*
X7778237Y-55047070D01*
X7849052Y-55052135D01*
G37*
%TD.AperFunction*%
%TA.AperFunction,Conductor*%
G36*
X5932501Y-69778859D02*
G01*
X5939084Y-69784988D01*
X7839595Y-71685499D01*
X7873621Y-71747811D01*
X7876500Y-71774594D01*
X7876500Y-73105364D01*
X7856498Y-73173485D01*
X7852115Y-73177283D01*
X7874995Y-73225846D01*
X7876500Y-73245260D01*
X7876500Y-75645364D01*
X7856498Y-75713485D01*
X7852115Y-75717283D01*
X7874995Y-75765846D01*
X7876500Y-75785260D01*
X7876500Y-78185364D01*
X7856498Y-78253485D01*
X7852115Y-78257283D01*
X7874995Y-78305846D01*
X7876500Y-78325260D01*
X7876500Y-80725364D01*
X7856498Y-80793485D01*
X7852115Y-80797283D01*
X7874995Y-80845846D01*
X7876500Y-80865260D01*
X7876500Y-90885364D01*
X7856498Y-90953485D01*
X7852115Y-90957283D01*
X7874995Y-91005846D01*
X7876500Y-91025260D01*
X7876500Y-96666884D01*
X7856498Y-96735005D01*
X7802842Y-96781498D01*
X7728404Y-96790931D01*
X7688373Y-96783800D01*
X7688367Y-96783799D01*
X7683284Y-96782894D01*
X7609452Y-96781992D01*
X7465081Y-96780228D01*
X7465079Y-96780228D01*
X7459911Y-96780165D01*
X7239091Y-96813955D01*
X7026756Y-96883357D01*
X6828607Y-96986507D01*
X6824474Y-96989610D01*
X6824471Y-96989612D01*
X6654100Y-97117530D01*
X6649965Y-97120635D01*
X6495629Y-97282138D01*
X6492715Y-97286410D01*
X6492714Y-97286411D01*
X6453981Y-97343192D01*
X6409979Y-97407697D01*
X6387898Y-97440066D01*
X6332987Y-97485069D01*
X6262462Y-97493240D01*
X6198715Y-97461986D01*
X6178018Y-97437502D01*
X6097426Y-97312926D01*
X6091136Y-97304757D01*
X5947806Y-97147240D01*
X5940273Y-97140215D01*
X5773139Y-97008222D01*
X5764552Y-97002517D01*
X5578117Y-96899599D01*
X5568705Y-96895369D01*
X5367959Y-96824280D01*
X5357988Y-96821646D01*
X5286837Y-96808972D01*
X5273540Y-96810432D01*
X5269000Y-96824989D01*
X5269000Y-98268000D01*
X5248998Y-98336121D01*
X5195342Y-98382614D01*
X5143000Y-98394000D01*
X4887000Y-98394000D01*
X4818879Y-98373998D01*
X4772386Y-98320342D01*
X4761000Y-98268000D01*
X4761000Y-96823102D01*
X4757082Y-96809758D01*
X4742806Y-96807771D01*
X4704324Y-96813660D01*
X4694288Y-96816051D01*
X4491868Y-96882212D01*
X4482359Y-96886209D01*
X4293463Y-96984542D01*
X4284738Y-96990036D01*
X4114433Y-97117905D01*
X4106726Y-97124748D01*
X4029478Y-97205584D01*
X3967954Y-97241014D01*
X3897042Y-97237557D01*
X3839255Y-97196311D01*
X3820402Y-97162763D01*
X3778767Y-97051703D01*
X3775615Y-97043295D01*
X3688261Y-96926739D01*
X3571705Y-96839385D01*
X3435316Y-96788255D01*
X3373134Y-96781500D01*
X2089500Y-96781500D01*
X2021379Y-96761498D01*
X1974886Y-96707842D01*
X1963500Y-96655500D01*
X1963500Y-91833134D01*
X2366500Y-91833134D01*
X2373255Y-91895316D01*
X2424385Y-92031705D01*
X2511739Y-92148261D01*
X2628295Y-92235615D01*
X2764684Y-92286745D01*
X2826866Y-92293500D01*
X4623134Y-92293500D01*
X4685316Y-92286745D01*
X4821705Y-92235615D01*
X4938261Y-92148261D01*
X5025615Y-92031705D01*
X5047799Y-91972529D01*
X5069598Y-91914382D01*
X5112240Y-91857618D01*
X5178802Y-91832918D01*
X5248150Y-91848126D01*
X5282817Y-91876114D01*
X5311250Y-91908938D01*
X5483126Y-92051632D01*
X5676000Y-92164338D01*
X5884692Y-92244030D01*
X5889760Y-92245061D01*
X5889763Y-92245062D01*
X5997017Y-92266883D01*
X6103597Y-92288567D01*
X6108772Y-92288757D01*
X6108774Y-92288757D01*
X6321673Y-92296564D01*
X6321677Y-92296564D01*
X6326837Y-92296753D01*
X6331957Y-92296097D01*
X6331959Y-92296097D01*
X6543288Y-92269025D01*
X6543289Y-92269025D01*
X6548416Y-92268368D01*
X6553366Y-92266883D01*
X6757429Y-92205661D01*
X6757434Y-92205659D01*
X6762384Y-92204174D01*
X6962994Y-92105896D01*
X7144860Y-91976173D01*
X7303096Y-91818489D01*
X7433453Y-91637077D01*
X7532430Y-91436811D01*
X7597370Y-91223069D01*
X7625578Y-91008813D01*
X7650265Y-90953010D01*
X7629604Y-90920862D01*
X7624924Y-90895688D01*
X7610276Y-90717522D01*
X7609852Y-90712361D01*
X7555431Y-90495702D01*
X7466354Y-90290840D01*
X7345014Y-90103277D01*
X7194670Y-89938051D01*
X7190619Y-89934852D01*
X7190615Y-89934848D01*
X7023414Y-89802800D01*
X7023410Y-89802798D01*
X7019359Y-89799598D01*
X6977569Y-89776529D01*
X6927598Y-89726097D01*
X6912826Y-89656654D01*
X6937942Y-89590248D01*
X6965294Y-89563641D01*
X7140328Y-89438792D01*
X7148200Y-89432139D01*
X7299052Y-89281812D01*
X7305730Y-89273965D01*
X7430003Y-89101020D01*
X7435313Y-89092183D01*
X7529670Y-88901267D01*
X7533469Y-88891672D01*
X7595377Y-88687910D01*
X7597555Y-88677837D01*
X7598986Y-88666962D01*
X7596775Y-88652778D01*
X7583617Y-88649000D01*
X2408225Y-88649000D01*
X2394694Y-88652973D01*
X2393257Y-88662966D01*
X2423565Y-88797446D01*
X2426645Y-88807275D01*
X2506770Y-89004603D01*
X2511413Y-89013794D01*
X2622694Y-89195388D01*
X2628777Y-89203699D01*
X2768213Y-89364667D01*
X2775577Y-89371879D01*
X2780522Y-89375985D01*
X2820156Y-89434889D01*
X2821653Y-89505870D01*
X2784537Y-89566392D01*
X2744264Y-89590910D01*
X2636705Y-89631232D01*
X2636704Y-89631233D01*
X2628295Y-89634385D01*
X2511739Y-89721739D01*
X2424385Y-89838295D01*
X2373255Y-89974684D01*
X2366500Y-90036866D01*
X2366500Y-91833134D01*
X1963500Y-91833134D01*
X1963500Y-88129183D01*
X2389389Y-88129183D01*
X2390912Y-88137607D01*
X2403292Y-88141000D01*
X3452885Y-88141000D01*
X3468124Y-88136525D01*
X3469329Y-88135135D01*
X3471000Y-88127452D01*
X3471000Y-88122885D01*
X3979000Y-88122885D01*
X3983475Y-88138124D01*
X3984865Y-88139329D01*
X3992548Y-88141000D01*
X5992885Y-88141000D01*
X6008124Y-88136525D01*
X6009329Y-88135135D01*
X6011000Y-88127452D01*
X6011000Y-88122885D01*
X6519000Y-88122885D01*
X6523475Y-88138124D01*
X6524865Y-88139329D01*
X6532548Y-88141000D01*
X7583344Y-88141000D01*
X7596875Y-88137027D01*
X7598180Y-88127947D01*
X7556214Y-87960875D01*
X7552894Y-87951124D01*
X7467972Y-87755814D01*
X7463105Y-87746739D01*
X7347426Y-87567926D01*
X7341136Y-87559757D01*
X7197806Y-87402240D01*
X7190273Y-87395215D01*
X7023139Y-87263222D01*
X7014552Y-87257517D01*
X6977116Y-87236851D01*
X6927146Y-87186419D01*
X6912374Y-87116976D01*
X6937490Y-87050571D01*
X6964842Y-87023964D01*
X7140327Y-86898792D01*
X7148200Y-86892139D01*
X7299052Y-86741812D01*
X7305730Y-86733965D01*
X7430003Y-86561020D01*
X7435313Y-86552183D01*
X7529670Y-86361267D01*
X7533469Y-86351672D01*
X7595377Y-86147910D01*
X7597555Y-86137837D01*
X7598986Y-86126962D01*
X7596775Y-86112778D01*
X7583617Y-86109000D01*
X6537115Y-86109000D01*
X6521876Y-86113475D01*
X6520671Y-86114865D01*
X6519000Y-86122548D01*
X6519000Y-88122885D01*
X6011000Y-88122885D01*
X6011000Y-86127115D01*
X6006525Y-86111876D01*
X6005135Y-86110671D01*
X5997452Y-86109000D01*
X3997115Y-86109000D01*
X3981876Y-86113475D01*
X3980671Y-86114865D01*
X3979000Y-86122548D01*
X3979000Y-88122885D01*
X3471000Y-88122885D01*
X3471000Y-86127115D01*
X3466525Y-86111876D01*
X3465135Y-86110671D01*
X3457452Y-86109000D01*
X2408225Y-86109000D01*
X2394694Y-86112973D01*
X2393257Y-86122966D01*
X2423565Y-86257446D01*
X2426645Y-86267275D01*
X2506770Y-86464603D01*
X2511413Y-86473794D01*
X2622694Y-86655388D01*
X2628777Y-86663699D01*
X2768213Y-86824667D01*
X2775580Y-86831883D01*
X2939434Y-86967916D01*
X2947881Y-86973831D01*
X3017479Y-87014501D01*
X3066203Y-87066140D01*
X3079274Y-87135923D01*
X3052543Y-87201694D01*
X3012087Y-87235053D01*
X3003462Y-87239542D01*
X2994738Y-87245036D01*
X2824433Y-87372905D01*
X2816726Y-87379748D01*
X2669590Y-87533717D01*
X2663104Y-87541727D01*
X2543098Y-87717649D01*
X2538000Y-87726623D01*
X2448338Y-87919783D01*
X2444775Y-87929470D01*
X2389389Y-88129183D01*
X1963500Y-88129183D01*
X1963500Y-85589183D01*
X2389389Y-85589183D01*
X2390912Y-85597607D01*
X2403292Y-85601000D01*
X3452885Y-85601000D01*
X3468124Y-85596525D01*
X3469329Y-85595135D01*
X3471000Y-85587452D01*
X3471000Y-85582885D01*
X3979000Y-85582885D01*
X3983475Y-85598124D01*
X3984865Y-85599329D01*
X3992548Y-85601000D01*
X5992885Y-85601000D01*
X6008124Y-85596525D01*
X6009329Y-85595135D01*
X6011000Y-85587452D01*
X6011000Y-85582885D01*
X6519000Y-85582885D01*
X6523475Y-85598124D01*
X6524865Y-85599329D01*
X6532548Y-85601000D01*
X7583344Y-85601000D01*
X7596875Y-85597027D01*
X7598180Y-85587947D01*
X7556214Y-85420875D01*
X7552894Y-85411124D01*
X7467972Y-85215814D01*
X7463105Y-85206739D01*
X7347426Y-85027926D01*
X7341136Y-85019757D01*
X7197806Y-84862240D01*
X7190273Y-84855215D01*
X7023139Y-84723222D01*
X7014552Y-84717517D01*
X6977116Y-84696851D01*
X6927146Y-84646419D01*
X6912374Y-84576976D01*
X6937490Y-84510571D01*
X6964842Y-84483964D01*
X7140327Y-84358792D01*
X7148200Y-84352139D01*
X7299052Y-84201812D01*
X7305730Y-84193965D01*
X7430003Y-84021020D01*
X7435313Y-84012183D01*
X7529670Y-83821267D01*
X7533469Y-83811672D01*
X7595377Y-83607910D01*
X7597555Y-83597837D01*
X7598986Y-83586962D01*
X7596775Y-83572778D01*
X7583617Y-83569000D01*
X6537115Y-83569000D01*
X6521876Y-83573475D01*
X6520671Y-83574865D01*
X6519000Y-83582548D01*
X6519000Y-85582885D01*
X6011000Y-85582885D01*
X6011000Y-83587115D01*
X6006525Y-83571876D01*
X6005135Y-83570671D01*
X5997452Y-83569000D01*
X3997115Y-83569000D01*
X3981876Y-83573475D01*
X3980671Y-83574865D01*
X3979000Y-83582548D01*
X3979000Y-85582885D01*
X3471000Y-85582885D01*
X3471000Y-83587115D01*
X3466525Y-83571876D01*
X3465135Y-83570671D01*
X3457452Y-83569000D01*
X2408225Y-83569000D01*
X2394694Y-83572973D01*
X2393257Y-83582966D01*
X2423565Y-83717446D01*
X2426645Y-83727275D01*
X2506770Y-83924603D01*
X2511413Y-83933794D01*
X2622694Y-84115388D01*
X2628777Y-84123699D01*
X2768213Y-84284667D01*
X2775580Y-84291883D01*
X2939434Y-84427916D01*
X2947881Y-84433831D01*
X3017479Y-84474501D01*
X3066203Y-84526140D01*
X3079274Y-84595923D01*
X3052543Y-84661694D01*
X3012087Y-84695053D01*
X3003462Y-84699542D01*
X2994738Y-84705036D01*
X2824433Y-84832905D01*
X2816726Y-84839748D01*
X2669590Y-84993717D01*
X2663104Y-85001727D01*
X2543098Y-85177649D01*
X2538000Y-85186623D01*
X2448338Y-85379783D01*
X2444775Y-85389470D01*
X2389389Y-85589183D01*
X1963500Y-85589183D01*
X1963500Y-72414594D01*
X1983502Y-72346473D01*
X2000405Y-72325499D01*
X4241894Y-70084010D01*
X4304206Y-70049984D01*
X4375021Y-70055049D01*
X4431857Y-70097596D01*
X4456668Y-70164116D01*
X4456989Y-70173105D01*
X4456989Y-71795175D01*
X4436987Y-71863296D01*
X4383331Y-71909789D01*
X4313057Y-71919893D01*
X4283867Y-71911417D01*
X4283789Y-71911638D01*
X4279964Y-71910283D01*
X4279956Y-71910281D01*
X4278568Y-71909789D01*
X4078087Y-71838795D01*
X4078083Y-71838794D01*
X4073212Y-71837069D01*
X4068119Y-71836162D01*
X4068116Y-71836161D01*
X3858373Y-71798800D01*
X3858367Y-71798799D01*
X3853284Y-71797894D01*
X3779452Y-71796992D01*
X3635081Y-71795228D01*
X3635079Y-71795228D01*
X3629911Y-71795165D01*
X3409091Y-71828955D01*
X3196756Y-71898357D01*
X2998607Y-72001507D01*
X2994474Y-72004610D01*
X2994471Y-72004612D01*
X2824100Y-72132530D01*
X2819965Y-72135635D01*
X2665629Y-72297138D01*
X2662715Y-72301410D01*
X2662714Y-72301411D01*
X2585506Y-72414594D01*
X2539743Y-72481680D01*
X2445688Y-72684305D01*
X2385989Y-72899570D01*
X2362251Y-73121695D01*
X2362548Y-73126848D01*
X2362548Y-73126851D01*
X2374812Y-73339547D01*
X2375110Y-73344715D01*
X2376247Y-73349761D01*
X2376248Y-73349767D01*
X2396119Y-73437939D01*
X2424222Y-73562639D01*
X2508266Y-73769616D01*
X2624987Y-73960088D01*
X2771250Y-74128938D01*
X2943126Y-74271632D01*
X3013595Y-74312811D01*
X3016445Y-74314476D01*
X3065169Y-74366114D01*
X3078240Y-74435897D01*
X3051509Y-74501669D01*
X3011055Y-74535027D01*
X2998607Y-74541507D01*
X2994474Y-74544610D01*
X2994471Y-74544612D01*
X2970247Y-74562800D01*
X2819965Y-74675635D01*
X2665629Y-74837138D01*
X2539743Y-75021680D01*
X2445688Y-75224305D01*
X2385989Y-75439570D01*
X2362251Y-75661695D01*
X2362548Y-75666848D01*
X2362548Y-75666851D01*
X2374812Y-75879547D01*
X2375110Y-75884715D01*
X2376247Y-75889761D01*
X2376248Y-75889767D01*
X2396119Y-75977939D01*
X2424222Y-76102639D01*
X2508266Y-76309616D01*
X2624987Y-76500088D01*
X2771250Y-76668938D01*
X2943126Y-76811632D01*
X3013595Y-76852811D01*
X3016445Y-76854476D01*
X3065169Y-76906114D01*
X3078240Y-76975897D01*
X3051509Y-77041669D01*
X3011055Y-77075027D01*
X2998607Y-77081507D01*
X2994474Y-77084610D01*
X2994471Y-77084612D01*
X2970247Y-77102800D01*
X2819965Y-77215635D01*
X2665629Y-77377138D01*
X2539743Y-77561680D01*
X2445688Y-77764305D01*
X2385989Y-77979570D01*
X2362251Y-78201695D01*
X2362548Y-78206848D01*
X2362548Y-78206851D01*
X2374812Y-78419547D01*
X2375110Y-78424715D01*
X2376247Y-78429761D01*
X2376248Y-78429767D01*
X2396119Y-78517939D01*
X2424222Y-78642639D01*
X2508266Y-78849616D01*
X2559019Y-78932438D01*
X2622291Y-79035688D01*
X2624987Y-79040088D01*
X2771250Y-79208938D01*
X2943126Y-79351632D01*
X3013595Y-79392811D01*
X3016445Y-79394476D01*
X3065169Y-79446114D01*
X3078240Y-79515897D01*
X3051509Y-79581669D01*
X3011055Y-79615027D01*
X2998607Y-79621507D01*
X2994474Y-79624610D01*
X2994471Y-79624612D01*
X2970247Y-79642800D01*
X2819965Y-79755635D01*
X2665629Y-79917138D01*
X2539743Y-80101680D01*
X2445688Y-80304305D01*
X2385989Y-80519570D01*
X2362251Y-80741695D01*
X2362548Y-80746848D01*
X2362548Y-80746851D01*
X2374812Y-80959547D01*
X2375110Y-80964715D01*
X2376247Y-80969761D01*
X2376248Y-80969767D01*
X2396119Y-81057939D01*
X2424222Y-81182639D01*
X2508266Y-81389616D01*
X2559019Y-81472438D01*
X2622291Y-81575688D01*
X2624987Y-81580088D01*
X2771250Y-81748938D01*
X2943126Y-81891632D01*
X3016955Y-81934774D01*
X3065679Y-81986412D01*
X3078750Y-82056195D01*
X3052019Y-82121967D01*
X3011562Y-82155327D01*
X3003457Y-82159546D01*
X2994738Y-82165036D01*
X2824433Y-82292905D01*
X2816726Y-82299748D01*
X2669590Y-82453717D01*
X2663104Y-82461727D01*
X2543098Y-82637649D01*
X2538000Y-82646623D01*
X2448338Y-82839783D01*
X2444775Y-82849470D01*
X2389389Y-83049183D01*
X2390912Y-83057607D01*
X2403292Y-83061000D01*
X7583344Y-83061000D01*
X7596875Y-83057027D01*
X7598180Y-83047947D01*
X7556214Y-82880875D01*
X7552894Y-82871124D01*
X7467972Y-82675814D01*
X7463105Y-82666739D01*
X7347426Y-82487926D01*
X7341136Y-82479757D01*
X7197806Y-82322240D01*
X7190273Y-82315215D01*
X7023139Y-82183222D01*
X7014556Y-82177520D01*
X6977602Y-82157120D01*
X6927631Y-82106687D01*
X6912859Y-82037245D01*
X6937975Y-81970839D01*
X6965327Y-81944232D01*
X6988797Y-81927491D01*
X7144860Y-81816173D01*
X7303096Y-81658489D01*
X7362594Y-81575689D01*
X7430435Y-81481277D01*
X7433453Y-81477077D01*
X7454320Y-81434857D01*
X7530136Y-81281453D01*
X7530137Y-81281451D01*
X7532430Y-81276811D01*
X7597370Y-81063069D01*
X7625578Y-80848813D01*
X7650265Y-80793010D01*
X7629604Y-80760862D01*
X7624924Y-80735688D01*
X7610276Y-80557522D01*
X7609852Y-80552361D01*
X7555431Y-80335702D01*
X7466354Y-80130840D01*
X7345014Y-79943277D01*
X7194670Y-79778051D01*
X7190619Y-79774852D01*
X7190615Y-79774848D01*
X7023414Y-79642800D01*
X7023410Y-79642798D01*
X7019359Y-79639598D01*
X6978053Y-79616796D01*
X6928084Y-79566364D01*
X6913312Y-79496921D01*
X6938428Y-79430516D01*
X6965780Y-79403909D01*
X7009603Y-79372650D01*
X7144860Y-79276173D01*
X7303096Y-79118489D01*
X7362594Y-79035689D01*
X7430435Y-78941277D01*
X7433453Y-78937077D01*
X7454320Y-78894857D01*
X7530136Y-78741453D01*
X7530137Y-78741451D01*
X7532430Y-78736811D01*
X7597370Y-78523069D01*
X7625578Y-78308813D01*
X7650265Y-78253010D01*
X7629604Y-78220862D01*
X7624924Y-78195688D01*
X7610276Y-78017522D01*
X7609852Y-78012361D01*
X7555431Y-77795702D01*
X7466354Y-77590840D01*
X7345014Y-77403277D01*
X7194670Y-77238051D01*
X7190619Y-77234852D01*
X7190615Y-77234848D01*
X7023414Y-77102800D01*
X7023410Y-77102798D01*
X7019359Y-77099598D01*
X6978053Y-77076796D01*
X6928084Y-77026364D01*
X6913312Y-76956921D01*
X6938428Y-76890516D01*
X6965780Y-76863909D01*
X7009603Y-76832650D01*
X7144860Y-76736173D01*
X7303096Y-76578489D01*
X7362594Y-76495689D01*
X7430435Y-76401277D01*
X7433453Y-76397077D01*
X7532430Y-76196811D01*
X7597370Y-75983069D01*
X7625578Y-75768813D01*
X7650265Y-75713010D01*
X7629604Y-75680862D01*
X7624924Y-75655688D01*
X7610276Y-75477522D01*
X7609852Y-75472361D01*
X7555431Y-75255702D01*
X7466354Y-75050840D01*
X7345014Y-74863277D01*
X7194670Y-74698051D01*
X7190619Y-74694852D01*
X7190615Y-74694848D01*
X7023414Y-74562800D01*
X7023410Y-74562798D01*
X7019359Y-74559598D01*
X6978053Y-74536796D01*
X6928084Y-74486364D01*
X6913312Y-74416921D01*
X6938428Y-74350516D01*
X6965780Y-74323909D01*
X7009603Y-74292650D01*
X7144860Y-74196173D01*
X7303096Y-74038489D01*
X7362594Y-73955689D01*
X7430435Y-73861277D01*
X7433453Y-73857077D01*
X7532430Y-73656811D01*
X7597370Y-73443069D01*
X7625578Y-73228813D01*
X7650265Y-73173010D01*
X7629604Y-73140862D01*
X7624924Y-73115688D01*
X7610276Y-72937522D01*
X7609852Y-72932361D01*
X7555431Y-72715702D01*
X7466354Y-72510840D01*
X7404090Y-72414594D01*
X7347822Y-72327617D01*
X7347820Y-72327614D01*
X7345014Y-72323277D01*
X7194670Y-72158051D01*
X7190619Y-72154852D01*
X7190615Y-72154848D01*
X7023414Y-72022800D01*
X7023410Y-72022798D01*
X7019359Y-72019598D01*
X6823789Y-71911638D01*
X6818920Y-71909914D01*
X6818916Y-71909912D01*
X6618087Y-71838795D01*
X6618083Y-71838794D01*
X6613212Y-71837069D01*
X6608119Y-71836162D01*
X6608116Y-71836161D01*
X6398373Y-71798800D01*
X6398367Y-71798799D01*
X6393284Y-71797894D01*
X6319452Y-71796992D01*
X6175081Y-71795228D01*
X6175079Y-71795228D01*
X6169911Y-71795165D01*
X5949091Y-71828955D01*
X5918986Y-71838795D01*
X5889134Y-71848552D01*
X5818170Y-71850703D01*
X5757308Y-71814147D01*
X5725872Y-71750490D01*
X5723989Y-71728787D01*
X5723989Y-69874083D01*
X5743991Y-69805962D01*
X5797647Y-69759469D01*
X5867921Y-69749365D01*
X5932501Y-69778859D01*
G37*
%TD.AperFunction*%
%TA.AperFunction,Conductor*%
G36*
X2366532Y-55104967D02*
G01*
X2373115Y-55111096D01*
X2904115Y-55642096D01*
X2938141Y-55704408D01*
X2941020Y-55731191D01*
X2941020Y-56529497D01*
X2941357Y-56532743D01*
X2941357Y-56532747D01*
X2949560Y-56611801D01*
X2951994Y-56635263D01*
X3007970Y-56803043D01*
X3101042Y-56953445D01*
X3226217Y-57078402D01*
X3232447Y-57082242D01*
X3232448Y-57082243D01*
X3369610Y-57166791D01*
X3376782Y-57171212D01*
X3447684Y-57194729D01*
X3450168Y-57195553D01*
X3508527Y-57235984D01*
X3535764Y-57301548D01*
X3536500Y-57315146D01*
X3536500Y-68945406D01*
X3516498Y-69013527D01*
X3499595Y-69034501D01*
X937747Y-71596348D01*
X929461Y-71603888D01*
X922982Y-71608000D01*
X917557Y-71613777D01*
X876357Y-71657651D01*
X873602Y-71660493D01*
X853865Y-71680230D01*
X851385Y-71683427D01*
X843682Y-71692447D01*
X813414Y-71724679D01*
X809595Y-71731625D01*
X809593Y-71731628D01*
X803652Y-71742434D01*
X792801Y-71758953D01*
X780386Y-71774959D01*
X777241Y-71782228D01*
X777238Y-71782232D01*
X762826Y-71815537D01*
X757604Y-71826197D01*
X744415Y-71850188D01*
X694070Y-71900247D01*
X624653Y-71915141D01*
X558204Y-71890141D01*
X515819Y-71833184D01*
X508000Y-71789488D01*
X508000Y-57355023D01*
X528002Y-57286902D01*
X581658Y-57240409D01*
X646842Y-57229679D01*
X724120Y-57237597D01*
X1449920Y-57237597D01*
X1453166Y-57237260D01*
X1453170Y-57237260D01*
X1548828Y-57227335D01*
X1548832Y-57227334D01*
X1555686Y-57226623D01*
X1562222Y-57224442D01*
X1562224Y-57224442D01*
X1694326Y-57180369D01*
X1723466Y-57170647D01*
X1873868Y-57077575D01*
X1998825Y-56952400D01*
X2002666Y-56946169D01*
X2087795Y-56808065D01*
X2087796Y-56808063D01*
X2091635Y-56801835D01*
X2147317Y-56633958D01*
X2151092Y-56597119D01*
X2157692Y-56532695D01*
X2158020Y-56529497D01*
X2158020Y-55200191D01*
X2178022Y-55132070D01*
X2231678Y-55085577D01*
X2301952Y-55075473D01*
X2366532Y-55104967D01*
G37*
%TD.AperFunction*%
%TA.AperFunction,Conductor*%
G36*
X1540258Y-528002D02*
G01*
X1586751Y-581658D01*
X1596855Y-651932D01*
X1567361Y-716512D01*
X1547788Y-734761D01*
X1539965Y-740635D01*
X1385629Y-902138D01*
X1259743Y-1086680D01*
X1165688Y-1289305D01*
X1105989Y-1504570D01*
X1082251Y-1726695D01*
X1095110Y-1949715D01*
X1096247Y-1954761D01*
X1096248Y-1954767D01*
X1117275Y-2048069D01*
X1144222Y-2167639D01*
X1228266Y-2374616D01*
X1344987Y-2565088D01*
X1491250Y-2733938D01*
X1663126Y-2876632D01*
X1856000Y-2989338D01*
X2064692Y-3069030D01*
X2069760Y-3070061D01*
X2069763Y-3070062D01*
X2164862Y-3089410D01*
X2283597Y-3113567D01*
X2288772Y-3113757D01*
X2288774Y-3113757D01*
X2501673Y-3121564D01*
X2501677Y-3121564D01*
X2506837Y-3121753D01*
X2511957Y-3121097D01*
X2511959Y-3121097D01*
X2723288Y-3094025D01*
X2723289Y-3094025D01*
X2728416Y-3093368D01*
X2733366Y-3091883D01*
X2937429Y-3030661D01*
X2937434Y-3030659D01*
X2942384Y-3029174D01*
X3142994Y-2930896D01*
X3324860Y-2801173D01*
X3483096Y-2643489D01*
X3542594Y-2560689D01*
X3613453Y-2462077D01*
X3614640Y-2462930D01*
X3661960Y-2419362D01*
X3731897Y-2407145D01*
X3797338Y-2434678D01*
X3825166Y-2466511D01*
X3882694Y-2560388D01*
X3888777Y-2568699D01*
X4028213Y-2729667D01*
X4035580Y-2736883D01*
X4199434Y-2872916D01*
X4207881Y-2878831D01*
X4391756Y-2986279D01*
X4401042Y-2990729D01*
X4600001Y-3066703D01*
X4609899Y-3069579D01*
X4713250Y-3090606D01*
X4727299Y-3089410D01*
X4731000Y-3079065D01*
X4731000Y-1632000D01*
X4751002Y-1563879D01*
X4804658Y-1517386D01*
X4857000Y-1506000D01*
X5113000Y-1506000D01*
X5181121Y-1526002D01*
X5227614Y-1579658D01*
X5239000Y-1632000D01*
X5239000Y-3078517D01*
X5243064Y-3092359D01*
X5256478Y-3094393D01*
X5263184Y-3093534D01*
X5273262Y-3091392D01*
X5477255Y-3030191D01*
X5486842Y-3026433D01*
X5678095Y-2932739D01*
X5686945Y-2927464D01*
X5860328Y-2803792D01*
X5868193Y-2797145D01*
X5972897Y-2692805D01*
X6035268Y-2658889D01*
X6106075Y-2664077D01*
X6162837Y-2706723D01*
X6179819Y-2737826D01*
X6224385Y-2856705D01*
X6311739Y-2973261D01*
X6428295Y-3060615D01*
X6564684Y-3111745D01*
X6626866Y-3118500D01*
X8423134Y-3118500D01*
X8485316Y-3111745D01*
X8621705Y-3060615D01*
X8738261Y-2973261D01*
X8825615Y-2856705D01*
X8876745Y-2720316D01*
X8883500Y-2658134D01*
X8883500Y-861866D01*
X8876745Y-799684D01*
X8873973Y-792288D01*
X8873971Y-792282D01*
X8831214Y-678229D01*
X8826031Y-607422D01*
X8859952Y-545053D01*
X8922207Y-510924D01*
X8949196Y-508000D01*
X9366000Y-508000D01*
X9434121Y-528002D01*
X9480614Y-581658D01*
X9492000Y-634000D01*
X9492000Y-15290635D01*
X9471998Y-15358756D01*
X9418342Y-15405249D01*
X9348068Y-15415353D01*
X9291940Y-15392572D01*
X9176752Y-15308882D01*
X9170724Y-15306198D01*
X9170722Y-15306197D01*
X9008319Y-15233891D01*
X9008318Y-15233891D01*
X9002288Y-15231206D01*
X8908887Y-15211353D01*
X8821944Y-15192872D01*
X8821939Y-15192872D01*
X8815487Y-15191500D01*
X8624513Y-15191500D01*
X8618061Y-15192872D01*
X8618056Y-15192872D01*
X8531113Y-15211353D01*
X8437712Y-15231206D01*
X8431682Y-15233891D01*
X8431681Y-15233891D01*
X8269278Y-15306197D01*
X8269276Y-15306198D01*
X8263248Y-15308882D01*
X8108747Y-15421134D01*
X7980960Y-15563056D01*
X7885473Y-15728444D01*
X7826458Y-15910072D01*
X7825768Y-15916633D01*
X7825768Y-15916635D01*
X7809093Y-16075292D01*
X7782080Y-16140949D01*
X7772878Y-16151218D01*
X7313106Y-16610989D01*
X7250794Y-16645014D01*
X7179978Y-16639949D01*
X7123143Y-16597402D01*
X7098332Y-16530882D01*
X7098011Y-16521893D01*
X7098011Y-14833274D01*
X7098538Y-14822090D01*
X7100212Y-14814602D01*
X7098073Y-14746543D01*
X7098011Y-14742586D01*
X7098011Y-14714655D01*
X7097505Y-14710649D01*
X7096572Y-14698803D01*
X7095797Y-14674118D01*
X7095184Y-14654621D01*
X7089533Y-14635169D01*
X7085525Y-14615817D01*
X7083978Y-14603574D01*
X7082985Y-14595714D01*
X7080067Y-14588343D01*
X7066711Y-14554608D01*
X7062866Y-14543381D01*
X7062232Y-14541198D01*
X7050529Y-14500918D01*
X7046495Y-14494096D01*
X7046492Y-14494090D01*
X7040217Y-14483479D01*
X7031521Y-14465729D01*
X7026983Y-14454267D01*
X7026980Y-14454262D01*
X7024063Y-14446894D01*
X6998084Y-14411136D01*
X6991568Y-14401218D01*
X6973086Y-14369968D01*
X6969053Y-14363148D01*
X6954729Y-14348824D01*
X6941887Y-14333789D01*
X6929983Y-14317404D01*
X6895917Y-14289222D01*
X6887138Y-14281233D01*
X6351218Y-13745313D01*
X6317192Y-13683001D01*
X6319755Y-13619589D01*
X6330865Y-13583022D01*
X6332370Y-13578069D01*
X6361529Y-13356590D01*
X6363156Y-13290000D01*
X6344852Y-13067361D01*
X6290431Y-12850702D01*
X6201354Y-12645840D01*
X6106964Y-12499935D01*
X6082822Y-12462617D01*
X6082820Y-12462614D01*
X6080014Y-12458277D01*
X6076532Y-12454450D01*
X5932798Y-12296488D01*
X5901746Y-12232642D01*
X5910141Y-12162143D01*
X5955317Y-12107375D01*
X5981761Y-12093706D01*
X6088297Y-12053767D01*
X6096705Y-12050615D01*
X6213261Y-11963261D01*
X6300615Y-11846705D01*
X6351745Y-11710316D01*
X6358500Y-11648134D01*
X6358500Y-9851866D01*
X6351745Y-9789684D01*
X6300615Y-9653295D01*
X6213261Y-9536739D01*
X6096705Y-9449385D01*
X5960316Y-9398255D01*
X5898134Y-9391500D01*
X4101866Y-9391500D01*
X4039684Y-9398255D01*
X3903295Y-9449385D01*
X3786739Y-9536739D01*
X3699385Y-9653295D01*
X3648255Y-9789684D01*
X3641500Y-9851866D01*
X3641500Y-11160405D01*
X3621498Y-11228526D01*
X3604595Y-11249500D01*
X2817747Y-12036348D01*
X2809461Y-12043888D01*
X2802982Y-12048000D01*
X2797557Y-12053777D01*
X2756357Y-12097651D01*
X2753602Y-12100493D01*
X2733865Y-12120230D01*
X2731385Y-12123427D01*
X2723682Y-12132447D01*
X2693414Y-12164679D01*
X2689595Y-12171625D01*
X2689593Y-12171628D01*
X2683652Y-12182434D01*
X2672801Y-12198953D01*
X2660386Y-12214959D01*
X2657241Y-12222228D01*
X2657238Y-12222232D01*
X2642826Y-12255537D01*
X2637609Y-12266187D01*
X2616305Y-12304940D01*
X2614334Y-12312615D01*
X2614334Y-12312616D01*
X2611267Y-12324562D01*
X2604863Y-12343266D01*
X2596819Y-12361855D01*
X2595580Y-12369678D01*
X2595577Y-12369688D01*
X2589901Y-12405524D01*
X2587495Y-12417144D01*
X2576500Y-12459970D01*
X2576500Y-12480224D01*
X2574949Y-12499934D01*
X2571780Y-12519943D01*
X2572526Y-12527835D01*
X2575941Y-12563961D01*
X2576500Y-12575819D01*
X2576500Y-22031233D01*
X2575973Y-22042416D01*
X2574298Y-22049909D01*
X2574547Y-22057835D01*
X2574547Y-22057836D01*
X2576438Y-22117986D01*
X2576500Y-22121945D01*
X2576500Y-22149856D01*
X2576997Y-22153790D01*
X2576997Y-22153791D01*
X2577005Y-22153856D01*
X2577938Y-22165693D01*
X2579327Y-22209889D01*
X2584978Y-22229339D01*
X2588987Y-22248700D01*
X2591526Y-22268797D01*
X2594445Y-22276168D01*
X2594445Y-22276170D01*
X2607804Y-22309912D01*
X2611649Y-22321142D01*
X2623982Y-22363593D01*
X2628015Y-22370412D01*
X2628017Y-22370417D01*
X2634293Y-22381028D01*
X2642988Y-22398776D01*
X2650448Y-22417617D01*
X2655110Y-22424033D01*
X2655110Y-22424034D01*
X2676436Y-22453387D01*
X2682952Y-22463307D01*
X2705458Y-22501362D01*
X2719779Y-22515683D01*
X2732619Y-22530716D01*
X2744528Y-22547107D01*
X2750634Y-22552158D01*
X2778605Y-22575298D01*
X2787384Y-22583288D01*
X3449595Y-23245499D01*
X3483621Y-23307811D01*
X3486500Y-23334594D01*
X3486500Y-40785405D01*
X3466498Y-40853526D01*
X3449595Y-40874501D01*
X2713222Y-41610873D01*
X2704943Y-41618407D01*
X2698462Y-41622520D01*
X2651837Y-41672171D01*
X2649082Y-41675013D01*
X2629345Y-41694750D01*
X2626865Y-41697947D01*
X2619162Y-41706967D01*
X2588894Y-41739199D01*
X2585075Y-41746145D01*
X2585073Y-41746148D01*
X2579132Y-41756954D01*
X2568281Y-41773473D01*
X2555866Y-41789479D01*
X2552721Y-41796748D01*
X2552718Y-41796752D01*
X2538306Y-41830057D01*
X2533089Y-41840707D01*
X2511785Y-41879460D01*
X2509814Y-41887135D01*
X2509814Y-41887136D01*
X2506747Y-41899082D01*
X2500343Y-41917786D01*
X2492299Y-41936375D01*
X2491060Y-41944198D01*
X2491057Y-41944208D01*
X2485381Y-41980044D01*
X2482975Y-41991664D01*
X2471980Y-42034490D01*
X2471980Y-42054744D01*
X2470429Y-42074454D01*
X2467260Y-42094463D01*
X2468006Y-42102355D01*
X2471421Y-42138481D01*
X2471980Y-42150339D01*
X2471980Y-45624597D01*
X2451978Y-45692718D01*
X2398322Y-45739211D01*
X2345980Y-45750597D01*
X2243498Y-45750597D01*
X2241050Y-45750790D01*
X2241042Y-45750790D01*
X2212579Y-45753030D01*
X2212574Y-45753031D01*
X2206169Y-45753535D01*
X2106231Y-45782569D01*
X2054012Y-45797740D01*
X2054010Y-45797741D01*
X2046399Y-45799952D01*
X1903193Y-45884644D01*
X1900511Y-45887326D01*
X1836139Y-45912599D01*
X1766516Y-45898697D01*
X1750688Y-45888525D01*
X1746807Y-45884644D01*
X1603601Y-45799952D01*
X1595990Y-45797741D01*
X1595988Y-45797740D01*
X1543769Y-45782569D01*
X1443831Y-45753535D01*
X1437426Y-45753031D01*
X1437421Y-45753030D01*
X1408958Y-45750790D01*
X1408950Y-45750790D01*
X1406502Y-45750597D01*
X973498Y-45750597D01*
X971050Y-45750790D01*
X971042Y-45750790D01*
X942579Y-45753030D01*
X942574Y-45753031D01*
X936169Y-45753535D01*
X836231Y-45782569D01*
X784012Y-45797740D01*
X784010Y-45797741D01*
X776399Y-45799952D01*
X769572Y-45803989D01*
X769573Y-45803989D01*
X698139Y-45846235D01*
X629323Y-45863695D01*
X561992Y-45841178D01*
X517523Y-45785834D01*
X508000Y-45737782D01*
X508000Y-634000D01*
X528002Y-565879D01*
X581658Y-519386D01*
X634000Y-508000D01*
X1472137Y-508000D01*
X1540258Y-528002D01*
G37*
%TD.AperFunction*%
%TA.AperFunction,Conductor*%
G36*
X9427958Y-16799651D02*
G01*
X9477438Y-16850564D01*
X9492000Y-16909365D01*
X9492000Y-42321604D01*
X9471998Y-42389725D01*
X9418342Y-42436218D01*
X9348068Y-42446322D01*
X9299884Y-42428864D01*
X9263968Y-42406725D01*
X9263966Y-42406724D01*
X9257738Y-42402885D01*
X9177995Y-42376436D01*
X9096389Y-42349368D01*
X9096387Y-42349368D01*
X9089861Y-42347203D01*
X9083025Y-42346503D01*
X9083022Y-42346502D01*
X9039969Y-42342091D01*
X8985400Y-42336500D01*
X8325613Y-42336500D01*
X8257492Y-42316498D01*
X8219537Y-42275847D01*
X8219072Y-42276185D01*
X8216335Y-42272418D01*
X8193084Y-42240415D01*
X8186568Y-42230495D01*
X8168100Y-42199267D01*
X8168098Y-42199264D01*
X8164062Y-42192440D01*
X8149741Y-42178119D01*
X8136900Y-42163085D01*
X8129651Y-42153108D01*
X8124992Y-42146695D01*
X8090915Y-42118504D01*
X8082136Y-42110514D01*
X6598965Y-40627342D01*
X6564939Y-40565030D01*
X6562060Y-40538247D01*
X6562060Y-23316034D01*
X6582062Y-23247913D01*
X6598965Y-23226939D01*
X7306278Y-22519626D01*
X7314568Y-22512082D01*
X7321049Y-22507969D01*
X7367690Y-22458301D01*
X7370444Y-22455460D01*
X7390165Y-22435739D01*
X7392643Y-22432544D01*
X7400349Y-22423522D01*
X7425189Y-22397070D01*
X7430617Y-22391290D01*
X7440377Y-22373537D01*
X7451230Y-22357014D01*
X7458784Y-22347275D01*
X7463644Y-22341010D01*
X7481207Y-22300426D01*
X7486414Y-22289796D01*
X7507726Y-22251029D01*
X7509697Y-22243352D01*
X7509699Y-22243347D01*
X7512763Y-22231411D01*
X7519169Y-22212699D01*
X7524065Y-22201386D01*
X7527212Y-22194114D01*
X7533589Y-22153856D01*
X7534128Y-22150450D01*
X7536535Y-22138829D01*
X7545559Y-22103680D01*
X7545559Y-22103679D01*
X7547531Y-22095999D01*
X7547531Y-22075738D01*
X7549082Y-22056027D01*
X7551010Y-22043854D01*
X7552250Y-22036026D01*
X7548090Y-21992015D01*
X7547531Y-21980158D01*
X7547531Y-18220563D01*
X7567533Y-18152442D01*
X7584436Y-18131468D01*
X8670500Y-17045405D01*
X8732812Y-17011379D01*
X8759595Y-17008500D01*
X8815487Y-17008500D01*
X8821939Y-17007128D01*
X8821944Y-17007128D01*
X8908888Y-16988647D01*
X9002288Y-16968794D01*
X9052065Y-16946632D01*
X9170722Y-16893803D01*
X9170724Y-16893802D01*
X9176752Y-16891118D01*
X9291940Y-16807429D01*
X9358806Y-16783571D01*
X9427958Y-16799651D01*
G37*
%TD.AperFunction*%
%TD*%
%TA.AperFunction,Conductor*%
%TO.N,GND*%
G36*
X16437787Y-528002D02*
G01*
X16484280Y-581658D01*
X16494384Y-651932D01*
X16464890Y-716512D01*
X16453729Y-727809D01*
X16449965Y-730635D01*
X16295629Y-892138D01*
X16169743Y-1076680D01*
X16075688Y-1279305D01*
X16015989Y-1494570D01*
X15992251Y-1716695D01*
X16005110Y-1939715D01*
X16006247Y-1944761D01*
X16006248Y-1944767D01*
X16027275Y-2038069D01*
X16054222Y-2157639D01*
X16138266Y-2364616D01*
X16254987Y-2555088D01*
X16401250Y-2723938D01*
X16573126Y-2866632D01*
X16766000Y-2979338D01*
X16974692Y-3059030D01*
X16979760Y-3060061D01*
X16979763Y-3060062D01*
X17074862Y-3079410D01*
X17193597Y-3103567D01*
X17198772Y-3103757D01*
X17198774Y-3103757D01*
X17411673Y-3111564D01*
X17411677Y-3111564D01*
X17416837Y-3111753D01*
X17421957Y-3111097D01*
X17421959Y-3111097D01*
X17633288Y-3084025D01*
X17633289Y-3084025D01*
X17638416Y-3083368D01*
X17643366Y-3081883D01*
X17847429Y-3020661D01*
X17847434Y-3020659D01*
X17852384Y-3019174D01*
X18052994Y-2920896D01*
X18234860Y-2791173D01*
X18393096Y-2633489D01*
X18452594Y-2550689D01*
X18523453Y-2452077D01*
X18524640Y-2452930D01*
X18571960Y-2409362D01*
X18641897Y-2397145D01*
X18707338Y-2424678D01*
X18735166Y-2456511D01*
X18792694Y-2550388D01*
X18798777Y-2558699D01*
X18938213Y-2719667D01*
X18945580Y-2726883D01*
X19109434Y-2862916D01*
X19117881Y-2868831D01*
X19301756Y-2976279D01*
X19311042Y-2980729D01*
X19510001Y-3056703D01*
X19519899Y-3059579D01*
X19623250Y-3080606D01*
X19637299Y-3079410D01*
X19641000Y-3069065D01*
X19641000Y-1622000D01*
X19661002Y-1553879D01*
X19714658Y-1507386D01*
X19767000Y-1496000D01*
X20023000Y-1496000D01*
X20091121Y-1516002D01*
X20137614Y-1569658D01*
X20149000Y-1622000D01*
X20149000Y-3068517D01*
X20153064Y-3082359D01*
X20166478Y-3084393D01*
X20173184Y-3083534D01*
X20183262Y-3081392D01*
X20387255Y-3020191D01*
X20396842Y-3016433D01*
X20588095Y-2922739D01*
X20596945Y-2917464D01*
X20770328Y-2793792D01*
X20778193Y-2787145D01*
X20882897Y-2682805D01*
X20945268Y-2648889D01*
X21016075Y-2654077D01*
X21072837Y-2696723D01*
X21089819Y-2727826D01*
X21134385Y-2846705D01*
X21221739Y-2963261D01*
X21338295Y-3050615D01*
X21474684Y-3101745D01*
X21536866Y-3108500D01*
X23333134Y-3108500D01*
X23395316Y-3101745D01*
X23531705Y-3050615D01*
X23648261Y-2963261D01*
X23735615Y-2846705D01*
X23786745Y-2710316D01*
X23793500Y-2648134D01*
X23793500Y-851866D01*
X23786745Y-789684D01*
X23783973Y-782288D01*
X23783971Y-782282D01*
X23744963Y-678229D01*
X23739780Y-607422D01*
X23773701Y-545053D01*
X23835957Y-510924D01*
X23862945Y-508000D01*
X24276000Y-508000D01*
X24344121Y-528002D01*
X24390614Y-581658D01*
X24402000Y-634000D01*
X24402000Y-6655229D01*
X24381998Y-6723350D01*
X24328342Y-6769843D01*
X24305949Y-6777618D01*
X24134168Y-6819653D01*
X24129933Y-6821368D01*
X24129931Y-6821369D01*
X23887069Y-6919738D01*
X23882840Y-6921451D01*
X23648839Y-7058464D01*
X23437068Y-7227822D01*
X23433947Y-7231163D01*
X23309224Y-7364678D01*
X23251963Y-7425975D01*
X23097402Y-7648775D01*
X23095374Y-7652851D01*
X23095373Y-7652853D01*
X23013252Y-7817923D01*
X22976621Y-7891553D01*
X22892153Y-8149223D01*
X22845765Y-8416388D01*
X22841500Y-8502063D01*
X22841500Y-9191347D01*
X22841665Y-9193615D01*
X22841665Y-9193627D01*
X22849725Y-9304701D01*
X22856125Y-9392914D01*
X22857109Y-9397369D01*
X22857109Y-9397372D01*
X22896482Y-9575703D01*
X22914585Y-9657700D01*
X23010655Y-9911273D01*
X23142324Y-10148322D01*
X23306833Y-10363880D01*
X23500736Y-10553433D01*
X23719972Y-10713010D01*
X23959947Y-10839267D01*
X23964248Y-10840786D01*
X23964253Y-10840788D01*
X24097087Y-10887696D01*
X24215634Y-10929559D01*
X24275408Y-10941341D01*
X24300366Y-10946260D01*
X24363333Y-10979058D01*
X24398572Y-11040692D01*
X24402000Y-11069882D01*
X24402000Y-38179951D01*
X24381998Y-38248072D01*
X24328342Y-38294565D01*
X24305949Y-38302340D01*
X24134168Y-38344375D01*
X24129933Y-38346090D01*
X24129931Y-38346091D01*
X23887069Y-38444460D01*
X23882840Y-38446173D01*
X23648839Y-38583186D01*
X23437068Y-38752544D01*
X23433947Y-38755885D01*
X23309224Y-38889400D01*
X23251963Y-38950697D01*
X23097402Y-39173497D01*
X23095374Y-39177573D01*
X23095373Y-39177575D01*
X23013252Y-39342645D01*
X22976621Y-39416275D01*
X22892153Y-39673945D01*
X22845765Y-39941110D01*
X22841500Y-40026785D01*
X22841500Y-40716069D01*
X22841665Y-40718337D01*
X22841665Y-40718349D01*
X22849725Y-40829423D01*
X22856125Y-40917636D01*
X22857109Y-40922091D01*
X22857109Y-40922094D01*
X22896482Y-41100425D01*
X22914585Y-41182422D01*
X23010655Y-41435995D01*
X23142324Y-41673044D01*
X23306833Y-41888602D01*
X23500736Y-42078155D01*
X23719972Y-42237732D01*
X23959947Y-42363989D01*
X23964248Y-42365508D01*
X23964253Y-42365510D01*
X24097087Y-42412418D01*
X24215634Y-42454281D01*
X24275408Y-42466063D01*
X24300366Y-42470982D01*
X24363333Y-42503780D01*
X24398572Y-42565414D01*
X24402000Y-42594604D01*
X24402000Y-69704673D01*
X24381998Y-69772794D01*
X24328342Y-69819287D01*
X24305949Y-69827062D01*
X24134168Y-69869097D01*
X24129933Y-69870812D01*
X24129931Y-69870813D01*
X23887069Y-69969182D01*
X23882840Y-69970895D01*
X23648839Y-70107908D01*
X23437068Y-70277266D01*
X23433947Y-70280607D01*
X23309224Y-70414122D01*
X23251963Y-70475419D01*
X23097402Y-70698219D01*
X23095374Y-70702295D01*
X23095373Y-70702297D01*
X23013252Y-70867367D01*
X22976621Y-70940997D01*
X22892153Y-71198667D01*
X22845765Y-71465832D01*
X22841500Y-71551507D01*
X22841500Y-72240791D01*
X22841665Y-72243059D01*
X22841665Y-72243071D01*
X22849725Y-72354145D01*
X22856125Y-72442358D01*
X22857109Y-72446813D01*
X22857109Y-72446816D01*
X22896482Y-72625147D01*
X22914585Y-72707144D01*
X23010655Y-72960717D01*
X23142324Y-73197766D01*
X23306833Y-73413324D01*
X23500736Y-73602877D01*
X23719972Y-73762454D01*
X23959947Y-73888711D01*
X23964248Y-73890230D01*
X23964253Y-73890232D01*
X24097087Y-73937140D01*
X24215634Y-73979003D01*
X24275408Y-73990785D01*
X24300366Y-73995704D01*
X24363333Y-74028502D01*
X24398572Y-74090136D01*
X24402000Y-74119326D01*
X24402000Y-99366000D01*
X24381998Y-99434121D01*
X24328342Y-99480614D01*
X24276000Y-99492000D01*
X23372818Y-99492000D01*
X23304697Y-99471998D01*
X23258204Y-99418342D01*
X23248100Y-99348068D01*
X23277594Y-99283488D01*
X23299646Y-99263423D01*
X23344860Y-99231173D01*
X23503096Y-99073489D01*
X23633453Y-98892077D01*
X23646995Y-98864678D01*
X23730136Y-98696453D01*
X23730137Y-98696451D01*
X23732430Y-98691811D01*
X23797370Y-98478069D01*
X23826529Y-98256590D01*
X23828156Y-98190000D01*
X23809852Y-97967361D01*
X23755431Y-97750702D01*
X23666354Y-97545840D01*
X23545014Y-97358277D01*
X23394670Y-97193051D01*
X23390619Y-97189852D01*
X23390615Y-97189848D01*
X23223414Y-97057800D01*
X23223410Y-97057798D01*
X23219359Y-97054598D01*
X23183028Y-97034542D01*
X23167136Y-97025769D01*
X23023789Y-96946638D01*
X23018920Y-96944914D01*
X23018916Y-96944912D01*
X22818087Y-96873795D01*
X22818083Y-96873794D01*
X22813212Y-96872069D01*
X22808119Y-96871162D01*
X22808116Y-96871161D01*
X22598373Y-96833800D01*
X22598367Y-96833799D01*
X22593284Y-96832894D01*
X22519452Y-96831992D01*
X22375081Y-96830228D01*
X22375079Y-96830228D01*
X22369911Y-96830165D01*
X22149091Y-96863955D01*
X21936756Y-96933357D01*
X21738607Y-97036507D01*
X21734474Y-97039610D01*
X21734471Y-97039612D01*
X21564100Y-97167530D01*
X21559965Y-97170635D01*
X21405629Y-97332138D01*
X21402715Y-97336410D01*
X21402714Y-97336411D01*
X21297898Y-97490066D01*
X21242987Y-97535069D01*
X21172462Y-97543240D01*
X21108715Y-97511986D01*
X21088018Y-97487502D01*
X21007426Y-97362926D01*
X21001136Y-97354757D01*
X20857806Y-97197240D01*
X20850273Y-97190215D01*
X20683139Y-97058222D01*
X20674552Y-97052517D01*
X20488117Y-96949599D01*
X20478705Y-96945369D01*
X20277959Y-96874280D01*
X20267988Y-96871646D01*
X20196837Y-96858972D01*
X20183540Y-96860432D01*
X20179000Y-96874989D01*
X20179000Y-98318000D01*
X20158998Y-98386121D01*
X20105342Y-98432614D01*
X20053000Y-98444000D01*
X19797000Y-98444000D01*
X19728879Y-98423998D01*
X19682386Y-98370342D01*
X19671000Y-98318000D01*
X19671000Y-96873102D01*
X19667082Y-96859758D01*
X19652806Y-96857771D01*
X19614324Y-96863660D01*
X19604288Y-96866051D01*
X19401868Y-96932212D01*
X19392359Y-96936209D01*
X19203463Y-97034542D01*
X19194738Y-97040036D01*
X19024433Y-97167905D01*
X19016726Y-97174748D01*
X18939478Y-97255584D01*
X18877954Y-97291014D01*
X18807042Y-97287557D01*
X18749255Y-97246311D01*
X18730402Y-97212763D01*
X18688767Y-97101703D01*
X18685615Y-97093295D01*
X18598261Y-96976739D01*
X18481705Y-96889385D01*
X18345316Y-96838255D01*
X18283134Y-96831500D01*
X16486866Y-96831500D01*
X16424684Y-96838255D01*
X16288295Y-96889385D01*
X16171739Y-96976739D01*
X16084385Y-97093295D01*
X16033255Y-97229684D01*
X16026500Y-97291866D01*
X16026500Y-99088134D01*
X16033255Y-99150316D01*
X16084385Y-99286705D01*
X16089771Y-99293892D01*
X16094079Y-99301760D01*
X16091866Y-99302972D01*
X16112029Y-99356952D01*
X16096970Y-99426333D01*
X16046792Y-99476559D01*
X15986354Y-99492000D01*
X15544000Y-99492000D01*
X15475879Y-99471998D01*
X15429386Y-99418342D01*
X15418000Y-99366000D01*
X15418000Y-95587719D01*
X18302001Y-95587719D01*
X18302371Y-95594540D01*
X18307895Y-95645402D01*
X18311521Y-95660654D01*
X18356676Y-95781104D01*
X18365214Y-95796699D01*
X18441715Y-95898774D01*
X18454276Y-95911335D01*
X18556351Y-95987836D01*
X18571946Y-95996374D01*
X18692394Y-96041528D01*
X18707649Y-96045155D01*
X18758514Y-96050681D01*
X18765328Y-96051050D01*
X19637885Y-96051050D01*
X19653124Y-96046575D01*
X19654329Y-96045185D01*
X19656000Y-96037502D01*
X19656000Y-96032934D01*
X20164000Y-96032934D01*
X20168475Y-96048173D01*
X20169865Y-96049378D01*
X20177548Y-96051049D01*
X21054669Y-96051049D01*
X21061490Y-96050679D01*
X21112352Y-96045155D01*
X21127604Y-96041529D01*
X21248054Y-95996374D01*
X21263649Y-95987836D01*
X21365724Y-95911335D01*
X21378285Y-95898774D01*
X21454786Y-95796699D01*
X21463324Y-95781104D01*
X21508478Y-95660656D01*
X21512105Y-95645401D01*
X21517631Y-95594536D01*
X21518000Y-95587722D01*
X21518000Y-95065165D01*
X21513525Y-95049926D01*
X21512135Y-95048721D01*
X21504452Y-95047050D01*
X20182115Y-95047050D01*
X20166876Y-95051525D01*
X20165671Y-95052915D01*
X20164000Y-95060598D01*
X20164000Y-96032934D01*
X19656000Y-96032934D01*
X19656000Y-95065165D01*
X19651525Y-95049926D01*
X19650135Y-95048721D01*
X19642452Y-95047050D01*
X18320116Y-95047050D01*
X18304877Y-95051525D01*
X18303672Y-95052915D01*
X18302001Y-95060598D01*
X18302001Y-95587719D01*
X15418000Y-95587719D01*
X15418000Y-94520935D01*
X18302000Y-94520935D01*
X18306475Y-94536174D01*
X18307865Y-94537379D01*
X18315548Y-94539050D01*
X19637885Y-94539050D01*
X19653124Y-94534575D01*
X19654329Y-94533185D01*
X19656000Y-94525502D01*
X19656000Y-94520935D01*
X20164000Y-94520935D01*
X20168475Y-94536174D01*
X20169865Y-94537379D01*
X20177548Y-94539050D01*
X21499884Y-94539050D01*
X21515123Y-94534575D01*
X21516328Y-94533185D01*
X21517999Y-94525502D01*
X21517999Y-93998381D01*
X21517629Y-93991560D01*
X21512105Y-93940698D01*
X21508479Y-93925446D01*
X21463324Y-93804996D01*
X21454786Y-93789401D01*
X21378285Y-93687326D01*
X21365724Y-93674765D01*
X21263649Y-93598264D01*
X21248054Y-93589726D01*
X21127606Y-93544572D01*
X21112351Y-93540945D01*
X21061486Y-93535419D01*
X21054672Y-93535050D01*
X20182115Y-93535050D01*
X20166876Y-93539525D01*
X20165671Y-93540915D01*
X20164000Y-93548598D01*
X20164000Y-94520935D01*
X19656000Y-94520935D01*
X19656000Y-93553166D01*
X19651525Y-93537927D01*
X19650135Y-93536722D01*
X19642452Y-93535051D01*
X18765331Y-93535051D01*
X18758510Y-93535421D01*
X18707648Y-93540945D01*
X18692396Y-93544571D01*
X18571946Y-93589726D01*
X18556351Y-93598264D01*
X18454276Y-93674765D01*
X18441715Y-93687326D01*
X18365214Y-93789401D01*
X18356676Y-93804996D01*
X18311522Y-93925444D01*
X18307895Y-93940699D01*
X18302369Y-93991564D01*
X18302000Y-93998378D01*
X18302000Y-94520935D01*
X15418000Y-94520935D01*
X15418000Y-80356576D01*
X16002001Y-80356576D01*
X16002371Y-80363397D01*
X16007895Y-80414259D01*
X16011521Y-80429511D01*
X16056676Y-80549961D01*
X16065214Y-80565556D01*
X16141715Y-80667631D01*
X16154276Y-80680192D01*
X16256351Y-80756693D01*
X16271946Y-80765231D01*
X16392394Y-80810385D01*
X16407649Y-80814012D01*
X16458514Y-80819538D01*
X16465328Y-80819907D01*
X17137885Y-80819907D01*
X17153124Y-80815432D01*
X17154329Y-80814042D01*
X17156000Y-80806359D01*
X17156000Y-79684022D01*
X17151525Y-79668783D01*
X17150135Y-79667578D01*
X17142452Y-79665907D01*
X16020116Y-79665907D01*
X16004877Y-79670382D01*
X16003672Y-79671772D01*
X16002001Y-79679455D01*
X16002001Y-80356576D01*
X15418000Y-80356576D01*
X15418000Y-79139792D01*
X16002000Y-79139792D01*
X16006475Y-79155031D01*
X16007865Y-79156236D01*
X16015548Y-79157907D01*
X17137885Y-79157907D01*
X17153124Y-79153432D01*
X17154329Y-79152042D01*
X17156000Y-79144359D01*
X17156000Y-78022023D01*
X17151525Y-78006784D01*
X17150135Y-78005579D01*
X17142452Y-78003908D01*
X16465331Y-78003908D01*
X16458510Y-78004278D01*
X16407648Y-78009802D01*
X16392396Y-78013428D01*
X16271946Y-78058583D01*
X16256351Y-78067121D01*
X16154276Y-78143622D01*
X16141715Y-78156183D01*
X16065214Y-78258258D01*
X16056676Y-78273853D01*
X16011522Y-78394301D01*
X16007895Y-78409556D01*
X16002369Y-78460421D01*
X16002000Y-78467235D01*
X16002000Y-79139792D01*
X15418000Y-79139792D01*
X15418000Y-74119141D01*
X15438002Y-74051020D01*
X15491658Y-74004527D01*
X15514051Y-73996752D01*
X15528422Y-73993235D01*
X15685832Y-73954717D01*
X15845039Y-73890232D01*
X15932931Y-73854632D01*
X15932932Y-73854632D01*
X15937160Y-73852919D01*
X16171161Y-73715906D01*
X16382932Y-73546548D01*
X16504399Y-73416519D01*
X16564921Y-73351731D01*
X16564923Y-73351728D01*
X16568037Y-73348395D01*
X16722598Y-73125595D01*
X16804624Y-72960717D01*
X16841346Y-72886904D01*
X16841347Y-72886901D01*
X16843379Y-72882817D01*
X16927847Y-72625147D01*
X16974235Y-72357982D01*
X16978500Y-72272307D01*
X16978500Y-71583023D01*
X16976328Y-71553077D01*
X16964205Y-71386007D01*
X16963875Y-71381456D01*
X16962891Y-71376998D01*
X16906400Y-71121130D01*
X16906399Y-71121126D01*
X16905415Y-71116670D01*
X16809345Y-70863097D01*
X16677676Y-70626048D01*
X16513167Y-70410490D01*
X16319264Y-70220937D01*
X16100028Y-70061360D01*
X15860053Y-69935103D01*
X15855752Y-69933584D01*
X15855747Y-69933582D01*
X15677998Y-69870813D01*
X15604366Y-69844811D01*
X15544592Y-69833029D01*
X15519634Y-69828110D01*
X15456667Y-69795312D01*
X15421428Y-69733678D01*
X15418000Y-69704488D01*
X15418000Y-49576150D01*
X17511780Y-49576150D01*
X17512526Y-49584042D01*
X17515941Y-49620168D01*
X17516500Y-49632026D01*
X17516500Y-63785249D01*
X17515973Y-63796432D01*
X17514298Y-63803925D01*
X17514547Y-63811851D01*
X17514547Y-63811852D01*
X17516438Y-63872002D01*
X17516500Y-63875961D01*
X17516500Y-63903872D01*
X17516997Y-63907806D01*
X17516997Y-63907807D01*
X17517005Y-63907872D01*
X17517938Y-63919709D01*
X17519327Y-63963905D01*
X17524978Y-63983355D01*
X17528987Y-64002716D01*
X17531526Y-64022813D01*
X17534445Y-64030184D01*
X17534445Y-64030186D01*
X17547804Y-64063928D01*
X17551649Y-64075158D01*
X17563982Y-64117609D01*
X17568015Y-64124428D01*
X17568017Y-64124433D01*
X17574293Y-64135044D01*
X17582988Y-64152792D01*
X17590448Y-64171633D01*
X17595110Y-64178049D01*
X17595110Y-64178050D01*
X17616436Y-64207403D01*
X17622952Y-64217323D01*
X17645458Y-64255378D01*
X17659779Y-64269699D01*
X17672619Y-64284732D01*
X17684528Y-64301123D01*
X17716413Y-64327500D01*
X17718593Y-64329304D01*
X17727374Y-64337294D01*
X17964107Y-64574028D01*
X17998132Y-64636340D01*
X18001011Y-64663123D01*
X18001011Y-77877907D01*
X17981009Y-77946028D01*
X17927353Y-77992521D01*
X17875011Y-78003907D01*
X17682115Y-78003907D01*
X17666876Y-78008382D01*
X17665671Y-78009772D01*
X17664000Y-78017455D01*
X17664000Y-80801791D01*
X17668475Y-80817030D01*
X17669865Y-80818235D01*
X17677548Y-80819906D01*
X18354669Y-80819906D01*
X18361480Y-80819537D01*
X18371822Y-80818414D01*
X18441704Y-80830946D01*
X18474519Y-80854583D01*
X19589391Y-81969455D01*
X19623417Y-82031767D01*
X19618352Y-82102582D01*
X19575805Y-82159418D01*
X19509285Y-82184229D01*
X19500296Y-82184550D01*
X19305265Y-82184550D01*
X19302478Y-82184799D01*
X19302472Y-82184799D01*
X19235760Y-82190753D01*
X19145128Y-82198842D01*
X19021269Y-82232726D01*
X18942464Y-82254284D01*
X18942460Y-82254285D01*
X18937048Y-82255766D01*
X18742337Y-82348639D01*
X18567149Y-82474524D01*
X18563242Y-82478556D01*
X18460924Y-82584140D01*
X18417023Y-82629442D01*
X18296703Y-82808497D01*
X18209992Y-83006030D01*
X18159632Y-83215795D01*
X18147214Y-83431163D01*
X18173130Y-83645327D01*
X18236563Y-83851516D01*
X18335505Y-84043214D01*
X18338920Y-84047664D01*
X18463415Y-84209910D01*
X18463419Y-84209914D01*
X18466831Y-84214361D01*
X18470980Y-84218136D01*
X18622242Y-84355774D01*
X18622245Y-84355776D01*
X18626389Y-84359547D01*
X18631141Y-84362528D01*
X18804379Y-84471201D01*
X18804383Y-84471203D01*
X18809135Y-84474184D01*
X19009293Y-84554647D01*
X19220537Y-84598394D01*
X19225148Y-84598660D01*
X19225149Y-84598660D01*
X19273452Y-84601445D01*
X19273456Y-84601445D01*
X19275275Y-84601550D01*
X20514735Y-84601550D01*
X20517522Y-84601301D01*
X20517528Y-84601301D01*
X20584240Y-84595347D01*
X20674872Y-84587258D01*
X20691775Y-84582634D01*
X20762758Y-84583953D01*
X20821761Y-84623440D01*
X20850049Y-84688558D01*
X20851020Y-84704169D01*
X20851020Y-89803936D01*
X20831018Y-89872057D01*
X20814115Y-89893031D01*
X20309501Y-90397645D01*
X20247189Y-90431671D01*
X20220406Y-90434550D01*
X19403001Y-90434550D01*
X19400214Y-90434799D01*
X19400208Y-90434799D01*
X19330071Y-90441059D01*
X19236238Y-90449433D01*
X19230824Y-90450914D01*
X19230819Y-90450915D01*
X19170529Y-90467409D01*
X19019549Y-90508713D01*
X19014491Y-90511125D01*
X19014487Y-90511127D01*
X18951644Y-90541102D01*
X18816782Y-90605428D01*
X18634346Y-90736521D01*
X18478008Y-90897849D01*
X18352710Y-91084312D01*
X18262412Y-91290017D01*
X18209968Y-91508461D01*
X18197037Y-91732740D01*
X18224025Y-91955765D01*
X18290082Y-92170485D01*
X18292652Y-92175465D01*
X18292654Y-92175469D01*
X18357852Y-92301788D01*
X18393118Y-92370114D01*
X18529877Y-92548342D01*
X18696036Y-92699535D01*
X18700783Y-92702513D01*
X18700786Y-92702515D01*
X18829229Y-92783086D01*
X18886344Y-92818914D01*
X19094783Y-92902706D01*
X19314767Y-92948263D01*
X19319378Y-92948529D01*
X19319379Y-92948529D01*
X19369952Y-92951445D01*
X19369956Y-92951445D01*
X19371775Y-92951550D01*
X20416999Y-92951550D01*
X20419786Y-92951301D01*
X20419792Y-92951301D01*
X20489929Y-92945041D01*
X20583762Y-92936667D01*
X20589176Y-92935186D01*
X20589181Y-92935185D01*
X20716912Y-92900241D01*
X20800451Y-92877387D01*
X20805509Y-92874975D01*
X20805513Y-92874973D01*
X20923042Y-92818914D01*
X21003218Y-92780672D01*
X21185654Y-92649579D01*
X21341992Y-92488251D01*
X21467290Y-92301788D01*
X21557588Y-92096083D01*
X21610032Y-91877639D01*
X21622963Y-91653360D01*
X21595975Y-91430335D01*
X21529918Y-91215615D01*
X21488193Y-91134774D01*
X21474724Y-91065068D01*
X21501079Y-90999144D01*
X21511064Y-90987890D01*
X21876767Y-90622187D01*
X21885057Y-90614643D01*
X21891538Y-90610530D01*
X21938179Y-90560862D01*
X21940933Y-90558021D01*
X21960655Y-90538299D01*
X21963132Y-90535106D01*
X21970837Y-90526085D01*
X21995679Y-90499630D01*
X22001106Y-90493851D01*
X22004927Y-90486901D01*
X22010866Y-90476098D01*
X22021722Y-90459571D01*
X22029277Y-90449832D01*
X22029278Y-90449830D01*
X22034134Y-90443570D01*
X22051694Y-90402990D01*
X22056911Y-90392342D01*
X22074395Y-90360539D01*
X22074396Y-90360537D01*
X22078215Y-90353590D01*
X22083253Y-90333967D01*
X22089657Y-90315264D01*
X22094553Y-90303950D01*
X22094553Y-90303949D01*
X22097701Y-90296675D01*
X22098940Y-90288852D01*
X22098943Y-90288842D01*
X22104619Y-90253006D01*
X22107025Y-90241386D01*
X22116048Y-90206241D01*
X22116048Y-90206240D01*
X22118020Y-90198560D01*
X22118020Y-90178306D01*
X22119571Y-90158595D01*
X22121500Y-90146416D01*
X22122740Y-90138587D01*
X22118579Y-90094568D01*
X22118020Y-90082711D01*
X22118020Y-83047443D01*
X22118547Y-83036259D01*
X22120221Y-83028771D01*
X22118082Y-82960712D01*
X22118020Y-82956755D01*
X22118020Y-82928824D01*
X22117514Y-82924818D01*
X22116581Y-82912972D01*
X22115442Y-82876717D01*
X22115193Y-82868790D01*
X22109542Y-82849338D01*
X22105534Y-82829986D01*
X22103988Y-82817748D01*
X22103987Y-82817746D01*
X22102994Y-82809883D01*
X22086714Y-82768766D01*
X22082879Y-82757565D01*
X22070538Y-82715086D01*
X22066505Y-82708267D01*
X22066503Y-82708262D01*
X22060227Y-82697651D01*
X22051530Y-82679901D01*
X22044072Y-82661063D01*
X22018091Y-82625303D01*
X22011573Y-82615381D01*
X21993098Y-82584140D01*
X21993094Y-82584135D01*
X21989062Y-82577317D01*
X21974738Y-82562993D01*
X21961896Y-82547958D01*
X21949992Y-82531573D01*
X21915926Y-82503391D01*
X21907147Y-82495402D01*
X20354738Y-80942993D01*
X20320712Y-80880681D01*
X20325777Y-80809866D01*
X20368324Y-80753030D01*
X20407628Y-80733212D01*
X20420741Y-80729278D01*
X20420744Y-80729277D01*
X20425690Y-80727793D01*
X20506236Y-80688334D01*
X20629049Y-80628169D01*
X20629052Y-80628167D01*
X20633684Y-80625898D01*
X20822243Y-80491401D01*
X20986303Y-80327912D01*
X21055370Y-80231795D01*
X21111365Y-80188147D01*
X21182068Y-80181701D01*
X21245033Y-80214504D01*
X21265128Y-80239491D01*
X21266799Y-80242218D01*
X21266804Y-80242224D01*
X21269501Y-80246626D01*
X21421147Y-80421691D01*
X21599349Y-80569637D01*
X21799322Y-80686491D01*
X22015694Y-80769116D01*
X22020760Y-80770147D01*
X22020761Y-80770147D01*
X22073846Y-80780947D01*
X22242656Y-80815292D01*
X22373324Y-80820083D01*
X22468949Y-80823590D01*
X22468953Y-80823590D01*
X22474113Y-80823779D01*
X22479233Y-80823123D01*
X22479235Y-80823123D01*
X22582719Y-80809866D01*
X22703847Y-80794349D01*
X22708795Y-80792864D01*
X22708802Y-80792863D01*
X22920747Y-80729276D01*
X22925690Y-80727793D01*
X23006236Y-80688334D01*
X23129049Y-80628169D01*
X23129052Y-80628167D01*
X23133684Y-80625898D01*
X23322243Y-80491401D01*
X23486303Y-80327912D01*
X23621458Y-80139824D01*
X23724078Y-79932187D01*
X23791408Y-79710578D01*
X23821640Y-79480948D01*
X23823327Y-79411907D01*
X23817032Y-79335341D01*
X23804773Y-79186225D01*
X23804772Y-79186219D01*
X23804349Y-79181074D01*
X23747925Y-78956440D01*
X23655570Y-78744038D01*
X23529764Y-78549572D01*
X23373887Y-78378265D01*
X23369836Y-78375066D01*
X23369832Y-78375062D01*
X23196177Y-78237918D01*
X23196172Y-78237915D01*
X23192123Y-78234717D01*
X23187607Y-78232224D01*
X23187604Y-78232222D01*
X22993879Y-78125280D01*
X22993875Y-78125278D01*
X22989355Y-78122783D01*
X22984486Y-78121059D01*
X22984482Y-78121057D01*
X22775903Y-78047195D01*
X22775899Y-78047194D01*
X22771028Y-78045469D01*
X22765935Y-78044562D01*
X22765932Y-78044561D01*
X22548095Y-78005758D01*
X22548089Y-78005757D01*
X22543006Y-78004852D01*
X22465644Y-78003907D01*
X22316581Y-78002086D01*
X22316579Y-78002086D01*
X22311411Y-78002023D01*
X22113069Y-78032374D01*
X22042708Y-78022906D01*
X21988634Y-77976901D01*
X21968011Y-77907824D01*
X21968011Y-61677295D01*
X21968538Y-61666112D01*
X21970213Y-61658619D01*
X21968073Y-61590528D01*
X21968011Y-61586571D01*
X21968011Y-61558671D01*
X21967507Y-61554680D01*
X21966574Y-61542838D01*
X21965434Y-61506563D01*
X21965185Y-61498638D01*
X21962973Y-61491024D01*
X21962972Y-61491019D01*
X21959534Y-61479186D01*
X21955523Y-61459822D01*
X21953978Y-61447591D01*
X21952985Y-61439730D01*
X21950068Y-61432363D01*
X21950067Y-61432358D01*
X21936709Y-61398619D01*
X21932865Y-61387392D01*
X21922741Y-61352549D01*
X21920529Y-61344934D01*
X21910218Y-61327499D01*
X21901523Y-61309751D01*
X21894063Y-61290910D01*
X21868075Y-61255140D01*
X21861559Y-61245220D01*
X21843091Y-61213992D01*
X21843089Y-61213989D01*
X21839053Y-61207165D01*
X21824732Y-61192844D01*
X21811891Y-61177810D01*
X21804642Y-61167833D01*
X21799983Y-61161420D01*
X21793879Y-61156370D01*
X21793874Y-61156365D01*
X21765913Y-61133234D01*
X21757132Y-61125244D01*
X21512120Y-60880231D01*
X21478095Y-60817919D01*
X21485843Y-60740491D01*
X21555330Y-60582196D01*
X21555335Y-60582183D01*
X21557588Y-60577049D01*
X21610032Y-60358605D01*
X21622963Y-60134326D01*
X21595975Y-59911301D01*
X21529918Y-59696581D01*
X21426882Y-59496952D01*
X21290123Y-59318724D01*
X21123964Y-59167531D01*
X21119217Y-59164553D01*
X21119214Y-59164551D01*
X20938405Y-59051131D01*
X20933656Y-59048152D01*
X20725217Y-58964360D01*
X20505233Y-58918803D01*
X20500622Y-58918537D01*
X20500621Y-58918537D01*
X20450048Y-58915621D01*
X20450044Y-58915621D01*
X20448225Y-58915516D01*
X19403001Y-58915516D01*
X19400214Y-58915765D01*
X19400208Y-58915765D01*
X19330071Y-58922025D01*
X19236238Y-58930399D01*
X19230824Y-58931880D01*
X19230819Y-58931881D01*
X19116262Y-58963221D01*
X19019549Y-58989679D01*
X19014486Y-58992094D01*
X19014483Y-58992095D01*
X18963745Y-59016296D01*
X18893649Y-59027570D01*
X18828586Y-58999157D01*
X18789212Y-58940079D01*
X18783500Y-58902571D01*
X18783500Y-53131296D01*
X18803502Y-53063175D01*
X18857158Y-53016682D01*
X18927432Y-53006578D01*
X18956490Y-53014387D01*
X19009293Y-53035613D01*
X19220537Y-53079360D01*
X19225148Y-53079626D01*
X19225149Y-53079626D01*
X19273452Y-53082411D01*
X19273456Y-53082411D01*
X19275275Y-53082516D01*
X20514735Y-53082516D01*
X20517522Y-53082267D01*
X20517528Y-53082267D01*
X20584240Y-53076313D01*
X20674872Y-53068224D01*
X20801729Y-53033520D01*
X20877536Y-53012782D01*
X20877540Y-53012781D01*
X20882952Y-53011300D01*
X21077663Y-52918427D01*
X21252851Y-52792542D01*
X21402977Y-52637624D01*
X21523297Y-52458569D01*
X21610008Y-52261036D01*
X21660368Y-52051271D01*
X21672786Y-51835903D01*
X21646870Y-51621739D01*
X21583437Y-51415550D01*
X21484495Y-51223852D01*
X21433208Y-51157013D01*
X21356585Y-51057156D01*
X21356581Y-51057152D01*
X21353169Y-51052705D01*
X21291616Y-50996696D01*
X21197758Y-50911292D01*
X21197755Y-50911290D01*
X21193611Y-50907519D01*
X21188859Y-50904538D01*
X21015621Y-50795865D01*
X21015617Y-50795863D01*
X21010865Y-50792882D01*
X20810707Y-50712419D01*
X20599463Y-50668672D01*
X20594852Y-50668406D01*
X20594851Y-50668406D01*
X20546548Y-50665621D01*
X20546544Y-50665621D01*
X20544725Y-50665516D01*
X19305265Y-50665516D01*
X19302478Y-50665765D01*
X19302472Y-50665765D01*
X19235760Y-50671719D01*
X19145128Y-50679808D01*
X18942747Y-50735173D01*
X18871764Y-50733855D01*
X18812760Y-50694370D01*
X18784471Y-50629253D01*
X18783500Y-50613639D01*
X18783500Y-49910802D01*
X18803502Y-49842681D01*
X18820405Y-49821706D01*
X19052258Y-49589854D01*
X19060537Y-49582320D01*
X19067018Y-49578207D01*
X19113644Y-49528555D01*
X19116398Y-49525714D01*
X19136135Y-49505977D01*
X19138615Y-49502780D01*
X19146320Y-49493758D01*
X19176586Y-49461528D01*
X19180405Y-49454582D01*
X19180407Y-49454579D01*
X19186348Y-49443773D01*
X19197199Y-49427254D01*
X19198253Y-49425895D01*
X19209614Y-49411248D01*
X19212759Y-49403979D01*
X19212762Y-49403975D01*
X19227174Y-49370670D01*
X19232391Y-49360020D01*
X19253695Y-49321267D01*
X19258733Y-49301644D01*
X19265136Y-49282944D01*
X19267083Y-49278444D01*
X19312495Y-49223872D01*
X19380202Y-49202514D01*
X19427668Y-49210780D01*
X19500628Y-49238641D01*
X19515694Y-49244394D01*
X19520760Y-49245425D01*
X19520761Y-49245425D01*
X19573846Y-49256225D01*
X19742656Y-49290570D01*
X19873324Y-49295361D01*
X19968949Y-49298868D01*
X19968953Y-49298868D01*
X19974113Y-49299057D01*
X19979233Y-49298401D01*
X19979235Y-49298401D01*
X20078668Y-49285663D01*
X20203847Y-49269627D01*
X20208795Y-49268142D01*
X20208802Y-49268141D01*
X20420747Y-49204554D01*
X20425690Y-49203071D01*
X20430324Y-49200801D01*
X20629049Y-49103447D01*
X20629052Y-49103445D01*
X20633684Y-49101176D01*
X20822243Y-48966679D01*
X20986303Y-48803190D01*
X21055370Y-48707073D01*
X21111365Y-48663425D01*
X21182068Y-48656979D01*
X21245033Y-48689782D01*
X21265128Y-48714769D01*
X21266799Y-48717496D01*
X21266804Y-48717502D01*
X21269501Y-48721904D01*
X21421147Y-48896969D01*
X21599349Y-49044915D01*
X21799322Y-49161769D01*
X22015694Y-49244394D01*
X22020760Y-49245425D01*
X22020761Y-49245425D01*
X22073846Y-49256225D01*
X22242656Y-49290570D01*
X22373324Y-49295361D01*
X22468949Y-49298868D01*
X22468953Y-49298868D01*
X22474113Y-49299057D01*
X22479233Y-49298401D01*
X22479235Y-49298401D01*
X22578668Y-49285663D01*
X22703847Y-49269627D01*
X22708795Y-49268142D01*
X22708802Y-49268141D01*
X22920747Y-49204554D01*
X22925690Y-49203071D01*
X22930324Y-49200801D01*
X23129049Y-49103447D01*
X23129052Y-49103445D01*
X23133684Y-49101176D01*
X23322243Y-48966679D01*
X23486303Y-48803190D01*
X23621458Y-48615102D01*
X23724078Y-48407465D01*
X23791408Y-48185856D01*
X23821640Y-47956226D01*
X23823327Y-47887185D01*
X23817032Y-47810619D01*
X23804773Y-47661503D01*
X23804772Y-47661497D01*
X23804349Y-47656352D01*
X23747925Y-47431718D01*
X23655570Y-47219316D01*
X23529764Y-47024850D01*
X23373887Y-46853543D01*
X23369836Y-46850344D01*
X23369832Y-46850340D01*
X23196177Y-46713196D01*
X23196172Y-46713193D01*
X23192123Y-46709995D01*
X23187607Y-46707502D01*
X23187604Y-46707500D01*
X22993879Y-46600558D01*
X22993875Y-46600556D01*
X22989355Y-46598061D01*
X22984486Y-46596337D01*
X22984482Y-46596335D01*
X22775903Y-46522473D01*
X22775899Y-46522472D01*
X22771028Y-46520747D01*
X22765935Y-46519840D01*
X22765932Y-46519839D01*
X22548095Y-46481036D01*
X22548089Y-46481035D01*
X22543006Y-46480130D01*
X22465644Y-46479185D01*
X22316581Y-46477364D01*
X22316579Y-46477364D01*
X22311411Y-46477301D01*
X22214047Y-46492200D01*
X22143686Y-46482733D01*
X22089612Y-46436727D01*
X22068989Y-46367650D01*
X22068989Y-30259239D01*
X22069516Y-30248056D01*
X22071191Y-30240563D01*
X22069051Y-30172486D01*
X22068989Y-30168527D01*
X22068989Y-30140616D01*
X22068484Y-30136616D01*
X22067551Y-30124773D01*
X22066411Y-30088501D01*
X22066162Y-30080582D01*
X22060511Y-30061130D01*
X22056503Y-30041778D01*
X22054956Y-30029535D01*
X22053963Y-30021675D01*
X22051045Y-30014304D01*
X22037689Y-29980569D01*
X22033844Y-29969342D01*
X22028337Y-29950388D01*
X22021507Y-29926879D01*
X22017473Y-29920057D01*
X22017470Y-29920051D01*
X22011195Y-29909440D01*
X22002499Y-29891690D01*
X21997961Y-29880228D01*
X21997958Y-29880223D01*
X21995041Y-29872855D01*
X21969062Y-29837097D01*
X21962546Y-29827179D01*
X21944064Y-29795929D01*
X21940031Y-29789109D01*
X21925707Y-29774785D01*
X21912865Y-29759750D01*
X21900961Y-29743365D01*
X21866895Y-29715183D01*
X21858116Y-29707194D01*
X21512121Y-29361199D01*
X21478095Y-29298887D01*
X21485842Y-29221459D01*
X21555333Y-29063153D01*
X21557588Y-29058016D01*
X21610032Y-28839572D01*
X21622963Y-28615293D01*
X21595975Y-28392268D01*
X21529918Y-28177548D01*
X21426882Y-27977919D01*
X21290123Y-27799691D01*
X21123964Y-27648498D01*
X21119217Y-27645520D01*
X21119214Y-27645518D01*
X20938405Y-27532098D01*
X20933656Y-27529119D01*
X20725217Y-27445327D01*
X20505233Y-27399770D01*
X20500622Y-27399504D01*
X20500621Y-27399504D01*
X20450048Y-27396588D01*
X20450044Y-27396588D01*
X20448225Y-27396483D01*
X19403001Y-27396483D01*
X19400214Y-27396732D01*
X19400208Y-27396732D01*
X19330071Y-27402992D01*
X19236238Y-27411366D01*
X19178228Y-27427236D01*
X19107244Y-27425918D01*
X19048241Y-27386433D01*
X19019951Y-27321316D01*
X19018980Y-27305702D01*
X19018980Y-22194098D01*
X19038982Y-22125977D01*
X19055885Y-22105002D01*
X19560501Y-21600387D01*
X19622813Y-21566362D01*
X19649596Y-21563483D01*
X20514735Y-21563483D01*
X20517522Y-21563234D01*
X20517528Y-21563234D01*
X20584240Y-21557280D01*
X20674872Y-21549191D01*
X20813997Y-21511131D01*
X20877536Y-21493749D01*
X20877540Y-21493748D01*
X20882952Y-21492267D01*
X21077663Y-21399394D01*
X21252851Y-21273509D01*
X21402977Y-21118591D01*
X21523297Y-20939536D01*
X21610008Y-20742003D01*
X21660368Y-20532238D01*
X21672786Y-20316870D01*
X21646870Y-20102706D01*
X21583437Y-19896517D01*
X21484495Y-19704819D01*
X21433208Y-19637980D01*
X21356585Y-19538123D01*
X21356581Y-19538119D01*
X21353169Y-19533672D01*
X21246331Y-19436457D01*
X21197758Y-19392259D01*
X21197755Y-19392257D01*
X21193611Y-19388486D01*
X21188859Y-19385505D01*
X21015621Y-19276832D01*
X21015617Y-19276830D01*
X21010865Y-19273849D01*
X20810707Y-19193386D01*
X20599463Y-19149639D01*
X20594852Y-19149373D01*
X20594851Y-19149373D01*
X20546548Y-19146588D01*
X20546544Y-19146588D01*
X20544725Y-19146483D01*
X19305265Y-19146483D01*
X19302478Y-19146732D01*
X19302472Y-19146732D01*
X19235760Y-19152686D01*
X19145128Y-19160775D01*
X19030085Y-19192247D01*
X18942464Y-19216217D01*
X18942460Y-19216218D01*
X18937048Y-19217699D01*
X18742337Y-19310572D01*
X18567149Y-19436457D01*
X18417023Y-19591375D01*
X18296703Y-19770430D01*
X18209992Y-19967963D01*
X18159632Y-20177728D01*
X18147214Y-20393096D01*
X18173130Y-20607260D01*
X18236563Y-20813449D01*
X18239134Y-20818431D01*
X18239136Y-20818435D01*
X18302964Y-20942101D01*
X18316433Y-21011808D01*
X18290077Y-21077731D01*
X18280093Y-21088985D01*
X17993227Y-21375851D01*
X17984941Y-21383391D01*
X17978462Y-21387503D01*
X17973037Y-21393280D01*
X17931837Y-21437154D01*
X17929082Y-21439996D01*
X17909345Y-21459733D01*
X17906865Y-21462930D01*
X17899162Y-21471950D01*
X17868894Y-21504182D01*
X17865075Y-21511128D01*
X17865073Y-21511131D01*
X17859132Y-21521937D01*
X17848281Y-21538456D01*
X17835866Y-21554462D01*
X17832721Y-21561731D01*
X17832718Y-21561735D01*
X17818306Y-21595040D01*
X17813089Y-21605690D01*
X17791785Y-21644443D01*
X17789814Y-21652118D01*
X17789814Y-21652119D01*
X17786747Y-21664065D01*
X17780343Y-21682769D01*
X17772299Y-21701358D01*
X17771060Y-21709181D01*
X17771057Y-21709191D01*
X17765381Y-21745027D01*
X17762975Y-21756647D01*
X17751980Y-21799473D01*
X17751980Y-21819727D01*
X17750429Y-21839437D01*
X17747260Y-21859446D01*
X17748006Y-21867338D01*
X17751421Y-21903464D01*
X17751980Y-21915322D01*
X17751980Y-33236713D01*
X17751453Y-33247896D01*
X17749778Y-33255389D01*
X17750027Y-33263315D01*
X17750027Y-33263316D01*
X17751918Y-33323466D01*
X17751980Y-33327425D01*
X17751980Y-33355336D01*
X17752477Y-33359270D01*
X17752477Y-33359271D01*
X17752485Y-33359336D01*
X17753418Y-33371173D01*
X17754807Y-33415369D01*
X17760458Y-33434819D01*
X17764467Y-33454180D01*
X17765346Y-33461134D01*
X17767006Y-33474277D01*
X17769925Y-33481648D01*
X17769925Y-33481650D01*
X17783284Y-33515392D01*
X17787129Y-33526622D01*
X17792820Y-33546211D01*
X17799462Y-33569073D01*
X17803495Y-33575892D01*
X17803497Y-33575897D01*
X17809773Y-33586508D01*
X17818468Y-33604256D01*
X17825928Y-33623097D01*
X17830590Y-33629513D01*
X17830590Y-33629514D01*
X17851916Y-33658867D01*
X17858432Y-33668787D01*
X17880938Y-33706842D01*
X17895262Y-33721166D01*
X17908097Y-33736193D01*
X17920008Y-33752587D01*
X17926116Y-33757640D01*
X17926118Y-33757642D01*
X17954078Y-33780772D01*
X17962858Y-33788762D01*
X17989595Y-33815499D01*
X18023621Y-33877811D01*
X18026500Y-33904594D01*
X18026500Y-46353185D01*
X18006498Y-46421306D01*
X17952842Y-46467799D01*
X17900500Y-46479185D01*
X17682115Y-46479185D01*
X17666876Y-46483660D01*
X17665671Y-46485050D01*
X17664000Y-46492733D01*
X17664000Y-49139538D01*
X17643998Y-49207659D01*
X17639935Y-49213601D01*
X17638841Y-49215107D01*
X17633414Y-49220886D01*
X17629595Y-49227832D01*
X17629593Y-49227835D01*
X17623652Y-49238641D01*
X17612801Y-49255160D01*
X17600386Y-49271166D01*
X17597241Y-49278435D01*
X17597238Y-49278439D01*
X17582826Y-49311744D01*
X17577609Y-49322394D01*
X17556305Y-49361147D01*
X17554334Y-49368822D01*
X17554334Y-49368823D01*
X17551267Y-49380769D01*
X17544863Y-49399473D01*
X17536819Y-49418062D01*
X17535580Y-49425885D01*
X17535577Y-49425895D01*
X17529901Y-49461731D01*
X17527495Y-49473351D01*
X17519921Y-49502851D01*
X17516500Y-49516177D01*
X17516500Y-49536431D01*
X17514949Y-49556141D01*
X17511780Y-49576150D01*
X15418000Y-49576150D01*
X15418000Y-48831854D01*
X16002001Y-48831854D01*
X16002371Y-48838675D01*
X16007895Y-48889537D01*
X16011521Y-48904789D01*
X16056676Y-49025239D01*
X16065214Y-49040834D01*
X16141715Y-49142909D01*
X16154276Y-49155470D01*
X16256351Y-49231971D01*
X16271946Y-49240509D01*
X16392394Y-49285663D01*
X16407649Y-49289290D01*
X16458514Y-49294816D01*
X16465328Y-49295185D01*
X17137885Y-49295185D01*
X17153124Y-49290710D01*
X17154329Y-49289320D01*
X17156000Y-49281637D01*
X17156000Y-48159300D01*
X17151525Y-48144061D01*
X17150135Y-48142856D01*
X17142452Y-48141185D01*
X16020116Y-48141185D01*
X16004877Y-48145660D01*
X16003672Y-48147050D01*
X16002001Y-48154733D01*
X16002001Y-48831854D01*
X15418000Y-48831854D01*
X15418000Y-47615070D01*
X16002000Y-47615070D01*
X16006475Y-47630309D01*
X16007865Y-47631514D01*
X16015548Y-47633185D01*
X17137885Y-47633185D01*
X17153124Y-47628710D01*
X17154329Y-47627320D01*
X17156000Y-47619637D01*
X17156000Y-46497301D01*
X17151525Y-46482062D01*
X17150135Y-46480857D01*
X17142452Y-46479186D01*
X16465331Y-46479186D01*
X16458510Y-46479556D01*
X16407648Y-46485080D01*
X16392396Y-46488706D01*
X16271946Y-46533861D01*
X16256351Y-46542399D01*
X16154276Y-46618900D01*
X16141715Y-46631461D01*
X16065214Y-46733536D01*
X16056676Y-46749131D01*
X16011522Y-46869579D01*
X16007895Y-46884834D01*
X16002369Y-46935699D01*
X16002000Y-46942513D01*
X16002000Y-47615070D01*
X15418000Y-47615070D01*
X15418000Y-42594419D01*
X15438002Y-42526298D01*
X15491658Y-42479805D01*
X15514051Y-42472030D01*
X15528422Y-42468513D01*
X15685832Y-42429995D01*
X15845039Y-42365510D01*
X15932931Y-42329910D01*
X15932932Y-42329910D01*
X15937160Y-42328197D01*
X16171161Y-42191184D01*
X16382932Y-42021826D01*
X16504399Y-41891797D01*
X16564921Y-41827009D01*
X16564923Y-41827006D01*
X16568037Y-41823673D01*
X16722598Y-41600873D01*
X16804624Y-41435995D01*
X16841346Y-41362182D01*
X16841347Y-41362179D01*
X16843379Y-41358095D01*
X16927847Y-41100425D01*
X16974235Y-40833260D01*
X16978500Y-40747585D01*
X16978500Y-40058301D01*
X16976328Y-40028355D01*
X16964205Y-39861285D01*
X16963875Y-39856734D01*
X16962891Y-39852276D01*
X16906400Y-39596408D01*
X16906399Y-39596404D01*
X16905415Y-39591948D01*
X16809345Y-39338375D01*
X16677676Y-39101326D01*
X16513167Y-38885768D01*
X16319264Y-38696215D01*
X16100028Y-38536638D01*
X15860053Y-38410381D01*
X15855752Y-38408862D01*
X15855747Y-38408860D01*
X15677998Y-38346091D01*
X15604366Y-38320089D01*
X15544592Y-38308307D01*
X15519634Y-38303388D01*
X15456667Y-38270590D01*
X15421428Y-38208956D01*
X15418000Y-38179766D01*
X15418000Y-17307132D01*
X16002001Y-17307132D01*
X16002371Y-17313953D01*
X16007895Y-17364815D01*
X16011521Y-17380067D01*
X16056676Y-17500517D01*
X16065214Y-17516112D01*
X16141715Y-17618187D01*
X16154276Y-17630748D01*
X16256351Y-17707249D01*
X16271946Y-17715787D01*
X16392394Y-17760941D01*
X16407649Y-17764568D01*
X16458514Y-17770094D01*
X16465328Y-17770463D01*
X17137885Y-17770463D01*
X17153124Y-17765988D01*
X17154329Y-17764598D01*
X17156000Y-17756915D01*
X17156000Y-17752347D01*
X17664000Y-17752347D01*
X17668475Y-17767586D01*
X17669865Y-17768791D01*
X17677548Y-17770462D01*
X18354669Y-17770462D01*
X18361490Y-17770092D01*
X18412352Y-17764568D01*
X18427604Y-17760942D01*
X18548054Y-17715787D01*
X18563649Y-17707249D01*
X18665724Y-17630748D01*
X18678285Y-17618187D01*
X18754786Y-17516112D01*
X18763325Y-17500515D01*
X18775278Y-17468630D01*
X18817919Y-17411865D01*
X18884480Y-17387165D01*
X18953829Y-17402372D01*
X18973741Y-17415911D01*
X19099349Y-17520193D01*
X19299322Y-17637047D01*
X19515694Y-17719672D01*
X19520760Y-17720703D01*
X19520761Y-17720703D01*
X19573846Y-17731503D01*
X19742656Y-17765848D01*
X19873324Y-17770639D01*
X19968949Y-17774146D01*
X19968953Y-17774146D01*
X19974113Y-17774335D01*
X19979233Y-17773679D01*
X19979235Y-17773679D01*
X20078668Y-17760941D01*
X20203847Y-17744905D01*
X20208795Y-17743420D01*
X20208802Y-17743419D01*
X20420747Y-17679832D01*
X20425690Y-17678349D01*
X20506236Y-17638890D01*
X20629049Y-17578725D01*
X20629052Y-17578723D01*
X20633684Y-17576454D01*
X20822243Y-17441957D01*
X20986303Y-17278468D01*
X21055370Y-17182351D01*
X21111365Y-17138703D01*
X21182068Y-17132257D01*
X21245033Y-17165060D01*
X21265128Y-17190047D01*
X21266799Y-17192774D01*
X21266804Y-17192780D01*
X21269501Y-17197182D01*
X21421147Y-17372247D01*
X21599349Y-17520193D01*
X21799322Y-17637047D01*
X22015694Y-17719672D01*
X22020760Y-17720703D01*
X22020761Y-17720703D01*
X22073846Y-17731503D01*
X22242656Y-17765848D01*
X22373324Y-17770639D01*
X22468949Y-17774146D01*
X22468953Y-17774146D01*
X22474113Y-17774335D01*
X22479233Y-17773679D01*
X22479235Y-17773679D01*
X22578668Y-17760941D01*
X22703847Y-17744905D01*
X22708795Y-17743420D01*
X22708802Y-17743419D01*
X22920747Y-17679832D01*
X22925690Y-17678349D01*
X23006236Y-17638890D01*
X23129049Y-17578725D01*
X23129052Y-17578723D01*
X23133684Y-17576454D01*
X23322243Y-17441957D01*
X23486303Y-17278468D01*
X23621458Y-17090380D01*
X23724078Y-16882743D01*
X23791408Y-16661134D01*
X23821640Y-16431504D01*
X23823327Y-16362463D01*
X23817032Y-16285897D01*
X23804773Y-16136781D01*
X23804772Y-16136775D01*
X23804349Y-16131630D01*
X23747925Y-15906996D01*
X23655570Y-15694594D01*
X23529764Y-15500128D01*
X23373887Y-15328821D01*
X23369836Y-15325622D01*
X23369832Y-15325618D01*
X23196177Y-15188474D01*
X23196172Y-15188471D01*
X23192123Y-15185273D01*
X23187607Y-15182780D01*
X23187604Y-15182778D01*
X22993879Y-15075836D01*
X22993875Y-15075834D01*
X22989355Y-15073339D01*
X22984486Y-15071615D01*
X22984482Y-15071613D01*
X22775903Y-14997751D01*
X22775899Y-14997750D01*
X22771028Y-14996025D01*
X22765935Y-14995118D01*
X22765932Y-14995117D01*
X22548095Y-14956314D01*
X22548089Y-14956313D01*
X22543006Y-14955408D01*
X22465644Y-14954463D01*
X22316581Y-14952642D01*
X22316579Y-14952642D01*
X22311411Y-14952579D01*
X22082464Y-14987613D01*
X21862314Y-15059569D01*
X21857726Y-15061957D01*
X21857722Y-15061959D01*
X21661461Y-15164126D01*
X21656872Y-15166515D01*
X21652739Y-15169618D01*
X21652736Y-15169620D01*
X21475790Y-15302475D01*
X21471655Y-15305580D01*
X21311639Y-15473027D01*
X21264836Y-15541637D01*
X21209927Y-15586638D01*
X21139402Y-15594809D01*
X21075655Y-15563555D01*
X21054959Y-15539072D01*
X21032577Y-15504476D01*
X21032574Y-15504472D01*
X21029764Y-15500128D01*
X20873887Y-15328821D01*
X20869836Y-15325622D01*
X20869832Y-15325618D01*
X20696177Y-15188474D01*
X20696172Y-15188471D01*
X20692123Y-15185273D01*
X20687607Y-15182780D01*
X20687604Y-15182778D01*
X20493879Y-15075836D01*
X20493875Y-15075834D01*
X20489355Y-15073339D01*
X20484486Y-15071615D01*
X20484482Y-15071613D01*
X20275903Y-14997751D01*
X20275899Y-14997750D01*
X20271028Y-14996025D01*
X20265935Y-14995118D01*
X20265932Y-14995117D01*
X20048095Y-14956314D01*
X20048089Y-14956313D01*
X20043006Y-14955408D01*
X19965644Y-14954463D01*
X19816581Y-14952642D01*
X19816579Y-14952642D01*
X19811411Y-14952579D01*
X19582464Y-14987613D01*
X19362314Y-15059569D01*
X19357726Y-15061957D01*
X19357722Y-15061959D01*
X19161461Y-15164126D01*
X19156872Y-15166515D01*
X19152739Y-15169618D01*
X19152736Y-15169620D01*
X18975790Y-15302475D01*
X18971655Y-15305580D01*
X18971066Y-15304796D01*
X18911346Y-15332947D01*
X18840955Y-15323694D01*
X18786741Y-15277854D01*
X18773925Y-15252687D01*
X18763323Y-15224407D01*
X18754786Y-15208814D01*
X18678285Y-15106739D01*
X18665724Y-15094178D01*
X18563649Y-15017677D01*
X18548054Y-15009139D01*
X18427606Y-14963985D01*
X18412351Y-14960358D01*
X18361486Y-14954832D01*
X18354672Y-14954463D01*
X17682115Y-14954463D01*
X17666876Y-14958938D01*
X17665671Y-14960328D01*
X17664000Y-14968011D01*
X17664000Y-17752347D01*
X17156000Y-17752347D01*
X17156000Y-16634578D01*
X17151525Y-16619339D01*
X17150135Y-16618134D01*
X17142452Y-16616463D01*
X16020116Y-16616463D01*
X16004877Y-16620938D01*
X16003672Y-16622328D01*
X16002001Y-16630011D01*
X16002001Y-17307132D01*
X15418000Y-17307132D01*
X15418000Y-16090348D01*
X16002000Y-16090348D01*
X16006475Y-16105587D01*
X16007865Y-16106792D01*
X16015548Y-16108463D01*
X17137885Y-16108463D01*
X17153124Y-16103988D01*
X17154329Y-16102598D01*
X17156000Y-16094915D01*
X17156000Y-14972579D01*
X17151525Y-14957340D01*
X17150135Y-14956135D01*
X17142452Y-14954464D01*
X16465331Y-14954464D01*
X16458510Y-14954834D01*
X16407648Y-14960358D01*
X16392396Y-14963984D01*
X16271946Y-15009139D01*
X16256351Y-15017677D01*
X16154276Y-15094178D01*
X16141715Y-15106739D01*
X16065214Y-15208814D01*
X16056676Y-15224409D01*
X16011522Y-15344857D01*
X16007895Y-15360112D01*
X16002369Y-15410977D01*
X16002000Y-15417791D01*
X16002000Y-16090348D01*
X15418000Y-16090348D01*
X15418000Y-11069697D01*
X15438002Y-11001576D01*
X15491658Y-10955083D01*
X15514051Y-10947308D01*
X15528422Y-10943791D01*
X15685832Y-10905273D01*
X15845039Y-10840788D01*
X15932931Y-10805188D01*
X15932932Y-10805188D01*
X15937160Y-10803475D01*
X16171161Y-10666462D01*
X16382932Y-10497104D01*
X16504399Y-10367075D01*
X16564921Y-10302287D01*
X16564923Y-10302284D01*
X16568037Y-10298951D01*
X16722598Y-10076151D01*
X16804624Y-9911273D01*
X16841346Y-9837460D01*
X16841347Y-9837457D01*
X16843379Y-9833373D01*
X16927847Y-9575703D01*
X16974235Y-9308538D01*
X16978500Y-9222863D01*
X16978500Y-8533579D01*
X16976328Y-8503633D01*
X16964205Y-8336563D01*
X16963875Y-8332012D01*
X16962891Y-8327554D01*
X16906400Y-8071686D01*
X16906399Y-8071682D01*
X16905415Y-8067226D01*
X16809345Y-7813653D01*
X16677676Y-7576604D01*
X16513167Y-7361046D01*
X16319264Y-7171493D01*
X16100028Y-7011916D01*
X15860053Y-6885659D01*
X15855752Y-6884140D01*
X15855747Y-6884138D01*
X15677998Y-6821369D01*
X15604366Y-6795367D01*
X15544592Y-6783585D01*
X15519634Y-6778666D01*
X15456667Y-6745868D01*
X15421428Y-6684234D01*
X15418000Y-6655044D01*
X15418000Y-634000D01*
X15438002Y-565879D01*
X15491658Y-519386D01*
X15544000Y-508000D01*
X16369666Y-508000D01*
X16437787Y-528002D01*
G37*
%TD.AperFunction*%
%TA.AperFunction,Conductor*%
G36*
X18956496Y-61328081D02*
G01*
X19094783Y-61383672D01*
X19314767Y-61429229D01*
X19319378Y-61429495D01*
X19319379Y-61429495D01*
X19369952Y-61432411D01*
X19369956Y-61432411D01*
X19371775Y-61432516D01*
X20220405Y-61432516D01*
X20288526Y-61452518D01*
X20309500Y-61469421D01*
X20641000Y-61800921D01*
X20675026Y-61863233D01*
X20669961Y-61934048D01*
X20627414Y-61990884D01*
X20560894Y-62015695D01*
X20551905Y-62016016D01*
X20182115Y-62016016D01*
X20166876Y-62020491D01*
X20165671Y-62021881D01*
X20164000Y-62029564D01*
X20164000Y-64513900D01*
X20168475Y-64529139D01*
X20169865Y-64530344D01*
X20177548Y-64532015D01*
X20575011Y-64532015D01*
X20643132Y-64552017D01*
X20689625Y-64605673D01*
X20701011Y-64658015D01*
X20701011Y-78026143D01*
X20681009Y-78094264D01*
X20627353Y-78140757D01*
X20557079Y-78150861D01*
X20514119Y-78136452D01*
X20493890Y-78125286D01*
X20493886Y-78125284D01*
X20489355Y-78122783D01*
X20484486Y-78121059D01*
X20484482Y-78121057D01*
X20275903Y-78047195D01*
X20275899Y-78047194D01*
X20271028Y-78045469D01*
X20265935Y-78044562D01*
X20265932Y-78044561D01*
X20048095Y-78005758D01*
X20048089Y-78005757D01*
X20043006Y-78004852D01*
X19965644Y-78003907D01*
X19816581Y-78002086D01*
X19816579Y-78002086D01*
X19811411Y-78002023D01*
X19582464Y-78037057D01*
X19490483Y-78067121D01*
X19433156Y-78085858D01*
X19362192Y-78088009D01*
X19301330Y-78051453D01*
X19269894Y-77987795D01*
X19268011Y-77966093D01*
X19268011Y-64658016D01*
X19288013Y-64589895D01*
X19341669Y-64543402D01*
X19394011Y-64532016D01*
X19637885Y-64532016D01*
X19653124Y-64527541D01*
X19654329Y-64526151D01*
X19656000Y-64518468D01*
X19656000Y-62034132D01*
X19651525Y-62018893D01*
X19650135Y-62017688D01*
X19642452Y-62016017D01*
X18909500Y-62016017D01*
X18841379Y-61996015D01*
X18794886Y-61942359D01*
X18783500Y-61890017D01*
X18783500Y-61444988D01*
X18803502Y-61376867D01*
X18857158Y-61330374D01*
X18927432Y-61320270D01*
X18956496Y-61328081D01*
G37*
%TD.AperFunction*%
%TA.AperFunction,Conductor*%
G36*
X19170531Y-29880326D02*
G01*
X19212870Y-29889094D01*
X19314767Y-29910196D01*
X19319378Y-29910462D01*
X19319379Y-29910462D01*
X19369952Y-29913378D01*
X19369956Y-29913378D01*
X19371775Y-29913483D01*
X20220406Y-29913483D01*
X20288527Y-29933485D01*
X20309501Y-29950388D01*
X20641001Y-30281888D01*
X20675027Y-30344200D01*
X20669962Y-30415015D01*
X20627415Y-30471851D01*
X20560895Y-30496662D01*
X20551906Y-30496983D01*
X20182115Y-30496983D01*
X20166876Y-30501458D01*
X20165671Y-30502848D01*
X20164000Y-30510531D01*
X20164000Y-32994867D01*
X20168475Y-33010106D01*
X20169865Y-33011311D01*
X20177548Y-33012982D01*
X20675989Y-33012982D01*
X20744110Y-33032984D01*
X20790603Y-33086640D01*
X20801989Y-33138982D01*
X20801989Y-46557164D01*
X20781987Y-46625285D01*
X20728331Y-46671778D01*
X20658057Y-46681882D01*
X20615096Y-46667473D01*
X20493884Y-46600561D01*
X20493883Y-46600560D01*
X20489355Y-46598061D01*
X20484486Y-46596337D01*
X20484482Y-46596335D01*
X20275903Y-46522473D01*
X20275899Y-46522472D01*
X20271028Y-46520747D01*
X20265935Y-46519840D01*
X20265932Y-46519839D01*
X20048095Y-46481036D01*
X20048089Y-46481035D01*
X20043006Y-46480130D01*
X19965644Y-46479185D01*
X19816581Y-46477364D01*
X19816579Y-46477364D01*
X19811411Y-46477301D01*
X19582464Y-46512335D01*
X19516605Y-46533861D01*
X19458645Y-46552805D01*
X19387681Y-46554956D01*
X19326819Y-46518400D01*
X19295383Y-46454742D01*
X19293500Y-46433040D01*
X19293500Y-33668767D01*
X19294027Y-33657584D01*
X19295702Y-33650091D01*
X19293562Y-33582000D01*
X19293500Y-33578043D01*
X19293500Y-33550144D01*
X19292996Y-33546153D01*
X19292063Y-33534311D01*
X19291822Y-33526622D01*
X19290674Y-33490111D01*
X19288462Y-33482497D01*
X19288461Y-33482492D01*
X19285023Y-33470659D01*
X19281012Y-33451295D01*
X19279467Y-33439064D01*
X19278474Y-33431203D01*
X19275557Y-33423836D01*
X19275556Y-33423831D01*
X19262198Y-33390092D01*
X19258354Y-33378865D01*
X19252661Y-33359271D01*
X19246018Y-33336407D01*
X19235707Y-33318972D01*
X19227012Y-33301224D01*
X19219552Y-33282383D01*
X19193564Y-33246613D01*
X19187049Y-33236694D01*
X19167195Y-33203124D01*
X19149734Y-33134308D01*
X19172250Y-33066976D01*
X19227593Y-33022506D01*
X19275647Y-33012983D01*
X19637885Y-33012983D01*
X19653124Y-33008508D01*
X19654329Y-33007118D01*
X19656000Y-32999435D01*
X19656000Y-30515099D01*
X19651525Y-30499860D01*
X19650135Y-30498655D01*
X19642452Y-30496984D01*
X19144980Y-30496984D01*
X19076859Y-30476982D01*
X19030366Y-30423326D01*
X19018980Y-30370984D01*
X19018980Y-30003708D01*
X19038982Y-29935587D01*
X19092638Y-29889094D01*
X19162912Y-29878990D01*
X19170531Y-29880326D01*
G37*
%TD.AperFunction*%
%TD*%
M02*
